<svg width="213" height="216" viewBox="0 0 213 216" fill="none" xmlns="http://www.w3.org/2000/svg">
<g clip-path="url(#clip0_294_350)">
<path d="M83.0703 141.771L20.7511 79.9101C13.042 72.2222 8.38447 62.0255 7.63517 51.1956C6.88586 40.3657 10.0952 29.6311 16.6729 20.9662C23.2506 12.3013 32.7542 6.28898 43.4356 4.03515C54.117 1.78133 65.2578 3.43758 74.8087 8.69925L99.0446 22.1275C100.28 22.8083 101.669 23.1655 103.081 23.1655C104.493 23.1655 105.882 22.8083 107.117 22.1275L130.845 8.90103C148.468 -0.926455 170.746 2.13149 185.016 16.3271C190.534 21.8207 194.53 28.6386 196.617 36.1196C198.703 43.6005 198.81 51.4907 196.926 59.0246C197.933 59.9146 198.716 61.0272 199.213 62.273C201.789 53.9264 202.033 45.0403 199.918 36.5666C197.803 28.0929 193.409 20.3509 187.206 14.17C171.941 -0.986135 148.16 -4.24586 129.352 6.23243L105.625 19.4589C104.847 19.8866 103.973 20.111 103.084 20.111C102.195 20.111 101.32 19.8866 100.543 19.4589L76.301 6.03918C57.5052 -4.37659 33.7638 -1.06571 18.5357 14.0705C14.0459 18.5373 10.4854 23.8397 8.05774 29.6749C5.63003 35.5101 4.38267 41.7637 4.38691 48.0783C4.39116 54.3929 5.64694 60.6448 8.08249 66.4768C10.518 72.3087 14.0856 77.6064 18.5814 82.0672L80.9006 143.917C81.2085 143.395 81.594 142.923 82.044 142.516C82.3626 142.233 82.7093 141.984 83.0789 141.771" fill="#FFC200"/>
<path d="M195.796 65.1035C195.701 63.9003 195.142 62.78 194.237 61.9755C193.332 61.171 192.15 60.7442 190.937 60.7838C186.674 60.8861 178.439 62.8527 167.418 73.7516C166.015 75.1385 164.634 76.5481 163.345 78.0401L149.557 93.9551L107.681 95.0521C101.997 95.1929 96.4688 96.9203 91.7263 100.037L91.6206 100.108C91.27 100.323 90.9921 100.637 90.8222 101.01C90.6523 101.383 90.5983 101.798 90.6671 102.202C90.7359 102.606 90.9243 102.98 91.2082 103.277C91.4921 103.574 91.8587 103.779 92.2609 103.868L132.971 113.394L103.484 147.674C103.484 147.674 90.7744 145.628 86.4435 144.945C86.1451 144.894 85.839 144.91 85.5473 144.991C85.2556 145.072 84.9856 145.216 84.7568 145.413C84.5279 145.61 84.3459 145.855 84.2238 146.131C84.1017 146.406 84.0426 146.705 84.0508 147.006C84.0765 147.447 84.2576 147.866 84.5625 148.188L101.094 164.291C101.523 164.719 102.097 164.974 102.704 165.004C103.312 165.035 103.909 164.839 104.379 164.455C104.427 164.413 104.473 164.37 104.519 164.322L181.029 88.8452C183.24 86.6728 185.316 84.3674 187.243 81.9421C193.369 74.2063 196.057 68.9771 195.805 65.1035" fill="#03D6D0"/>
<path d="M212.717 213.766C212.536 214.198 212.273 214.591 211.942 214.923C211.608 215.258 211.212 215.525 210.776 215.71C210.105 215.998 209.362 216.079 208.645 215.941C207.927 215.803 207.268 215.453 206.754 214.937C206.427 214.61 206.165 214.224 205.982 213.8C205.795 213.356 205.699 212.878 205.699 212.396C205.699 211.914 205.795 211.437 205.982 210.992C206.351 210.119 207.047 209.422 207.923 209.049C208.376 208.861 208.862 208.764 209.352 208.764C209.843 208.764 210.329 208.861 210.782 209.049C211.209 209.233 211.597 209.496 211.925 209.824C212.255 210.156 212.517 210.548 212.697 210.978C212.884 211.423 212.98 211.9 212.98 212.382C212.98 212.864 212.884 213.341 212.697 213.786M212.394 211.098C212.07 210.304 211.443 209.671 210.65 209.336C210.234 209.161 209.787 209.071 209.335 209.071C208.884 209.071 208.436 209.161 208.02 209.336C207.626 209.506 207.268 209.749 206.965 210.052C206.664 210.355 206.426 210.714 206.265 211.109C206.017 211.713 205.951 212.377 206.076 213.018C206.201 213.659 206.511 214.25 206.968 214.718C207.268 215.021 207.624 215.262 208.017 215.429C208.433 215.603 208.88 215.693 209.331 215.693C209.782 215.693 210.229 215.603 210.644 215.429C211.04 215.259 211.399 215.016 211.702 214.713C212.004 214.41 212.242 214.05 212.403 213.655C212.738 212.835 212.738 211.918 212.403 211.098M210.719 212.283C210.527 212.469 210.286 212.597 210.024 212.652L211.185 214.147H210.499L209.418 212.743H208.46V214.147H207.906V210.407H209.581C209.945 210.391 210.303 210.497 210.599 210.708C210.726 210.803 210.828 210.928 210.896 211.071C210.965 211.214 210.997 211.371 210.99 211.53C210.996 211.665 210.973 211.8 210.924 211.926C210.875 212.052 210.8 212.167 210.705 212.263M210.176 211.078C209.989 210.956 209.769 210.898 209.547 210.91H208.446V212.232H209.541C209.768 212.243 209.992 212.181 210.181 212.055C210.256 211.998 210.317 211.925 210.359 211.841C210.402 211.757 210.425 211.665 210.427 211.571C210.428 211.478 210.409 211.385 210.37 211.299C210.331 211.214 210.274 211.138 210.201 211.078" fill="#03D6D0"/>
</g>
<defs>
<clipPath id="clip0_294_350">
<rect width="213" height="216" fill="white"/>
</clipPath>
</defs>
</svg>
