<svg width="330" height="69" viewBox="0 0 330 69" fill="none" xmlns="http://www.w3.org/2000/svg">
<g clip-path="url(#clip0_11_492)">
<path d="M32.7168 59.284L6.80202 33.4185C3.59301 30.2043 1.65334 25.9392 1.34012 21.4084C1.0269 16.8776 2.36122 12.3862 5.09741 8.7611C7.83361 5.13599 11.7875 2.62123 16.231 1.67982C20.6746 0.738404 25.3088 1.43371 29.2803 3.63773L39.3578 9.25587C39.8712 9.54028 40.4485 9.68949 41.0355 9.68949C41.6224 9.68949 42.1998 9.54028 42.7132 9.25587L52.5815 3.72522C55.7857 1.92837 59.4458 1.10838 63.1105 1.36633C66.7753 1.62428 70.2844 2.9489 73.2052 5.17688C76.1261 7.40486 78.331 10.4388 79.5481 13.9046C80.7652 17.3704 80.9414 21.1166 80.0547 24.6813C80.4709 25.055 80.7936 25.5209 80.9969 26.0418C82.0688 22.5513 82.1704 18.835 81.2909 15.2912C80.4114 11.7473 78.584 8.50962 76.0045 5.92505C69.664 -0.414526 59.7729 -1.775 51.9576 2.60565L42.0893 8.1363C41.766 8.31536 41.4025 8.4093 41.033 8.4093C40.6634 8.4093 40.2999 8.31536 39.9766 8.1363L29.9016 2.5245C22.0864 -1.82952 12.2155 -0.450028 5.88265 5.88321C4.01599 7.7511 2.53568 9.9684 1.5263 12.4085C0.516916 14.8485 -0.00176681 17.4635 -0.000118152 20.104C0.0015305 22.7446 0.523479 25.3589 1.53591 27.7977C2.54834 30.2365 4.03141 32.4519 5.9004 34.3175L31.8101 60.183C31.9376 59.963 32.098 59.7637 32.2856 59.5921C32.4178 59.4739 32.5618 59.3698 32.7155 59.2815" fill="#FFC200"/>
<path d="M79.5844 27.2247C79.5445 26.7214 79.3122 26.2528 78.9358 25.9163C78.5593 25.5799 78.0677 25.4014 77.563 25.4179C75.7877 25.4598 72.3638 26.2839 67.7847 30.8395C67.2027 31.4202 66.627 32.0098 66.0918 32.6336L60.3613 39.2851L42.9491 39.7441C40.5859 39.8045 38.2872 40.5281 36.3157 41.8324C36.3005 41.8425 36.2865 41.8539 36.2713 41.8628C36.1258 41.9529 36.0105 42.0844 35.94 42.2403C35.8696 42.3963 35.8472 42.5697 35.8758 42.7384C35.9044 42.9072 35.9826 43.0635 36.1005 43.1876C36.2184 43.3117 36.3706 43.3978 36.5376 43.435L53.4629 47.4201L41.2131 61.7475C41.2131 61.7475 35.9264 60.8917 34.127 60.6064C34.0028 60.5852 33.8755 60.5917 33.7542 60.6256C33.6329 60.6595 33.5206 60.7198 33.4254 60.8022C33.3302 60.8847 33.2545 60.9872 33.2037 61.1024C33.1529 61.2177 33.1282 61.3427 33.1315 61.4686C33.1424 61.6533 33.2178 61.8283 33.3446 61.9631L40.2189 68.697C40.3971 68.8761 40.6358 68.9822 40.8881 68.9946C41.1405 69.0071 41.3884 68.9249 41.5834 68.7642C41.6042 68.7471 41.6241 68.7289 41.643 68.7097L73.4455 37.15C74.3634 36.2411 75.2248 35.277 76.0248 34.2629C78.5724 31.0285 79.6883 28.8426 79.5844 27.2234" fill="#03D6D0"/>
<path d="M96.7771 21.7498H106.538V48.513H123.593V57.112H96.7771V21.7498Z" fill="#03D6D0"/>
<path d="M164.303 21.7054H175.22L183.221 43.9637L191.22 21.7054H201.938L187.649 57.1107H178.592L164.303 21.7054Z" fill="#03D6D0"/>
<path d="M211.546 21.7498H207.572V57.112H211.546V21.7498Z" fill="#03D6D0"/>
<path d="M243.743 44.164L235.739 26.1064L227.688 44.164H243.743ZM233.932 21.7498H237.655L253.706 57.112H249.434L245.308 47.7535H226.134L221.958 57.112H217.883L233.932 21.7498Z" fill="#03D6D0"/>
<path d="M270.048 57.1107C267.397 57.1107 265.199 56.519 263.454 55.3356C261.72 54.1665 260.261 52.6335 259.179 50.8434L262.049 48.3646C263.119 50.018 264.267 51.2745 265.493 52.1342C266.719 52.9938 268.256 53.4215 270.104 53.4173C272.082 53.4173 273.726 52.7013 275.036 51.2694C276.345 49.8375 276.999 47.721 276.997 44.9197V21.7498H280.972V44.8703C280.972 46.9615 280.69 48.7822 280.126 50.3325C279.562 51.8827 278.784 53.1646 277.791 54.178C275.787 56.1332 273.208 57.1107 270.056 57.1107" fill="#03D6D0"/>
<path d="M144.015 47.2933C142.46 47.2918 140.941 46.8295 139.649 45.9648C138.357 45.1001 137.351 43.8718 136.757 42.4352C136.163 40.9987 136.008 39.4183 136.312 37.8939C136.617 36.3695 137.366 34.9695 138.466 33.8709C139.566 32.7723 140.967 32.0243 142.492 31.7216C144.016 31.4189 145.597 31.575 147.033 32.1702C148.469 32.7655 149.697 33.773 150.56 35.0656C151.424 36.3582 151.885 37.8778 151.885 39.4322C151.885 40.4652 151.681 41.488 151.286 42.4423C150.89 43.3965 150.31 44.2634 149.579 44.9935C148.848 45.7236 147.981 46.3025 147.026 46.6971C146.071 47.0917 145.048 47.2943 144.015 47.2933ZM144.015 21.7536C134.237 21.7536 126.31 29.6693 126.31 39.4335C126.31 49.1977 134.237 57.1158 144.015 57.1158C153.793 57.1158 161.72 49.1952 161.72 39.4322C161.72 29.6692 153.794 21.7524 144.015 21.7524" fill="#03D6D0"/>
<path d="M304.176 53.1815C301.457 53.1782 298.799 52.3689 296.54 50.8557C294.28 49.3425 292.52 47.1935 291.481 44.6803C290.443 42.167 290.173 39.4024 290.706 36.7358C291.238 34.0692 292.55 31.6204 294.474 29.699C296.399 27.7775 298.85 26.4696 301.517 25.9406C304.185 25.4116 306.95 25.6852 309.462 26.727C311.974 27.7687 314.121 29.5317 315.631 31.7931C317.141 34.0546 317.947 36.7129 317.947 39.4322C317.946 41.2392 317.589 43.0284 316.896 44.6974C316.204 46.3665 315.189 47.8828 313.91 49.1598C312.632 50.4368 311.114 51.4494 309.444 52.1399C307.774 52.8304 305.984 53.1852 304.176 53.184M304.176 21.7524C294.398 21.7524 286.47 29.668 286.47 39.4322C286.47 49.1964 294.398 57.1146 304.176 57.1146C313.955 57.1146 321.882 49.1952 321.882 39.4322C321.882 29.6693 313.955 21.7524 304.176 21.7524Z" fill="#03D6D0"/>
<path d="M329.691 54.6472C329.288 55.6104 328.525 56.3787 327.565 56.7887C327.068 56.9979 326.534 57.1057 325.995 57.1057C325.455 57.1057 324.921 56.9979 324.424 56.7887C323.95 56.5892 323.519 56.2984 323.156 55.9329C322.796 55.5685 322.509 55.138 322.312 54.6649C322.106 54.1755 322.001 53.6501 322.001 53.1194C322.001 52.5887 322.106 52.0633 322.312 51.5738C322.713 50.6103 323.475 49.8418 324.436 49.4323C324.933 49.2234 325.467 49.1158 326.007 49.1158C326.546 49.1158 327.08 49.2234 327.578 49.4323C328.052 49.633 328.483 49.9236 328.846 50.2881C329.206 50.6532 329.492 51.0835 329.691 51.556C329.895 52.0457 330 52.571 330 53.1016C330 53.6322 329.895 54.1575 329.691 54.6472ZM329.358 51.6879C329.181 51.2565 328.923 50.8631 328.597 50.529C328.261 50.1864 327.859 49.9151 327.415 49.7313C326.971 49.5474 326.495 49.4548 326.014 49.4589C325.517 49.4539 325.024 49.5532 324.567 49.7505C324.137 49.9394 323.746 50.2069 323.413 50.5391C323.086 50.8744 322.827 51.2707 322.653 51.7056C322.467 52.155 322.373 52.637 322.376 53.1232C322.372 54.0837 322.745 55.0076 323.415 55.6958C323.741 56.0305 324.132 56.2969 324.562 56.4793C325.018 56.6709 325.507 56.7697 326.001 56.7697C326.495 56.7697 326.984 56.6709 327.44 56.4793C327.873 56.2927 328.267 56.0245 328.599 55.6894C328.926 55.3546 329.185 54.9587 329.36 54.5242C329.728 53.6164 329.728 52.6007 329.36 51.6929M327.516 52.9989C327.305 53.2032 327.042 53.3445 326.755 53.4072L328.023 55.0555H327.272L326.092 53.5061H325.042V55.0517H324.436V50.9563H326.267C326.665 50.9386 327.058 51.0551 327.383 51.2872C327.522 51.3922 327.634 51.5294 327.709 51.6871C327.784 51.8447 327.819 52.0181 327.813 52.1925C327.82 52.34 327.798 52.4875 327.747 52.626C327.696 52.7646 327.617 52.8915 327.516 52.9989ZM326.936 51.6955C326.732 51.5598 326.49 51.4943 326.245 51.5091H325.042V52.9609H326.212C326.46 52.9717 326.706 52.9043 326.913 52.7681C326.996 52.7054 327.063 52.6249 327.11 52.5325C327.157 52.4402 327.183 52.3384 327.185 52.2348C327.187 52.1312 327.166 52.0284 327.123 51.9342C327.08 51.8399 327.016 51.7566 326.936 51.6904" fill="#03D6D0"/>
</g>
<defs>
<clipPath id="clip0_11_492">
<rect width="330" height="69" fill="white"/>
</clipPath>
</defs>
</svg>
