<svg width="154" height="25" viewBox="0 0 154 25" fill="none" xmlns="http://www.w3.org/2000/svg">
<path d="M0.638306 0.499878H7.05659V18.342H18.2721V24.0747H0.638306V0.499878Z" fill="#03D6D0"/>
<path d="M45.0418 0.470337H52.2205L57.4814 15.3092L62.7415 0.470337H69.7893L60.3933 24.0739H54.4378L45.0418 0.470337Z" fill="#03D6D0"/>
<path d="M76.1075 0.499878H73.4942V24.0747H76.1075V0.499878Z" fill="#03D6D0"/>
<path d="M97.2794 15.4427L92.0161 3.40425L86.7218 15.4427H97.2794ZM90.8278 0.499878H93.276L103.831 24.0747H101.022L98.3084 17.8357H85.7003L82.9544 24.0747H80.2744L90.8278 0.499878Z" fill="#03D6D0"/>
<path d="M114.577 24.0738C112.834 24.0738 111.388 23.6794 110.241 22.8904C109.101 22.111 108.141 21.089 107.43 19.8956L109.317 18.2431C110.021 19.3453 110.776 20.183 111.582 20.7561C112.388 21.3292 113.399 21.6143 114.614 21.6115C115.915 21.6115 116.996 21.1342 117.857 20.1796C118.718 19.225 119.148 17.814 119.147 15.9465V0.499878H121.76V15.9135C121.76 17.3077 121.575 18.5215 121.204 19.555C120.833 20.5885 120.321 21.443 119.669 22.1187C118.351 23.4221 116.655 24.0738 114.582 24.0738" fill="#03D6D0"/>
<path d="M31.7007 17.5289C30.6784 17.5279 29.6793 17.2196 28.8298 16.6432C27.9803 16.0667 27.3184 15.2479 26.9279 14.2902C26.5373 13.3325 26.4356 12.2789 26.6357 11.2626C26.8357 10.2464 27.3285 9.31302 28.0518 8.5806C28.775 7.84818 29.6962 7.34955 30.699 7.14775C31.7017 6.94594 32.741 7.05002 33.6853 7.44683C34.6297 7.84364 35.4369 8.51535 36.0048 9.37708C36.5726 10.2388 36.8757 11.2518 36.8757 12.2881C36.8757 12.9768 36.7418 13.6587 36.4817 14.2948C36.2216 14.931 35.8403 15.509 35.3597 15.9957C34.8791 16.4824 34.3086 16.8683 33.6807 17.1314C33.0529 17.3945 32.3801 17.5295 31.7007 17.5289ZM31.7007 0.502433C25.2708 0.502433 20.0583 5.7795 20.0583 12.289C20.0583 18.7985 25.2708 24.0772 31.7007 24.0772C38.1307 24.0772 43.3432 18.7968 43.3432 12.2881C43.3432 5.7795 38.1315 0.501587 31.7007 0.501587" fill="#03D6D0"/>
<path d="M137.019 21.4543C135.231 21.4522 133.483 20.9126 131.997 19.9038C130.511 18.895 129.354 17.4623 128.671 15.7868C127.988 14.1113 127.811 12.2682 128.161 10.4905C128.511 8.71282 129.374 7.08029 130.639 5.7993C131.905 4.51832 133.516 3.64639 135.271 3.29372C137.025 2.94106 138.843 3.1235 140.495 3.81797C142.147 4.51245 143.558 5.68779 144.551 7.19542C145.545 8.70305 146.074 10.4753 146.074 12.2881C146.073 13.4928 145.839 14.6856 145.383 15.7983C144.928 16.911 144.261 17.9219 143.42 18.7732C142.579 19.6245 141.581 20.2996 140.483 20.76C139.384 21.2203 138.208 21.4568 137.019 21.456M137.019 0.501587C130.589 0.501587 125.376 5.77865 125.376 12.2881C125.376 18.7976 130.589 24.0764 137.019 24.0764C143.449 24.0764 148.662 18.7968 148.662 12.2881C148.662 5.7795 143.449 0.501587 137.019 0.501587Z" fill="#03D6D0"/>
<path d="M153.796 22.4315C153.532 23.0736 153.03 23.5858 152.399 23.8592C152.072 23.9986 151.721 24.0705 151.366 24.0705C151.012 24.0705 150.66 23.9986 150.333 23.8592C150.021 23.7262 149.738 23.5323 149.5 23.2886C149.263 23.0457 149.074 22.7587 148.944 22.4433C148.809 22.117 148.74 21.7667 148.74 21.4129C148.74 21.0591 148.809 20.7089 148.944 20.3826C149.208 19.7402 149.71 19.2279 150.341 18.9549C150.668 18.8156 151.019 18.7439 151.374 18.7439C151.729 18.7439 152.08 18.8156 152.407 18.9549C152.719 19.0887 153.002 19.2824 153.241 19.5254C153.478 19.7688 153.666 20.0557 153.796 20.3707C153.931 20.6972 154 21.0474 154 21.4011C154 21.7548 153.931 22.105 153.796 22.4315ZM153.578 20.4586C153.461 20.1711 153.292 19.9088 153.078 19.686C152.856 19.4576 152.592 19.2768 152.3 19.1542C152.008 19.0316 151.695 18.9699 151.379 18.9726C151.052 18.9693 150.728 19.0355 150.428 19.167C150.145 19.293 149.887 19.4713 149.669 19.6928C149.453 19.9163 149.283 20.1805 149.169 20.4705C149.047 20.7701 148.985 21.0914 148.987 21.4155C148.984 22.0558 149.229 22.6718 149.67 23.1305C149.885 23.3537 150.141 23.5313 150.424 23.6529C150.724 23.7807 151.045 23.8465 151.37 23.8465C151.695 23.8465 152.017 23.7807 152.316 23.6529C152.601 23.5285 152.86 23.3497 153.079 23.1263C153.294 22.9031 153.464 22.6392 153.579 22.3495C153.821 21.7443 153.821 21.0672 153.579 20.462M152.366 21.3326C152.228 21.4688 152.055 21.5631 151.866 21.6048L152.7 22.7037H152.206L151.43 21.6708H150.74V22.7011H150.341V19.9709H151.545C151.807 19.9591 152.066 20.0368 152.279 20.1915C152.371 20.2615 152.444 20.353 152.493 20.4581C152.543 20.5632 152.566 20.6788 152.562 20.795C152.566 20.8934 152.552 20.9917 152.518 21.0841C152.485 21.1765 152.433 21.261 152.366 21.3326ZM151.985 20.4637C151.851 20.3732 151.692 20.3296 151.531 20.3394H150.74V21.3073H151.509C151.672 21.3145 151.834 21.2696 151.97 21.1788C152.025 21.137 152.069 21.0833 152.1 21.0217C152.131 20.9601 152.147 20.8923 152.149 20.8232C152.15 20.7542 152.136 20.6857 152.108 20.6228C152.08 20.56 152.038 20.5044 151.985 20.4603" fill="#03D6D0"/>
</svg>
