<svg width="110" height="110" viewBox="0 0 110 110" fill="none" xmlns="http://www.w3.org/2000/svg">
<circle cx="54.9389" cy="54.9389" r="54.9389" fill="black"/>
<path d="M86.3675 39.4068C85.9277 38.2494 85.0811 37.292 83.9861 36.714C82.8912 36.1359 81.6231 35.9769 80.4194 36.2666L76.9641 34.1591C76.321 33.7697 75.5989 33.5293 74.8507 33.4557C74.1025 33.382 73.3474 33.477 72.6407 33.7336L60.0039 38.332L49.626 23.6699C49.4989 23.4903 49.3163 23.3575 49.1063 23.2919C48.8964 23.2262 48.6706 23.2314 48.4639 23.3066L42.8138 25.3649C42.6898 25.4098 42.5759 25.4786 42.4786 25.5675C42.3812 25.6564 42.3023 25.7636 42.2464 25.8829C42.1905 26.0023 42.1586 26.1316 42.1527 26.2633C42.1467 26.3949 42.1668 26.5265 42.2117 26.6505L48.0404 42.6844L35.4758 47.2556L28.7288 39.7078C28.5954 39.5592 28.4208 39.4538 28.2272 39.405C28.0336 39.3562 27.8298 39.3662 27.6419 39.4339L23.8655 40.8067C23.7416 40.8516 23.6276 40.9204 23.5303 41.0093C23.4329 41.0982 23.354 41.2054 23.2981 41.3248C23.2422 41.4442 23.2104 41.5734 23.2044 41.7051C23.1984 41.8368 23.2185 41.9684 23.2634 42.0923L28.7559 57.1789C28.8263 57.3725 28.9547 57.5397 29.1234 57.6578C29.2922 57.776 29.4932 57.8393 29.6992 57.8392H29.7113L50.9778 57.5783C51.0908 57.5765 51.2028 57.5558 51.309 57.5171L53.1927 56.8296L58.6842 71.9192C58.729 72.0433 58.7979 72.1573 58.8868 72.2548C58.9758 72.3522 59.0831 72.4312 59.2026 72.4871C59.3221 72.543 59.4515 72.5748 59.5833 72.5807C59.7151 72.5866 59.8467 72.5664 59.9707 72.5214L65.6288 70.4611C65.8357 70.3858 66.0121 70.2447 66.1309 70.0594C66.2497 69.874 66.3043 69.6548 66.2862 69.4354L64.8812 52.5755L83.3668 45.8436C83.9866 45.618 84.5558 45.2723 85.0419 44.8265C85.528 44.3806 85.9214 43.8433 86.1996 43.2453C86.4778 42.6472 86.6354 42.0002 86.6634 41.3412C86.6913 40.6822 86.5891 40.0242 86.3625 39.4048L86.3675 39.4068ZM44.4426 26.9074L48.4308 25.4552L58.0499 39.0435L49.9291 41.998L44.4426 26.9074ZM28.2441 49.89L25.4943 42.3492L27.6861 41.5524L33.4466 47.9953L28.2441 49.89ZM60.2277 70.2935L53.3623 51.4265L62.5007 48.0996L64.2228 68.8333L60.2277 70.2935ZM82.6854 43.9609L64.7146 50.5052L64.3924 46.6284C64.3798 46.4746 64.3318 46.3257 64.2523 46.1934C64.1728 46.0612 64.0638 45.949 63.9338 45.8657C63.8038 45.7828 63.6566 45.7306 63.5034 45.7132C63.3501 45.6958 63.195 45.7137 63.0497 45.7654L51.7335 49.88C51.6094 49.9248 51.4954 49.9937 51.3979 50.0826C51.3005 50.1716 51.2216 50.2789 51.1656 50.3984C51.1097 50.5179 51.0779 50.6472 51.072 50.779C51.0661 50.9109 51.0863 51.0425 51.1314 51.1665L52.5042 54.9379L50.7791 55.5672L30.3967 55.817L28.9275 51.7757L73.3232 35.6183C73.7478 35.4635 74.2017 35.4059 74.6515 35.4497C75.1013 35.4935 75.5356 35.6375 75.9224 35.8712L76.8838 36.4583L73.9373 37.5301L74.6228 39.4168L79.0776 37.7961L79.756 38.2095C79.8835 38.2874 80.0268 38.3359 80.1754 38.3513C80.3241 38.3668 80.4743 38.3488 80.6151 38.2988C80.9866 38.1629 81.3814 38.1015 81.7767 38.1181C82.172 38.1347 82.5602 38.229 82.919 38.3956C83.2779 38.5622 83.6005 38.7979 83.8683 39.0892C84.136 39.3805 84.3438 39.7216 84.4798 40.0932C84.6157 40.4648 84.6771 40.8595 84.6605 41.2548C84.6439 41.6502 84.5496 42.0383 84.383 42.3972C84.2164 42.7561 83.9807 43.0786 83.6894 43.3464C83.3982 43.6142 83.057 43.822 82.6854 43.9579V43.9609Z" fill="#03D6D0"/>
<path d="M69.2202 39.2502L67.335 39.9359L68.021 41.8221L69.9063 41.1364L69.2202 39.2502Z" fill="#03D6D0"/>
<path d="M65.4479 40.6225L63.5626 41.3083L64.2487 43.1945L66.134 42.5088L65.4479 40.6225Z" fill="#03D6D0"/>
<path d="M61.6769 41.9965L59.7916 42.6823L60.4777 44.5685L62.363 43.8827L61.6769 41.9965Z" fill="#03D6D0"/>
<path d="M57.9044 43.3689L56.0192 44.0547L56.7052 45.9409L58.5905 45.2552L57.9044 43.3689Z" fill="#03D6D0"/>
<path d="M54.1321 44.7423L52.2468 45.428L52.9329 47.3143L54.8182 46.6285L54.1321 44.7423Z" fill="#03D6D0"/>
<path d="M50.3598 46.1157L48.4745 46.8015L49.1606 48.6877L51.0459 48.0019L50.3598 46.1157Z" fill="#03D6D0"/>
<path d="M46.5874 47.4881L44.7021 48.1738L45.3882 50.0601L47.2735 49.3743L46.5874 47.4881Z" fill="#03D6D0"/>
<path d="M42.816 48.8601L40.9301 49.547L41.617 51.4329L43.5029 50.746L42.816 48.8601Z" fill="#03D6D0"/>
<path d="M39.0438 50.2338L37.1578 50.9208L37.8448 52.8067L39.7307 52.1198L39.0438 50.2338Z" fill="#03D6D0"/>
<path d="M41.8926 66.9817H48.0986C48.3354 67.6513 48.8012 68.2157 49.4138 68.575C50.0264 68.9344 50.7463 69.0656 51.4463 68.9455C52.1462 68.8254 52.7812 68.4617 53.239 67.9187C53.6968 67.3757 53.9478 66.6884 53.9478 65.9782C53.9478 65.268 53.6968 64.5806 53.239 64.0376C52.7812 63.4946 52.1462 63.1309 51.4463 63.0108C50.7463 62.8907 50.0264 63.022 49.4138 63.3813C48.8012 63.7407 48.3354 64.305 48.0986 64.9746H41.8926C40.2956 64.9746 38.7641 65.609 37.6348 66.7382C36.5056 67.8675 35.8712 69.399 35.8712 70.996C35.8712 72.593 36.5056 74.1245 37.6348 75.2537C38.7641 76.383 40.2956 77.0174 41.8926 77.0174H58.9532V75.0102H41.8926C40.828 75.0102 39.8069 74.5873 39.0541 73.8345C38.3013 73.0817 37.8783 72.0606 37.8783 70.996C37.8783 69.9313 38.3013 68.9103 39.0541 68.1575C39.8069 67.4047 40.828 66.9817 41.8926 66.9817ZM50.9247 64.9746C51.1232 64.9746 51.3172 65.0335 51.4822 65.1437C51.6473 65.254 51.7759 65.4107 51.8518 65.5941C51.9278 65.7775 51.9477 65.9793 51.909 66.174C51.8702 66.3686 51.7747 66.5474 51.6343 66.6878C51.494 66.8281 51.3151 66.9237 51.1205 66.9624C50.9258 67.0012 50.724 66.9813 50.5406 66.9053C50.3573 66.8294 50.2005 66.7007 50.0902 66.5357C49.98 66.3707 49.9211 66.1767 49.9211 65.9782C49.9211 65.712 50.0268 65.4567 50.215 65.2685C50.4033 65.0803 50.6585 64.9746 50.9247 64.9746Z" fill="#03D6D0"/>
<path d="M62.9673 75.0102H60.9602V77.0173H62.9673V75.0102Z" fill="#03D6D0"/>
<path d="M73.5048 75.0102H64.9745V77.0173H73.5048C74.1702 77.0173 74.8084 77.2816 75.2789 77.7522C75.7494 78.2227 76.0137 78.8608 76.0137 79.5262C76.0137 80.1916 75.7494 80.8298 75.2789 81.3003C74.8084 81.7708 74.1702 82.0351 73.5048 82.0351H41.8926V84.0423H73.5048C74.7026 84.0423 75.8512 83.5665 76.6982 82.7196C77.5451 81.8726 78.0209 80.724 78.0209 79.5262C78.0209 78.3285 77.5451 77.1798 76.6982 76.3329C75.8512 75.486 74.7026 75.0102 73.5048 75.0102Z" fill="#03D6D0"/>
<path d="M27.8426 80.028C27.2901 80.0258 26.7477 80.1755 26.2746 80.461C25.8016 80.7464 25.4162 81.1565 25.1607 81.6464C24.9052 82.1362 24.7895 82.687 24.8261 83.2382C24.8627 83.7895 25.0503 84.3201 25.3683 84.7718C25.6864 85.2236 26.1226 85.5791 26.6292 85.7995C27.1358 86.0199 27.6933 86.0966 28.2407 86.0213C28.788 85.9459 29.304 85.7215 29.7323 85.3724C30.1605 85.0233 30.4845 84.5632 30.6686 84.0423H39.8854V82.0352H30.6686C30.4618 81.4502 30.0793 80.9434 29.5735 80.5841C29.0676 80.2248 28.4631 80.0306 27.8426 80.028ZM27.8426 84.0423C27.6441 84.0423 27.4501 83.9834 27.2851 83.8732C27.12 83.7629 26.9914 83.6062 26.9154 83.4228C26.8395 83.2394 26.8196 83.0376 26.8583 82.8429C26.8971 82.6483 26.9926 82.4695 27.133 82.3291C27.2733 82.1888 27.4522 82.0932 27.6468 82.0545C27.8415 82.0157 28.0433 82.0356 28.2267 82.1116C28.41 82.1875 28.5668 82.3161 28.677 82.4812C28.7873 82.6462 28.8462 82.8402 28.8462 83.0387C28.8462 83.3049 28.7404 83.5602 28.5522 83.7484C28.364 83.9366 28.1088 84.0423 27.8426 84.0423Z" fill="#03D6D0"/>
</svg>
