<svg width="66" height="66" viewBox="0 0 66 66" fill="none" xmlns="http://www.w3.org/2000/svg">
<g id="avion">
<path id="Vector" d="M64.3675 17.4068C63.9277 16.2494 63.0811 15.292 61.9861 14.714C60.8912 14.1359 59.6231 13.9769 58.4194 14.2666L54.9641 12.1591C54.321 11.7697 53.5989 11.5293 52.8507 11.4557C52.1025 11.382 51.3474 11.477 50.6407 11.7336L38.0039 16.332L27.626 1.66989C27.4989 1.49033 27.3163 1.35751 27.1063 1.29187C26.8964 1.22623 26.6706 1.2314 26.4639 1.3066L20.8138 3.36491C20.6898 3.40975 20.5759 3.47859 20.4786 3.56747C20.3812 3.65636 20.3023 3.76356 20.2464 3.88294C20.1905 4.00232 20.1586 4.13156 20.1527 4.26325C20.1467 4.39495 20.1668 4.52653 20.2117 4.65047L26.0404 20.6844L13.4758 25.2556L6.7288 17.7078C6.59544 17.5592 6.42079 17.4538 6.22718 17.405C6.03357 17.3562 5.8298 17.3662 5.64194 17.4339L1.86553 18.8067C1.74156 18.8516 1.62764 18.9204 1.53029 19.0093C1.43293 19.0982 1.35404 19.2054 1.29812 19.3248C1.2422 19.4442 1.21035 19.5734 1.20439 19.7051C1.19844 19.8368 1.21848 19.9684 1.26339 20.0923L6.75589 35.1789C6.82635 35.3725 6.95467 35.5397 7.12344 35.6578C7.2922 35.776 7.49324 35.8393 7.69924 35.8392H7.71129L28.9778 35.5783C29.0908 35.5765 29.2028 35.5558 29.309 35.5171L31.1927 34.8296L36.6842 49.9192C36.729 50.0433 36.7979 50.1573 36.8868 50.2548C36.9758 50.3522 37.0831 50.4312 37.2026 50.4871C37.3221 50.543 37.4515 50.5748 37.5833 50.5807C37.7151 50.5866 37.8467 50.5664 37.9707 50.5214L43.6288 48.4611C43.8357 48.3858 44.0121 48.2447 44.1309 48.0594C44.2497 47.874 44.3043 47.6548 44.2862 47.4354L42.8812 30.5755L61.3668 23.8436C61.9866 23.618 62.5558 23.2723 63.0419 22.8265C63.528 22.3806 63.9214 21.8433 64.1996 21.2453C64.4778 20.6472 64.6354 20.0002 64.6634 19.3412C64.6913 18.6822 64.5891 18.0242 64.3625 17.4048L64.3675 17.4068ZM22.4426 4.90738L26.4308 3.45523L36.0499 17.0435L27.9291 19.998L22.4426 4.90738ZM6.24408 27.89L3.49431 20.3492L5.6861 19.5524L11.4466 25.9953L6.24408 27.89ZM38.2277 48.2935L31.3623 29.4265L40.5007 26.0996L42.2228 46.8333L38.2277 48.2935ZM60.6854 21.9609L42.7146 28.5052L42.3924 24.6284C42.3798 24.4746 42.3318 24.3257 42.2523 24.1934C42.1728 24.0612 42.0638 23.949 41.9338 23.8657C41.8038 23.7828 41.6566 23.7306 41.5034 23.7132C41.3501 23.6958 41.195 23.7137 41.0497 23.7654L29.7335 27.88C29.6094 27.9248 29.4954 27.9937 29.3979 28.0826C29.3005 28.1716 29.2216 28.2789 29.1656 28.3984C29.1097 28.5179 29.0779 28.6472 29.072 28.779C29.0661 28.9109 29.0863 29.0425 29.1314 29.1665L30.5042 32.9379L28.7791 33.5672L8.39672 33.817L6.9275 29.7757L51.3232 13.6183C51.7478 13.4635 52.2017 13.4059 52.6515 13.4497C53.1013 13.4935 53.5356 13.6375 53.9224 13.8712L54.8838 14.4583L51.9373 15.5301L52.6228 17.4168L57.0776 15.7961L57.756 16.2095C57.8835 16.2874 58.0268 16.3359 58.1754 16.3513C58.3241 16.3668 58.4743 16.3488 58.6151 16.2988C58.9866 16.1629 59.3814 16.1015 59.7767 16.1181C60.172 16.1347 60.5602 16.229 60.919 16.3956C61.2779 16.5622 61.6005 16.7979 61.8683 17.0892C62.136 17.3805 62.3438 17.7216 62.4798 18.0932C62.6157 18.4648 62.6771 18.8595 62.6605 19.2548C62.6439 19.6502 62.5496 20.0383 62.383 20.3972C62.2164 20.7561 61.9807 21.0786 61.6894 21.3464C61.3982 21.6142 61.057 21.822 60.6854 21.9579V21.9609Z" fill="#03D6D0"/>
<path id="Vector_2" d="M47.2202 17.2502L45.335 17.9359L46.021 19.8221L47.9063 19.1364L47.2202 17.2502Z" fill="#03D6D0"/>
<path id="Vector_3" d="M43.4479 18.6225L41.5626 19.3083L42.2487 21.1945L44.134 20.5088L43.4479 18.6225Z" fill="#03D6D0"/>
<path id="Vector_4" d="M39.6769 19.9965L37.7916 20.6823L38.4777 22.5685L40.363 21.8827L39.6769 19.9965Z" fill="#03D6D0"/>
<path id="Vector_5" d="M35.9044 21.3689L34.0192 22.0547L34.7052 23.9409L36.5905 23.2552L35.9044 21.3689Z" fill="#03D6D0"/>
<path id="Vector_6" d="M32.1321 22.7423L30.2468 23.428L30.9329 25.3143L32.8182 24.6285L32.1321 22.7423Z" fill="#03D6D0"/>
<path id="Vector_7" d="M28.3598 24.1157L26.4745 24.8015L27.1606 26.6877L29.0459 26.0019L28.3598 24.1157Z" fill="#03D6D0"/>
<path id="Vector_8" d="M24.5874 25.4881L22.7021 26.1738L23.3882 28.0601L25.2735 27.3743L24.5874 25.4881Z" fill="#03D6D0"/>
<path id="Vector_9" d="M20.816 26.8601L18.9301 27.547L19.617 29.4329L21.5029 28.746L20.816 26.8601Z" fill="#03D6D0"/>
<path id="Vector_10" d="M17.0438 28.2338L15.1578 28.9208L15.8448 30.8067L17.7307 30.1198L17.0438 28.2338Z" fill="#03D6D0"/>
<path id="Vector_11" d="M19.8926 44.9817H26.0986C26.3354 45.6513 26.8012 46.2157 27.4138 46.575C28.0264 46.9344 28.7463 47.0656 29.4463 46.9455C30.1462 46.8254 30.7812 46.4617 31.239 45.9187C31.6968 45.3757 31.9478 44.6884 31.9478 43.9782C31.9478 43.268 31.6968 42.5806 31.239 42.0376C30.7812 41.4946 30.1462 41.1309 29.4463 41.0108C28.7463 40.8907 28.0264 41.022 27.4138 41.3813C26.8012 41.7407 26.3354 42.305 26.0986 42.9746H19.8926C18.2956 42.9746 16.7641 43.609 15.6348 44.7382C14.5056 45.8675 13.8712 47.399 13.8712 48.996C13.8712 50.593 14.5056 52.1245 15.6348 53.2537C16.7641 54.383 18.2956 55.0174 19.8926 55.0174H36.9532V53.0102H19.8926C18.828 53.0102 17.8069 52.5873 17.0541 51.8345C16.3013 51.0817 15.8783 50.0606 15.8783 48.996C15.8783 47.9313 16.3013 46.9103 17.0541 46.1575C17.8069 45.4047 18.828 44.9817 19.8926 44.9817ZM28.9247 42.9746C29.1232 42.9746 29.3172 43.0335 29.4822 43.1437C29.6473 43.254 29.7759 43.4107 29.8518 43.5941C29.9278 43.7775 29.9477 43.9793 29.909 44.174C29.8702 44.3686 29.7747 44.5474 29.6343 44.6878C29.494 44.8281 29.3151 44.9237 29.1205 44.9624C28.9258 45.0012 28.724 44.9813 28.5406 44.9053C28.3573 44.8294 28.2005 44.7007 28.0902 44.5357C27.98 44.3707 27.9211 44.1767 27.9211 43.9782C27.9211 43.712 28.0268 43.4567 28.215 43.2685C28.4033 43.0803 28.6585 42.9746 28.9247 42.9746Z" fill="#03D6D0"/>
<path id="Vector_12" d="M40.9673 53.0102H38.9602V55.0173H40.9673V53.0102Z" fill="#03D6D0"/>
<path id="Vector_13" d="M51.5048 53.0102H42.9745V55.0173H51.5048C52.1702 55.0173 52.8084 55.2816 53.2789 55.7522C53.7494 56.2227 54.0137 56.8608 54.0137 57.5262C54.0137 58.1916 53.7494 58.8298 53.2789 59.3003C52.8084 59.7708 52.1702 60.0351 51.5048 60.0351H19.8926V62.0423H51.5048C52.7026 62.0423 53.8512 61.5665 54.6982 60.7196C55.5451 59.8726 56.0209 58.724 56.0209 57.5262C56.0209 56.3285 55.5451 55.1798 54.6982 54.3329C53.8512 53.486 52.7026 53.0102 51.5048 53.0102Z" fill="#03D6D0"/>
<path id="Vector_14" d="M5.84261 58.028C5.29013 58.0258 4.74768 58.1755 4.27465 58.461C3.80161 58.7464 3.41625 59.1565 3.16075 59.6464C2.90525 60.1362 2.78946 60.687 2.82608 61.2382C2.86269 61.7895 3.05029 62.3201 3.36833 62.7718C3.68637 63.2236 4.12259 63.5791 4.62922 63.7995C5.13584 64.0199 5.69334 64.0966 6.24067 64.0213C6.78799 63.9459 7.30404 63.7215 7.73229 63.3724C8.16054 63.0233 8.48448 62.5632 8.66865 62.0423H17.8854V60.0352H8.66865C8.46183 59.4502 8.07932 58.9434 7.57346 58.5841C7.06759 58.2248 6.46308 58.0306 5.84261 58.028ZM5.84261 62.0423C5.64413 62.0423 5.4501 61.9834 5.28506 61.8732C5.12003 61.7629 4.9914 61.6062 4.91544 61.4228C4.83948 61.2394 4.81961 61.0376 4.85833 60.8429C4.89705 60.6483 4.99264 60.4695 5.13299 60.3291C5.27334 60.1888 5.45215 60.0932 5.64683 60.0545C5.8415 60.0157 6.04328 60.0356 6.22666 60.1116C6.41004 60.1875 6.56677 60.3161 6.67705 60.4812C6.78732 60.6462 6.84618 60.8402 6.84618 61.0387C6.84618 61.3049 6.74044 61.5602 6.55224 61.7484C6.36403 61.9366 6.10877 62.0423 5.84261 62.0423Z" fill="#03D6D0"/>
</g>
</svg>
