<svg height="40" viewBox="0 0 109 40" width="109" xmlns="http://www.w3.org/2000/svg"><path d="m107.761408 15.8909091c0-6.80000001-2.713461-8.21818183-7.448358-8.21818183-4.4435192 0-7.6851028 1.38181818-7.6851028 8.30909093 0 6.9272727 2.5495601 8.3454545 7.5029908 8.3454545 4.953432 0 7.685103-1.8181818 7.685103-8.4363636zm-4.170352.1636364c0 4.1272727-1.092669 4.8727272-3.405484 4.8727272-2.3128154 0-3.3690617-.9272727-3.3690617-4.9636363 0-4.0363637 1.0744574-4.8363637 3.3872727-4.8363637 2.585982 0 3.332639.9818182 3.332639 4.9272728zm1.110879-14.72727277c.194567-.19626301.316572-.4527013.346012-.72727273 0-.34545455-.236745-.6-.783079-.6h-2.422082c-.5048.0005557-.973338.2619642-1.238358.69090909l-2.8591494 3.63636364c-.1798321.19339827-.283352.44532173-.2913783.70909091 0 .34545454.254956.56363636.764868.56363636h1.5479472c.4893445-.00679232.9553575-.20993515 1.2929915-.56363636zm-9.6336945 32.16363637h-4.4253079c-.0643499-.0056196-.1278931.0174717-.1735691.0630741s-.0688045.1090433-.0631758.1732895v1.2363637c0 .1818181 0 .2181818.2185337.2181818h.4734897c.0610438.0050969.1214278-.0156197.1664396-.0571021s.0705184-.0999219.0703053-.1610797v-.4181819h.8923461v4.2363637h-.3460118c-.1821114 0-.2367448 0-.2367448.2181818v.5090909c0 .1454546 0 .2363636.2367448.2363636h1.8211144c.1456891 0 .2367449 0 .2367449-.2181818v-.5090909c0-.1818182-.0910558-.2363636-.2549561-.2363636h-.3278005v-4.2363637h.892346v.4909091c-.0057095.0594306.0154732.1183003.057758.1605169.0422847.0422166.1012493.0633653.1607757.057665h.4734898c.127478 0 .2185337 0 .2185337-.2181819v-1.2363636c0-.1818182 0-.2363636-.2367449-.2363636zm-4.8441643-10.2545455v-1.8181818c0-.6-.2913783-.8545454-.892346-.8545454h-1.0744575v-19.10909095c0-.69090909-.1821114-1.07272727-.9105572-1.07272727h-4.1339296c-.6556011 0-.892346.30909091-.892346.78181818v1.81818182c-.030123.23457751.0503163.46985218.217815.63708118.1674987.16722901.4031529.24753877.6381087.21746428h1.0198241v16.61818186h-.9834018c-.6556011 0-.892346.3090909-.892346.8181818v1.8181818c-.0316328.2333907.0490658.4679791.2176545.6327151.1685887.1647359.4052364.2402416.6382692.2036485h6.337478c.5645455 0 .8559238-.1272727.8559238-.7454545zm-7.9400586 13.3090909c0-2.7090909-.8559238-3.1636363-2.6224047-3.1636363s-2.6952493.5454545-2.6952493 3.1636363c0 2.6181819.8559238 3.2363637 2.6224047 3.2363637 1.766481 0 2.6952493-.6727273 2.6952493-3.2363637zm-1.2565689 0c0 1.909091-.5281232 2.2363637-1.4204692 2.2363637-.8923461 0-1.4022581-.3454546-1.4022581-2.2545455s.509912-2.1818182 1.4204692-2.1818182 1.4022581.3454546 1.4022581 2.2zm-1.0016129-20.5454545c0-5-.5645455-8.34545455-6.6834898-8.34545455-5.2265982.01818182-7.6304692 2.38181815-7.6304692 8.41818185 0 5.6727272 1.8211144 8.2545454 7.5212024 8.2545454 2.0274499.0410827 4.043632-.3108723 5.9368328-1.0363636.3261732-.1402905.5349063-.463665.5281232-.8181818-.0465901-.6219514-.1814876-1.2341342-.4006452-1.8181818-.127478-.309091-.2185337-.5454546-.6738123-.5454546-.311068.0260012-.6172804.0932595-.9105572.2-1.3002802.3843655-2.6504176.5743058-4.0064516.5636364-2.2946041 0-3.6422287-.6363637-3.6422287-3.6363637h8.8870381c.2564805.0241373.5135164-.0400182.7284457-.1818181.2731672-.1636364.3460118-.5272728.3460118-1.0363637zm-3.9700293-2.1818182c.0174148.1692516.0174148.3398393 0 .5090909h-5.9368329c0-2.2363636.8559238-3.6363636 3.168739-3.6363636 2.3128153 0 2.7680939 1.0727273 2.7680939 3.0545454zm-7.0295015 19.6727273h-3.9153959c-.1821114 0-.2367449 0-.2367449.2363636v.5090909c-.0056286.0642463.0174999.1276872.0631758.1732896.045676.0456024.1092192.0686937.1735691.0630741h.3095894v4.2363636h-.3095894c-.1821114 0-.2367449 0-.2367449.2181818v.5090909c0 .1454546 0 .2363637.2367449.2363637h4.0246627c.1639003 0 .2367449 0 .2367449-.2181818 0-.9636364 0-1.109091 0-1.2727273 0-.1636364-.0910557-.2181818-.2367449-.2181818h-.4734897c-.1821114 0-.2367449.0909091-.2367449.2181818v.5272727h-1.8211143v-1.8181818h1.8211143c.1639003 0 .2367449 0 .2367449-.2v-.5636364c0-.1636363 0-.2181818-.2367449-.2181818h-1.8211143v-1.3636364h1.6207918v.4909091c-.0002131.0611579.0252935.1195974.0703053.1610798s.1053957.0621989.1664395.0571021h.4734898c.1456891 0 .2367448 0 .2367448-.2181819v-1.2545454c0-.1818182 0-.2181818-.2185337-.2181818zm-13.7312024-17.4c0-2.8363636.6373901-4.8545455 3.1869502-4.8909091.6064002-.0392939 1.2147142-.0392939 1.8211144 0l.0910557 1.8181818c0 .4727273.1821114.7818182.7830792.7818182h1.7300586c.509912 0 .8195015 0 .8195015-.7272727v-3.98181821c.0645874-.43498605-.1983737-.85195762-.6191789-.98181818-1.4552237-.34435249-2.9482912-.50319366-4.4435191-.47272727-5.700088.03636363-7.5212023 2.74545456-7.5212023 8.72727276 0 6.2 2.3856598 8.0545454 7.0295014 8.0545454 1.8620124.063616 3.7183719-.2391012 5.4633432-.8909091.3276065-.1213419.5453636-.4329577.5463343-.7818182-.072582-.6231281-.2256118-1.2342616-.4552786-1.8181818-.04703-.3174186-.3358765-.5417152-.6556012-.5090909-.3415071.0420754-.6773771.121335-1.0016129.2363637-1.0728573.2629564-2.1732958.3972378-3.2780059.4-2.6952492 0-3.3872727-1.5818182-3.3872727-4.909091zm-3.0776832 17.6c-.513424-.1180563-1.0393774-.1730093-1.5661584-.1636364-1.6390029 0-2.0578592.6181818-2.0578592 1.6909091-.0460071.6289908.3964358 1.1890419 1.019824 1.2909091-.3795519.0318046-.7298159.2163896-.9702586.511315-.2404427.2949253-.3503751.674814-.3045215 1.0523214 0 1.1636363.4917009 1.8181818 2.531349 1.8181818 1.6207918 0 2.4585044-.4545455 2.4585044-1.9272727-.0050558-.1749256-.0420863-.3474564-.1092668-.5090909.3016497-.0378454.5999652-.0986281.892346-.1818182.1456891 0 .2185337-.1272728.2185337-.2363637-.0185064-.2088199-.0550649-.4156509-.1092668-.6181818-.0177787-.0960736-.102479-.1652623-.2003226-.1636363-.0965665-.0147213-.1948118-.0147213-.2913783 0-.7363258.1940236-1.4970618.2797748-2.2581818.2545454-.1456892 0-.254956 0-.254956.2909091v.4545455c0 .2.0910557.2545454.3095894.2545454h.63739c.0558409.1262443.0867579.2620603.0910557.4 0 .7818182-.4006451.9272727-1.3658357.9272727-.9651907 0-1.2929912-.2363636-1.2929912-.9090909 0-.6727272.2185337-.8545454 1.019824-.8727272.2003226 0 .2731672-.1272728.2731672-.2545455v-.5090909c0-.1636364 0-.2545455-.2731672-.2727273-.2121098.0295493-.4259714-.0406153-.5791798-.1900197-.1532083-.1494044-.228498-.3612119-.2038994-.5736166 0-.4909091.1639003-.7818182 1.0744575-.7818182.1936573-.0214658.3890993-.0214658.5827566 0v.4181818c0 .1272727 0 .2.2185337.2h.4370675c.127478 0 .2367448 0 .2367448-.2v-1.0545455c.0121097-.1284593-.073966-.2456463-.2003225-.2727272zm-2.3856599-22.7818182c.104399-.7351688.1652088-1.47585277.1821115-2.21818181.04781-.37642842-.1952223-.72864913-.5645455-.81818182-.4656177-.10591134-.9434034-.14872049-1.4204692-.12727272-1.451914-.08553418-2.839618.60720053-3.6422287 1.81818181v-.63636363c0-.56363637-.2185338-.87272728-.9105572-.87272728h-4.1885631c-.6920234 0-.9105572.30909091-.9105572.81818182v1.81818183c0 .4909091.2185338.7818182.8377127.7818182h1.0016129v8.8727272h-.9834018c-.6556012 0-.8741349.309091-.8741349.8181819v1.8181818c-.0302927.2297662.0481703.4605296.2123052.6244003.164135.1638706.3952706.2422072.6254074.2119633h6.8838123c.5281232 0 .8195015-.1272727.8195015-.7454545v-1.8181818c.0381323-.2362792-.0396808-.4764697-.2091832-.6456992-.1695024-.1692294-.4100803-.2469172-.6467406-.2088463h-1.6025806v-7.2727273c-.0038077-.2706188.0330235-.5402796.1092669-.8.1257291-.2136086.3005007-.3943305.509912-.5272727.7003075-.3242204 1.4689512-.4739582 2.2399707-.4363636.509912 0 1.4568915.1272727 1.8211143.1272727.3423781-.0083627.6351584-.2482059.7102346-.5818182zm-11.8190322 28.5272727v-1.2545454c0-.1636364 0-.2-.2185338-.2h-.4917008c-.0595265-.0057003-.1184911.0154483-.1607758.0576649-.0422847.0422167-.0634675.1010863-.057758.1605169v.5272727h-1.8211143v-4.1818182h.382434c.1639003 0 .2367449 0 .2367449-.2181818v-.5272727c0-.1818182 0-.2363636-.2367449-.2363636h-1.893959c-.1821114 0-.2367448 0-.2367448.2181818v.5272727c-.0056287.0642463.0174998.1276871.0631758.1732896.045676.0456024.1092192.0686936.173569.063074h.3095895v4.2363637h-.3095895c-.1821114 0-.2367448 0-.2367448.2181818v.5090909c0 .1454546 0 .2363636.2367448.2363636h4.0246628c.0643499.0056196.1278931-.0174716.1735691-.063074.0456759-.0456025.0688044-.1090433.0631758-.1732896zm-1.8211144-16.2909091v-1.8181818c0-.6-.254956-.8545454-.8559238-.8545454h-1.1655131v-7.6c.1880248-1.3974331-.1923814-2.8118368-1.0562464-3.92727275-.8559237-.8909091-2.2399707-1.27272728-5.2994428-1.27272728-1.746449-.00904838-3.4861344.2172358-5.1719648.67272728-.419543.09058374-.702625.48311998-.6556012.9090909.0350052.61200531.120277 1.22010835.254956 1.81818185.0441401.3523452.3366782.6213543.6920235.6363636.3917165-.0286122.7810851-.083279 1.1655132-.1636364 1.0101546-.175969 2.0340778-.2611585 3.0594721-.2545454 1.8211144 0 2.4585044.3454545 2.6770382.9090909.1353609.4414627.1968899.9021873.1821114 1.3636364v.7636363c-.919154-.0997925-1.8436437-.1422991-2.7680939-.1272727-1.6701411-.1159469-3.339971.2300635-4.825953 1-1.2913347.8606108-1.9938605 2.3686089-1.8211144 3.9090909 0 2.6363636 1.0926686 5.1090909 5.4633431 5.1090909 1.5810077.1139055 3.1283652-.494678 4.2067742-1.6545454v.7272727c0 .4363636.3642229.6181818.8377126.6181818h4.3160411c.5645454 0 .8195014-.1272727.8195014-.7454545zm-6.1189443-4.290909c.0117988.3499734-.031212.6996399-.127478 1.0363636-.0894207.2052002-.2268077.3860096-.4006451.5272727-.7225233.4713106-1.5792036.69471-2.4402933.6363637-1.9485924 0-2.4767155-.8545455-2.4767155-2.0545455-.0599643-.5409121.1595704-1.0751661.5827566-1.4181818.8109139-.4463409 1.7362185-.6424933 2.6588269-.5636364.6556012 0 1.5843695 0 2.2035484.1272727zm-10.3803519 17.690909c0-2.7090909-.8559237-3.1636363-2.6041935-3.1636363s-2.7134604.5454545-2.7134604 3.1636363c0 2.6181819.8559237 3.2363637 2.6224046 3.2363637 1.766481 0 2.6952493-.6727273 2.6952493-3.2363637zm-1.2383578 0c0 1.909091-.5281231 2.2363637-1.4204692 2.2363637-.892346 0-1.402258-.3454546-1.402258-2.2545455s.509912-2.1818182 1.4204692-2.1818182 1.402258.3454546 1.402258 2.2zm-4.4070967-24.2727272c2.1904488-.620121 3.5987713-2.74465416 3.3144281-5.00000003 0-3.27272727-1.7118475-4.92727272-5.3540762-5.30909091-.8195015-.14545454-2.40387099-.27272727-3.38727275-.27272727h-7.59404692c-.65560117 0-.8741349.32727273-.8741349.81818182v1.81818182c-.03163277.23339066.04906585.4679791.21765451.63271506.16858866.16473597.4052364.24024168.63826924.20364857h1.12909091v15.23636364h-1.11087976c-.65560117 0-.8741349.3272727-.8741349.8181818v1.8181818c-.03163277.2333907.04906585.4679791.21765451.6327151s.4052364.2402417.63826924.2036486h7.43014663c2.16088029.1033222 4.32450539-.1360116 6.41032259-.7090909 2.2131105-.9786608 3.517419-3.2945197 3.2051613-5.6909091.2924764-2.5297555-1.4823693-4.8333394-4.0064516-5.2zm-1.0562464-4.2727273c.0834477 1.07408189-.5443561 2.0769506-1.5479472 2.4727273-.8386595.2445589-1.7156343.3308819-2.58598238.2545454h-2.36744868v-5.54545452h2.11249267c.8341889-.02282996 1.66756169.06893814 2.47671549.27272727 1.2045364.23031252 2.009799 1.37194411 1.8211144 2.58181819zm.4917009 9.1272727c0 1.6727273-.6009677 2.5636364-1.6025806 2.9272728-1.051275.2745324-2.13768716.3909652-3.22337246.3454545h-2.1671261v-6.1454545h2.54956011c.96874355-.0692029 1.94217985.0292142 2.87736075.290909 1.0847302.3734482 1.7705165 1.4418531 1.657214 2.5818182zm-6.51958943 16.6v.5090909c-.00562866.0642463.01749985.1276872.06317582.1732896s.10921918.0686937.17356905.0630741h.23674487v4.2363636h-.21853373c-.20032258 0-.25495601 0-.25495601.2181818v.5090909c0 .1454546 0 .2363637.23674487.2363637h1.82111437c.14568915 0 .21853372 0 .21853372-.2181818v-.509091c0-.1818181 0-.2363636-.23674486-.2363636h-.27316716v-1.8181818h2.22175949v1.8181818h-.2913783c-.1821114 0-.254956 0-.254956.2181818v.5090909c-.0056286.0642463.0174999.1276872.0631758.1732896.045676.0456024.1092192.0686937.1735691.0630741h1.8211144c.1456891 0 .2185337 0 .2185337-.2181818v-.509091c0-.1818181 0-.2363636-.2367449-.2363636h-.2731671v-4.1636364h.3278006c.1456891 0 .2185337 0 .2185337-.2181818v-.5272727c0-.1818182 0-.2363636-.2367449-.2363636h-1.8211144c-.1821114 0-.254956 0-.254956.2363636v.5090909c-.0056286.0642463.0174999.1276871.0631758.1732896.045676.0456024.1092192.0686936.1735691.063074h.3095894v1.509091h-2.22175949v-1.509091h.32780059c.14568915 0 .21853372 0 .21853372-.2181818v-.5272727c0-.1818182 0-.2363636-.23674487-.2363636h-1.82111437c-.20032258 0-.25495601 0-.25495601.2363636zm14.04079183.0727273v1.2363636c0 .1818182.0910557.2181819.2367448.2181819h.4552786c.0610438.0050968.1214278-.0156197.1664396-.0571021.0450117-.0414824.0705184-.0999219.0703053-.1610798v-.4909091h.892346v4.2363637h-.3278006c-.2003225 0-.254956 0-.254956.2181818v.5090909c0 .1454546 0 .2363636.2367449.2363636h1.9121701c.1639003 0 .2367449 0 .2367449-.2181818v-.5090909c0-.1818182 0-.2363636-.2367449-.2363636h-.3460117v-4.2363637h.892346v.4909091c-.0057095.0594306.0154732.1183003.057758.1605169.0422847.0422166.1012493.0633653.1607757.057665h.4917009c.1456892 0 .2185337 0 .2185337-.2181819v-1.2363636c0-.1818182 0-.2363636-.2367448-.2363636h-4.3888857c-.0643498-.0056196-.1278931.0174716-.173569.063074-.045676.0456025-.0688045.1090433-.0631758.1732896zm6.337478 0v.5090909c-.0056287.0642463.0174998.1276871.0631758.1732896.045676.0456024.1092192.0686936.173569.063074h.3095895v4.2363637h-.3095895c-.1821114 0-.2367448 0-.2367448.2181818v.5090909c0 .1454546 0 .2363636.2367448.2363636h4.0246628c.1639003 0 .2367449 0 .2367449-.2181818 0-.9636363 0-1.1090909 0-1.2727272 0-.1636364-.0910558-.2181819-.2367449-.2181819h-.4917009c-.0624158-.011911-.1267902.0064506-.1734839.049483s-.0701678.1056313-.063261.1686989v.5272727h-1.8211143v-1.8181818h1.8211143c.1639003 0 .2367449 0 .2367449-.2v-.5636364c0-.1636364 0-.2181818-.2367449-.2181818h-1.8211143v-1.4363637h1.6390029v.4909091c-.0002131.0611579.0252936.1195974.0703053.1610798.0450118.0414824.1053958.0621989.1664396.0571021h.4917009c.127478 0 .2185337 0 .2185337-.2181819v-1.2545454c0-.1818182 0-.2181818-.2185337-.2181818h-3.8425514c-.1821114 0-.2367448 0-.2367448.2363636zm12.0011437 4.3818182v1.1454545c.0019634.1340188.090218.251502.2185337.2909091.587792.1890691 1.2039154.2751875 1.8211144.2545455 1.8211143 0 2.3310263-.7636364 2.3310263-1.9272728 0-1.1636363-.3642228-1.4727272-1.4933137-1.8181818l-.7648681-.1818182c-.6556011-.1636363-.7466569-.4545454-.7466569-.7818181 0-.3272728.1639003-.7454546.9105572-.7454546.2970115-.0227701.5953346-.0227701.8923461 0v.5272727c-.0056287.0642463.0174998.1276872.0631758.1732896s.1092192.0686937.173569.0630741h.4917009c.1456892 0 .2185337 0 .2185337-.2181818v-1.1636364c.0135722-.1328581-.0712145-.2559857-.2003225-.2909091-.5188389-.1242186-1.0508324-.1852688-1.5843695-.1818182-1.6754253 0-2.2399707.7454546-2.2399707 1.8181818-.0618965.4278063.0522103.8624149.3163464 1.2048964.2641362.3424816.6558267.5636949 1.0859116.6132855l.7466569.1636363c.7466569.1818182.8377126.4181818.8377126.8181818s-.1092668.7636364-1.0380351.7636364c-.3682972.0068042-.7358316-.0360057-1.0926687-.1272727l-.0728445-.4c0-.1454546 0-.2363637-.2367449-.2363637h-.4734897c-.0643499-.0056196-.1278931.0174717-.1735691.0630741s-.0688045.1090433-.0631758.1732896zm19.0852786-4.4545455v.5090909c-.0056287.0642463.0174998.1276872.0631758.1732896.0456759.0456024.1092191.0686937.173569.0630741h.3095895v4.2363636h-.3095895c-.1821114 0-.2367448 0-.2367448.2181818v.5090909c0 .1454546 0 .2363637.2367448.2363637h1.9303813c.1456891 0 .2185337 0 .2185337-.2181818v-.509091c0-.1818181 0-.2363636-.2367449-.2363636h-.382434v-1.5090909h.9105572l.9651906 2.0727273c.0945989.2813671.3810306.4514036.6738123.4h.8195015c.1456891 0 .2185337 0 .2185337-.2181818v-.509091c0-.1818181 0-.2363636-.2185337-.2363636h-.2367449c-.2003226 0-.2367449 0-.2913783-.2l-.8195015-1.5454545c.6747852-.2587716 1.0925328-.9365184 1.0198241-1.6545455.1005161-.6686167-.2566596-1.3223843-.8741349-1.6-.5456107-.1791587-1.1203456-.2531986-1.6936364-.2181818h-2.0942815c-.1821114 0-.2367449 0-.2367449.2363636zm1.7300586.7454546h.5463343c.2943904-.0173227.5896405.013383.8741349.0909091.2731672.1090909.4188563.3272727.4188563.8.0447485.3286634-.133389.6473124-.4370674.7818181-.2710714.0832971-.5543099.1201818-.8377126.109091h-.5645455zm10.7627859 3.6363636v1.1454546c-.011981.1383807.0821193.2636457.2185338.290909.5874579.1905198 1.2038376.276674 1.8211143.2545455 1.8211144 0 2.3310264-.7636364 2.3310264-1.9272727 0-1.1636364-.382434-1.4727273-1.5115249-1.8181818l-.7466569-.1818182c-.6738123-.1636364-.764868-.4545455-.764868-.7818182s.1821114-.7454546.9287683-.7454546c.2970115-.0227701.5953345-.0227701.892346 0v.5272728c-.0056286.0642462.0174999.1276871.0631759.1732895.0456759.0456024.1092191.0686937.173569.0630741h.4917009c.127478 0 .2185337 0 .2185337-.2181818v-1.1636364c.0043126-.1360775-.0864811-.2569408-.2185337-.2909091-.5126674-.1241752-1.0386308-.1852352-1.5661584-.1818181-1.6936363 0-2.2581818.7454545-2.2581818 1.8181818-.0565436.4297612.0619714.8642049.3289888 1.2059837.2670175.3417788.6602125.5623171 1.0914804.6121981l.7466569.1636364c.7466569.1818181.8377126.4181818.8377126.8181818s-.127478.7636363-1.0380352.7636363c-.3742543.0058471-.7476807-.0369361-1.1108797-.1272727v-.5636364c0-.1454545 0-.2363636-.2367449-.2363636h-.4370675c-.1456891 0-.2185337 0-.2185337.2363636zm13.0027566-4.3818182v.5090909c-.0056286.0642463.0174999.1276872.0631758.1732896.045676.0456024.1092192.0686937.1735691.0630741h.3095894v4.2363636h-.3095894c-.1821114 0-.2367449 0-.2367449.2181818v.5090909c0 .1454546 0 .2363637.2367449.2363637h1.9303812c.1456892 0 .2185338 0 .2185338-.2181818v-.509091c0-.1818181 0-.2363636-.2367449-.2363636h-.3278006v-1.5090909h.9287683l.8923461 2.0727273c.1019544.2841063.3944777.4531892.6920234.4h.8012903c.1456892 0 .2185338 0 .2185338-.2181818v-.509091c0-.1818181 0-.2363636-.2185338-.2363636h-.2185337c-.2003226 0-.2367448 0-.3095894-.2l-.8012903-1.5454545c.6747851-.2587716 1.0925328-.9365184 1.019824-1.6545455.097712-.6731665-.2677205-1.3283965-.892346-1.6-.5452096-.1809177-1.1202863-.2550017-1.6936364-.2181818h-1.9668035c-.1821115 0-.2367449 0-.2367449.2363636zm1.8211144.8181818h.5463343c.2944459-.0200764.5901546.010677.8741349.0909091.2731672.1090909.4370675.3272728.4370675.8.0357385.3319498-.1486549.6485958-.4552786.7818182-.2704281.0862137-.5541825.1231655-.8377126.1090909h-.5645455zm10.9266862 3.6363637v1.1454545c.0019635.1340188.090218.251502.2185337.2909091.5882729.1869669 1.2040313.2730342 1.8211144.2545455 1.8211148 0 2.3128148-.7636364 2.3128148-1.9272728 0-1.1636363-.364222-1.4727272-1.4933133-1.8181818l-.7648681-.1818182c-.6556011-.1636363-.7466569-.4545454-.7466569-.7818181 0-.3272728.1821115-.7454546.9287684-.7454546.2909346-.0227027.5832002-.0227027.8741349 0v.5272727c0 .1454546 0 .2363637.254956.2363637h.47349c.145689 0 .218533 0 .218533-.2181818v-1.1636364c.013573-.1328581-.071214-.2559857-.200322-.2909091-.518839-.1242186-1.0508325-.1852688-1.5843696-.1818182-1.6754253 0-2.2399707.7454546-2.2399707 1.8181818-.0567652.4269635.0593021.8589041.3224984 1.200167.2631963.341263.6518022.5636867 1.0797597.6180149l.764868.1636363c.7284457.1818182.8195015.4181818.8195015.8181818s-.1092669.7636364-1.0380352.7636364c-.3682972.0068042-.7358316-.0360057-1.0926687-.1272727v-.5636364c0-.1454545 0-.2363636-.2367448-.2363636h-.4734898c-.0643498-.0056196-.127893.0174716-.173569.0630741-.045676.0456024-.0688045.1090433-.0631758.1732895z" fill="#8c9091" transform="translate(.822581)"/></svg>