<svg width="238" height="145" viewBox="0 0 238 145" fill="none" xmlns="http://www.w3.org/2000/svg">
<g clip-path="url(#clip0_125_5)">
<path d="M98 121.73H103.862V137.828H114.106V143H98V121.73Z" fill="#03D6D0"/>
<path d="M138.557 121.704H145.114L149.919 135.092L154.723 121.704H161.161L152.579 143H147.138L138.557 121.704Z" fill="#03D6D0"/>
<path d="M166.931 121.73H164.545V143H166.931V121.73Z" fill="#03D6D0"/>
<path d="M186.271 135.213L181.466 124.351L176.63 135.213H186.271ZM180.377 121.732H182.612L192.253 142.992H189.692L187.214 137.365H175.694L173.186 142.992H170.743L180.377 121.732Z" fill="#03D6D0"/>
<path d="M202.069 142.992C200.477 142.992 199.157 142.638 198.11 141.929C197.069 141.226 196.193 140.305 195.542 139.23L197.264 137.738C197.802 138.619 198.504 139.389 199.331 140.007C200.065 140.522 200.987 140.78 202.095 140.782C202.653 140.795 203.207 140.686 203.718 140.463C204.23 140.239 204.686 139.907 205.056 139.489C205.842 138.625 206.235 137.352 206.236 135.67V121.732H208.623V135.64C208.645 136.756 208.472 137.868 208.114 138.925C207.82 139.788 207.342 140.577 206.714 141.237C205.512 142.414 203.964 142.999 202.069 142.992Z" fill="#03D6D0"/>
<path d="M126.372 137.092C125.439 137.091 124.527 136.812 123.752 136.292C122.977 135.772 122.373 135.033 122.017 134.169C121.661 133.306 121.568 132.356 121.751 131.439C121.934 130.523 122.384 129.681 123.045 129.021C123.705 128.361 124.546 127.912 125.462 127.73C126.377 127.548 127.326 127.642 128.188 128C129.05 128.358 129.786 128.964 130.305 129.741C130.823 130.518 131.1 131.431 131.1 132.366C131.099 132.987 130.976 133.602 130.739 134.176C130.501 134.749 130.152 135.271 129.713 135.709C129.274 136.148 128.753 136.496 128.18 136.734C127.607 136.971 126.992 137.093 126.372 137.092ZM126.372 121.732C124.272 121.734 122.219 122.36 120.474 123.53C118.729 124.7 117.369 126.362 116.567 128.305C115.765 130.249 115.556 132.387 115.967 134.45C116.378 136.512 117.391 138.406 118.877 139.893C120.363 141.379 122.255 142.391 124.315 142.8C126.375 143.21 128.511 142.998 130.451 142.193C132.391 141.388 134.049 140.024 135.216 138.276C136.382 136.527 137.005 134.471 137.005 132.368C137.003 129.546 135.882 126.84 133.888 124.845C131.894 122.851 129.19 121.731 126.372 121.732Z" fill="#03D6D0"/>
<path d="M222.574 140.637C220.939 140.637 219.34 140.151 217.981 139.242C216.621 138.332 215.562 137.039 214.936 135.526C214.31 134.014 214.146 132.349 214.465 130.743C214.784 129.137 215.572 127.662 216.728 126.505C217.884 125.347 219.357 124.558 220.961 124.239C222.565 123.919 224.227 124.083 225.738 124.71C227.248 125.337 228.539 126.398 229.448 127.759C230.356 129.12 230.841 130.721 230.841 132.358C230.841 133.446 230.627 134.522 230.212 135.526C229.796 136.531 229.187 137.443 228.42 138.212C227.652 138.981 226.741 139.591 225.738 140.007C224.735 140.423 223.66 140.637 222.574 140.637ZM222.574 121.732C220.474 121.734 218.421 122.36 216.676 123.531C214.931 124.701 213.572 126.363 212.77 128.307C211.968 130.25 211.76 132.388 212.171 134.451C212.582 136.513 213.595 138.407 215.081 139.893C216.567 141.379 218.46 142.391 220.52 142.8C222.58 143.21 224.715 142.998 226.655 142.193C228.595 141.387 230.253 140.024 231.419 138.275C232.586 136.527 233.209 134.471 233.209 132.368C233.208 130.97 232.932 129.586 232.397 128.295C231.862 127.004 231.079 125.832 230.091 124.844C229.104 123.856 227.932 123.073 226.642 122.539C225.352 122.005 223.97 121.731 222.574 121.732Z" fill="#03D6D0"/>
<path d="M237.814 141.521C237.695 141.807 237.522 142.067 237.305 142.287C237.085 142.509 236.825 142.685 236.538 142.808C236.097 142.999 235.609 143.052 235.137 142.961C234.666 142.87 234.233 142.638 233.895 142.296C233.679 142.08 233.507 141.824 233.387 141.544C233.264 141.249 233.201 140.933 233.201 140.614C233.201 140.295 233.264 139.979 233.387 139.685C233.63 139.106 234.087 138.645 234.663 138.398C234.961 138.274 235.28 138.21 235.602 138.21C235.925 138.21 236.244 138.274 236.542 138.398C236.823 138.52 237.078 138.694 237.294 138.912C237.51 139.131 237.683 139.39 237.801 139.675C237.924 139.97 237.987 140.286 237.987 140.605C237.987 140.924 237.924 141.24 237.801 141.534M237.602 139.754C237.389 139.229 236.977 138.81 236.456 138.588C236.182 138.472 235.888 138.413 235.591 138.413C235.294 138.413 235 138.472 234.727 138.588C234.468 138.701 234.233 138.861 234.034 139.062C233.835 139.263 233.679 139.501 233.573 139.762C233.41 140.162 233.367 140.601 233.449 141.026C233.531 141.45 233.735 141.841 234.035 142.151C234.232 142.352 234.467 142.512 234.725 142.622C234.998 142.737 235.292 142.797 235.588 142.797C235.885 142.797 236.178 142.737 236.452 142.622C236.712 142.51 236.948 142.349 237.147 142.148C237.345 141.947 237.502 141.709 237.607 141.448C237.828 140.905 237.828 140.297 237.607 139.754M236.501 140.539C236.375 140.662 236.216 140.747 236.044 140.784L236.807 141.773H236.356L235.646 140.844H235.016V141.773H234.652V139.297H235.753C235.992 139.286 236.228 139.357 236.422 139.497C236.505 139.56 236.572 139.642 236.617 139.737C236.662 139.832 236.683 139.936 236.679 140.04C236.683 140.13 236.668 140.219 236.635 140.303C236.603 140.386 236.554 140.462 236.491 140.526M236.144 139.741C236.021 139.661 235.876 139.622 235.73 139.63H235.007V140.505H235.726C235.876 140.512 236.023 140.472 236.147 140.389C236.196 140.351 236.236 140.302 236.264 140.247C236.292 140.191 236.307 140.13 236.308 140.068C236.31 140.006 236.297 139.944 236.272 139.888C236.246 139.831 236.208 139.781 236.161 139.741" fill="#03D6D0"/>
</g>
<path d="M16.52 139.688C16.688 139.688 16.8327 139.753 16.954 139.884L18.13 141.172C17.3087 142.143 16.3053 142.894 15.12 143.426C13.944 143.958 12.5253 144.224 10.864 144.224C9.408 144.224 8.08733 143.972 6.902 143.468C5.726 142.964 4.718 142.259 3.878 141.354C3.04733 140.449 2.40333 139.366 1.946 138.106C1.48867 136.846 1.26 135.46 1.26 133.948C1.26 132.436 1.498 131.05 1.974 129.79C2.45933 128.53 3.136 127.447 4.004 126.542C4.872 125.637 5.908 124.932 7.112 124.428C8.32533 123.924 9.66467 123.672 11.13 123.672C12.558 123.672 13.8273 123.905 14.938 124.372C16.0487 124.839 17.0147 125.459 17.836 126.234L16.856 127.62C16.7907 127.723 16.7067 127.807 16.604 127.872C16.5107 127.937 16.3847 127.97 16.226 127.97C16.0487 127.97 15.8387 127.881 15.596 127.704C15.3627 127.527 15.05 127.331 14.658 127.116C14.2753 126.892 13.7993 126.691 13.23 126.514C12.6607 126.337 11.9513 126.248 11.102 126.248C10.1033 126.248 9.18867 126.425 8.358 126.78C7.52733 127.125 6.80867 127.629 6.202 128.292C5.60467 128.945 5.138 129.753 4.802 130.714C4.47533 131.666 4.312 132.744 4.312 133.948C4.312 135.171 4.48467 136.258 4.83 137.21C5.17533 138.162 5.65133 138.969 6.258 139.632C6.86467 140.295 7.57867 140.799 8.4 141.144C9.22133 141.489 10.108 141.662 11.06 141.662C11.6387 141.662 12.1567 141.629 12.614 141.564C13.0807 141.489 13.5053 141.382 13.888 141.242C14.28 141.102 14.6487 140.925 14.994 140.71C15.3393 140.486 15.68 140.22 16.016 139.912C16.0907 139.847 16.17 139.795 16.254 139.758C16.338 139.711 16.4267 139.688 16.52 139.688ZM28.5044 133.584C29.2698 133.584 29.9418 133.491 30.5204 133.304C31.1084 133.117 31.5984 132.856 31.9904 132.52C32.3824 132.175 32.6764 131.769 32.8724 131.302C33.0684 130.826 33.1664 130.303 33.1664 129.734C33.1664 128.577 32.7838 127.704 32.0184 127.116C31.2624 126.528 30.1238 126.234 28.6024 126.234H25.7884V133.584H28.5044ZM37.8844 144H35.2244C34.6924 144 34.3051 143.79 34.0624 143.37L29.0924 136.398C28.9338 136.165 28.7611 136.001 28.5744 135.908C28.3878 135.805 28.1078 135.754 27.7344 135.754H25.7884V144H22.8064V123.896H28.6024C29.8998 123.896 31.0151 124.031 31.9484 124.302C32.8911 124.563 33.6658 124.941 34.2724 125.436C34.8884 125.921 35.3411 126.509 35.6304 127.2C35.9291 127.891 36.0784 128.665 36.0784 129.524C36.0784 130.224 35.9711 130.882 35.7564 131.498C35.5418 132.114 35.2244 132.669 34.8044 133.164C34.3938 133.649 33.8898 134.069 33.2924 134.424C32.6951 134.779 32.0184 135.049 31.2624 135.236C31.6358 135.46 31.9578 135.773 32.2284 136.174L37.8844 144ZM54.6245 141.578L54.6105 144H42.1505V123.896H54.6105V126.318H45.1465V132.688H52.7625V135.026H45.1465V141.578H54.6245ZM86.2407 123.896L79.9687 144H77.2807L72.3807 129.09C72.2687 128.791 72.1707 128.432 72.0867 128.012C71.984 128.441 71.886 128.801 71.7927 129.09L66.8367 144H64.1627L57.8907 123.896H60.3827C60.644 123.896 60.8633 123.961 61.0407 124.092C61.218 124.213 61.3347 124.381 61.3907 124.596L65.3527 138.05C65.4273 138.311 65.4927 138.596 65.5487 138.904C65.614 139.212 65.6793 139.534 65.7447 139.87C65.81 139.534 65.8753 139.212 65.9407 138.904C66.0153 138.596 66.0993 138.311 66.1927 138.05L70.7287 124.596C70.7847 124.409 70.9013 124.246 71.0787 124.106C71.2653 123.966 71.4847 123.896 71.7367 123.896H72.5907C72.852 123.896 73.0667 123.961 73.2347 124.092C73.4027 124.223 73.524 124.391 73.5987 124.596L78.1207 138.05C78.2887 138.563 78.438 139.147 78.5687 139.8C78.6807 139.156 78.802 138.573 78.9327 138.05L82.9087 124.596C82.9553 124.409 83.072 124.246 83.2587 124.106C83.4453 123.966 83.6647 123.896 83.9167 123.896H86.2407Z" fill="white"/>
<path d="M109.717 93.8576L68.7558 52.9035C63.6888 47.8138 60.6275 41.0632 60.135 33.8934C59.6425 26.7236 61.7519 19.6168 66.0753 13.8804C70.3987 8.14389 76.6452 4.16351 83.6658 2.6714C90.6864 1.17928 98.009 2.27579 104.287 5.75921L120.216 14.6492C121.028 15.0999 121.941 15.3364 122.869 15.3364C123.798 15.3364 124.711 15.0999 125.522 14.6492L141.118 5.89279C152.701 -0.613367 167.344 1.41111 176.724 10.8091C180.35 14.4461 182.977 18.9598 184.348 23.9125C185.72 28.8652 185.79 34.0887 184.551 39.0765C185.213 39.6657 185.728 40.4023 186.054 41.227C187.748 35.7013 187.908 29.8183 186.518 24.2084C185.128 18.5985 182.24 13.473 178.163 9.38106C168.129 -0.652878 152.498 -2.81094 140.137 4.12608L124.542 12.8825C124.03 13.1656 123.456 13.3142 122.871 13.3142C122.287 13.3142 121.712 13.1656 121.201 12.8825L105.267 3.99814C92.9134 -2.89748 77.3088 -0.705559 67.2997 9.3152C64.3486 12.2723 62.0084 15.7827 60.4128 19.6459C58.8171 23.509 57.9972 27.6491 58 31.8296C58.0028 36.0101 58.8282 40.1491 60.429 44.0101C62.0299 47.871 64.3748 51.3783 67.3297 54.3315L108.291 95.2781C108.493 94.9328 108.746 94.6201 109.042 94.3506C109.252 94.1635 109.48 93.9983 109.722 93.8576" fill="#FFC200"/>
<path d="M183.809 43.1009C183.746 42.3043 183.379 41.5627 182.784 41.0301C182.19 40.4975 181.413 40.2149 180.615 40.2411C177.813 40.3088 172.4 41.6108 165.157 48.8263C164.234 49.7444 163.327 50.6777 162.479 51.6654L153.417 62.2017L125.893 62.928C122.157 63.0212 118.523 64.1648 115.406 66.2281L115.337 66.2751C115.106 66.4175 114.924 66.6256 114.812 66.8726C114.7 67.1196 114.665 67.3943 114.71 67.6616C114.755 67.929 114.879 68.1767 115.066 68.3731C115.252 68.5696 115.493 68.7058 115.758 68.7643L142.516 75.071L123.134 97.7654C123.134 97.7654 114.781 96.4108 111.934 95.9592C111.738 95.9255 111.537 95.9357 111.345 95.9892C111.153 96.0427 110.976 96.1382 110.825 96.2686C110.675 96.3991 110.555 96.5614 110.475 96.7438C110.395 96.9262 110.356 97.1241 110.361 97.3233C110.378 97.6156 110.497 97.8927 110.698 98.106L121.564 108.766C121.845 109.05 122.223 109.219 122.622 109.239C123.021 109.259 123.414 109.13 123.722 108.876C123.754 108.847 123.784 108.819 123.815 108.787L174.103 58.8188C175.556 57.3806 176.92 55.8543 178.187 54.2487C182.214 49.1273 183.98 45.6654 183.815 43.1009" fill="#03D6D0"/>
<defs>
<clipPath id="clip0_125_5">
<rect width="140" height="143" fill="white" transform="translate(98)"/>
</clipPath>
</defs>
</svg>
