<svg width="33" height="32" viewBox="0 0 33 32" fill="none" xmlns="http://www.w3.org/2000/svg">
<g id="Group 83">
<path id="Vector" d="M30.4016 13.0835H18.9165V9.21843L16.8898 8.54284V6.93696C18.1693 6.69645 18.9165 5.75197 18.9165 4.30013C18.9165 2.56386 16.9039 0.641135 16.6742 0.427649L16.2142 0L15.7541 0.428324C15.5244 0.641811 13.5118 2.56454 13.5118 4.30081C13.5118 5.75265 14.259 6.69645 15.5386 6.93763V8.09289L13.5118 7.4173V13.0835H2.02677V21.1906H0V32H32.4283V21.1906H30.4016V13.0835ZM14.863 4.30081C14.863 3.60765 15.571 2.60035 16.2128 1.88963C16.7911 2.53144 17.5653 3.55766 17.5653 4.30081C17.5653 5.23515 17.1485 5.65199 16.2142 5.65199C15.2798 5.65199 14.863 5.23515 14.863 4.30081ZM14.863 9.29139L17.5653 10.192V13.0835H14.863V9.29139ZM13.5118 14.4347H18.9165H29.0504V17.6228C28.8443 17.745 28.6126 17.8126 28.3748 17.8126C27.6296 17.8126 27.0236 17.2066 27.0236 16.4614H25.6724C25.6724 17.2066 25.0664 17.8126 24.3212 17.8126C23.5761 17.8126 22.9701 17.2066 22.9701 16.4614H21.6189C21.6189 17.2066 21.0129 17.8126 20.2677 17.8126C19.5225 17.8126 18.9165 17.2066 18.9165 16.4614H17.5653C17.5653 17.2066 16.9593 17.8126 16.2142 17.8126C15.469 17.8126 14.863 17.2066 14.863 16.4614H13.5118C13.5118 17.2066 12.9058 17.8126 12.1606 17.8126C11.4154 17.8126 10.8094 17.2066 10.8094 16.4614H9.45826C9.45826 17.2066 8.85226 17.8126 8.10708 17.8126C7.3619 17.8126 6.7559 17.2066 6.7559 16.4614H5.40472C5.40472 17.2066 4.79872 17.8126 4.05354 17.8126C3.81573 17.8126 3.58401 17.745 3.37795 17.6228V14.4347H13.5118ZM3.37795 19.0652C3.59819 19.1233 3.82316 19.1638 4.05354 19.1638C4.86425 19.1638 5.58443 18.7976 6.08031 18.2301C6.57619 18.7976 7.29637 19.1638 8.10708 19.1638C8.91779 19.1638 9.63797 18.7976 10.1339 18.2301C10.6297 18.7976 11.3499 19.1638 12.1606 19.1638C12.9713 19.1638 13.6915 18.7976 14.1874 18.2301C14.6833 18.7976 15.4035 19.1638 16.2142 19.1638C17.0249 19.1638 17.745 18.7976 18.2409 18.2301C18.7368 18.7976 19.457 19.1638 20.2677 19.1638C21.0784 19.1638 21.7986 18.7976 22.2945 18.2301C22.7904 18.7976 23.5105 19.1638 24.3212 19.1638C25.132 19.1638 25.8521 18.7976 26.348 18.2301C26.8439 18.7976 27.5641 19.1638 28.3748 19.1638C28.6052 19.1638 28.8301 19.1233 29.0504 19.0652V21.1906H3.37795V19.0652ZM31.0771 22.5417V30.6488H1.35118V22.5417H2.02677H30.4016H31.0771Z" fill="#03D6D0"/>
</g>
</svg>
