<svg width="25" height="34" viewBox="0 0 25 34" fill="none" xmlns="http://www.w3.org/2000/svg">
<g id="Group 82">
<path id="Vector" d="M12.0775 1C5.96179 1 1 5.72254 1 11.539C1 18.2316 8.38498 28.8375 11.0967 32.5008C11.2092 32.6554 11.3567 32.7813 11.5272 32.868C11.6977 32.9548 11.8862 33 12.0775 33C12.2687 33 12.4573 32.9548 12.6277 32.868C12.7982 32.7813 12.9457 32.6554 13.0583 32.5008C15.77 28.8391 23.1549 18.237 23.1549 11.539C23.1549 5.72254 18.1932 1 12.0775 1Z" stroke="#03D6D0" stroke-width="2" stroke-linecap="round" stroke-linejoin="round"/>
<path id="Vector_2" d="M12.0777 15.7699C14.1171 15.7699 15.7702 14.1167 15.7702 12.0774C15.7702 10.0381 14.1171 8.38495 12.0777 8.38495C10.0384 8.38495 8.38525 10.0381 8.38525 12.0774C8.38525 14.1167 10.0384 15.7699 12.0777 15.7699Z" stroke="#03D6D0" stroke-width="2" stroke-linecap="round" stroke-linejoin="round"/>
</g>
</svg>
