<svg xmlns:xlink="http://www.w3.org/1999/xlink" xmlns="http://www.w3.org/2000/svg" width="170px" height="107px" viewBox="0 0 300.7 139.98"><g id="uuid-41f2f37c-c437-4b94-b3a2-525363bdddc0"><path d="M293.69,74.26c-1.87,0-3.48-.68-4.83-2.05-1.35-1.37-2.02-2.99-2.02-4.88s.68-3.55,2.03-4.9c1.36-1.35,2.99-2.03,4.9-2.03s3.54,.68,4.89,2.03c1.36,1.35,2.03,2.98,2.03,4.88s-.68,3.58-2.04,4.93c-1.36,1.35-3.02,2.02-4.97,2.02Zm0-1c1.93,0,3.47-.71,4.61-2.13,.93-1.16,1.4-2.43,1.4-3.81s-.47-2.64-1.4-3.79c-1.14-1.42-2.65-2.13-4.53-2.13s-3.39,.71-4.53,2.13c-.93,1.16-1.4,2.43-1.4,3.8,0,1.62,.58,3.01,1.73,4.18,1.16,1.17,2.53,1.75,4.12,1.75Zm-2.19-2.16v-7.49h2.35c.75,0,1.32,.15,1.69,.46,.38,.31,.56,.76,.56,1.37,0,.45-.11,.85-.33,1.22s-.54,.67-.97,.94l2.25,3.5h-1.4l-2.02-3.14h-.94v3.14h-1.21Zm1.14-4.06h.34c.65,0,1.13-.12,1.45-.37,.32-.25,.49-.61,.49-1.1,0-.39-.14-.68-.41-.88-.27-.19-.68-.29-1.22-.29h-.66v2.64Z" style="" fill="#978367"></path></g><g id="uuid-76942c1b-735f-4c01-afdd-a3492f77864e"><g><path d="M108.77,20.95c-1.1,1.22-2.22,2.43-3.34,3.64,.45,.33,.86,.74,1.22,1.22,.28,.36,.6,.83,.96,1.35,.89,1.28,2,2.86,2.91,3.62,.03,.03,.07,.05,.1,.08-1.46-4.76-1.61-8.28-1.5-10.28-.11,.11-.22,.24-.36,.38Z" style="" fill="#CFAC7C"></path><path d="M111.41,19.04s-.02,.07-.03,.1h0c-.01,.05-1.07,4.9,1.87,13.02,1.05,1.02,1.93,1.52,2.56,1.77-1.37-9.75-1.32-16.51-1.21-19.26-.35,.15-.79,.38-1.31,.76-1.54,1.12-1.88,3.58-1.89,3.61Z" style="" fill="#CFAC7C"></path><path d="M124.13,37.85c.17,0,.32,0,.47-.02-.48-4.43-2-21.73,2.31-29.54-.6-.1-1.14-.15-1.64-.15-1.5,0-2.84,.41-4.79,1.48-2.38,1.3-3.47,3.48-3.71,4.02-.08,1.17-.5,9.01,1.3,21.12,1.98,2.55,4.38,3.09,6.06,3.09Z" style="" fill="#CFAC7C"></path><path d="M157.86,39.47c1.81,.69,3.53,1.33,5.37,1.33,.68,0,1.34-.09,2.02-.27,3.77-1.01,7.39-4.87,9.31-8.25,1.77-3.14,2.3-7.22,1.52-11.32-1.45-3.97-2.19-5.81-8.29-7.22-6.63-1.02-10.05,8.25-11.69,12.71-.47,1.28-.88,2.64-1.28,3.96-.77,2.53-1.56,5.14-2.85,7.53,.3,.02,.6,.05,.92,.09,1.8,.23,3.41,.84,4.97,1.43Z" style="" fill="#CFAC7C"></path><path d="M129.74,42.19c1.74,1.11,5.08,2.35,7.86,2.47,2.33,.1,4.6-.4,6.83-1.49,1.46-.71,3.97-3.68,4.84-4.81,1.72-2.53,2.6-5.46,3.54-8.55,.41-1.35,.83-2.74,1.32-4.08,1.66-4.51,5.5-14.95,13.51-14.11-.25-.19-.51-.38-.8-.6-.48-.36-1.02-.77-1.65-1.24-.96-.71-1.91-1.59-2.9-2.52-1.71-1.6-3.65-3.42-6.3-4.93-2.75-1.56-5.55-2.32-8.57-2.32-2.11,0-4.38,.39-6.74,1.15-6.08,1.96-10.81,6.65-11.28,7.12-5.23,6.81-2.88,28.13-2.64,30.17,.29,.58,1.46,2.8,2.97,3.76Z" style="" fill="#CFAC7C"></path></g><g><path d="M118.48,65.63s-7.13-.17-8.21-.17c0,0-1.45-.09-1.63-.1s-.69-.03-.69-.03c0,0-.72-.07-.78,.33,0,0-.09,.34,.56,.39,0,0,1.5,.09,1.69,.16,0,0,1.56,.09,2.47,1.3,0,0,.66,.75,.79,1.57,0,0,.22,.91,.21,2.43v16.26s.03,2.96-.07,3.3c0,0-.09,1.72-.47,2.23,0,0-.29,.76-1.92,1.15,0,0-.81,.13-1.19,.14,0,0-.9,.02-.9,.38,0,0,.05,.45,.67,.33l5.44-.21s5.6,.11,7.52,.36c0,0,4.66,.43,5.57,.35,0,0,2.74,.16,5.03-1.3,0,0,.87-.49,1.62-1.46,0,0,.97-1.18,1.24-1.9,0,0,.6-1.08,.2-1.4,0,0-.36-.32-.68,.24,0,0-1.1,1.67-2.46,2.3,0,0-1.99,1.26-5.13,1.54,0,0-3.64,.48-6.16,.21,0,0-2.07,.05-3.02-.87,0,0-.61-.38-.6-2.05v-9.15s-.14-1.36,.74-1.28l6.72,.03s2.28,.11,3.2,1.18c0,0,.66,.74,.83,1.3l.31,.96s.14,.81,.61,.71c0,0,.38,.11,.28-.7,0,0-.1-1.59-.21-2.22,0,0-.14-1.55-.01-2.41l.22-1.7s.23-1.27,.22-1.4c0,0,.15-.41-.38-.45,0,0-.36-.07-.49,.53,0,0-.19,1.26-.4,1.48,0,0-.2,.6-1.3,.96,0,0-1.14,.45-3.11,.28h-5.72s-.91,.04-1.27-.25c0,0-.24-.16-.25-1.17v-8.62s-.23-2.17,1.33-2.17l6.55,.02s2.84,.05,3.84,.6c0,0,1.46,.68,2.02,1.81,0,0,.39,.73,.45,1.02,0,0,.09,.86,.58,.83,0,0,.45,.06,.36-.56,0,0,.05-.85-.05-1.32,0,0-.12-1.28-.09-1.4,0,0,.01-.76,.1-1.35,0,0,.34-1.39-.6-1.34,0,0-1.39,.22-1.77,.24,0,0-.33,.08-1.35,.07h-10.48Z" style="" fill="#978367"></path><path d="M69.96,65.28c.87-.07,4.86-.34,4.86-.34,1.48-.24,5.22-.09,5.22-.09,3.8-.02,6.07,1.51,6.07,1.51,3.25,1.9,3.49,4.91,3.49,4.91,.44,3.01-1.77,5.25-1.77,5.25-1.62,1.83-4.48,3.01-4.48,3.01-.52,.31-.28,.47-.28,.47l.44,.74,3.19,4.69c2.14,2.88,4.76,5.37,4.76,5.37,2.2,2.05,3.72,2.55,3.72,2.55,.55,.27,1.27,.38,1.27,.38l.7,.34c.72,.44,.36,.61,.36,.61-.12,.12-.67,.24-.67,.24-.4,.13-.96,.17-1.49,.18-.8,.02-1.53-.05-1.53-.05-2.93-.05-5.22-2.02-5.22-2.02-2.1-1.74-3.63-3.92-3.63-3.92l-2.85-3.63c-1.19-1.67-3.12-3.64-3.12-3.64-.89-.73-2.06-.92-2.06-.92-.52-.1-3.52-.16-3.52-.16-.25,.02-.81,.15-.81,.15-.15,.01-.19,.57-.19,.57v6.35c-.02,.38,.05,1.87,.05,1.87,.19,2.53,1.45,3.38,1.45,3.38,1.17,1.06,3.55,1.15,3.55,1.15,1.32,0,1.25,.31,1.25,.31,.04,.43-.61,.4-.61,.4-1.14,.31-3.95-.02-3.95-.02-1.42-.24-5.52-.2-5.52-.2l-4.38,.28c-.71,.09-.79-.27-.79-.27,0-.24,.33-.36,.33-.36l1.04-.2c.94-.13,1.43-.45,1.43-.45,1.15-.55,1.4-1.83,1.4-1.83,.31-.81,.13-3.37,.13-3.37v-8.38s-.02-9.22-.02-9.22c.01-.86-.16-2.02-.16-2.02-.08-.98-.66-1.74-.66-1.74-.71-.89-2.07-1.1-2.07-1.1-.42-.12-1.88-.28-1.88-.28-.63-.12-.59-.39-.59-.39-.02-.36,.53-.35,.53-.35h1.15s2.71,.23,2.71,.23c1.07,.2,3.14,0,3.14,0Zm2.48,12.64c-.1,1.5,1.43,1.55,1.43,1.55,1.39,.27,2.32,.14,2.32,.14,5.25-.38,7.23-2.88,7.23-2.88,3.68-4.08-.46-8.06-.46-8.06-2.94-2.91-8.75-2.65-8.75-2.65-.65-.07-1.36,.38-1.36,.38-.52,.47-.41,1.79-.41,1.79v9.73Z" style="" fill="#978367"></path><path d="M259.81,88.07s-.16-.77-.68-.72c0,0-.34,.13-.4,.51l.11,.78,.36,1.62,.16,1.14,.06,.98s.01,.75,.21,1.04c0,0,.23,.31,.48,.4l1.53,.67,2.22,.67s1.89,.49,3.01,.59c1.12,.1,.65,.32,6.63,.19,0,0,4.38-.27,7.31-2.46,0,0,1.34-.89,2.02-1.84,0,0,.78-.94,1.07-1.73,0,0,.62-1.53,.49-2.52,0,0,.2-1.28-1.1-3.44,0,0-1.25-1.86-4.12-3.1,0,0-4.66-1.62-6.86-2.33,0,0-3.71-1.2-3.99-1.35,0,0-2.75-.86-3.8-3.55,0,0-.68-1.69-.17-3.46,0,0,.46-2.07,2.62-3.31,0,0,2.07-1.16,4.63-.96,0,0,2.21,.42,3,.86,0,0,1.98,.91,2.48,1.46,0,0,1.33,1.06,1.66,1.65,0,0,.83,1.18,.86,1.51l.36,.88s.21,.61,.7,.51c0,0,.37,0,.3-.65,0,0-.43-1.64-.53-1.75,0,0-.41-1.18-.4-1.48,0,0-.22-1.36-.18-1.56l-.06-1.66s.05-.62-.36-.62c0,0-.3,.01-.47,.36,0,0-.12,.72-.84,.64,0,0-.43,.01-.88-.19,0,0-3.38-.92-4.43-1.02,0,0-3.78-.47-6.22,.12,0,0-5.51,.89-6.74,5.43,0,0-.95,3.88,1.35,6.29,0,0,1.72,1.75,4.79,2.87l6.83,2.3s3.9,1.26,4.88,2.38c0,0,2.61,1.87,1.58,5.57,0,0-.63,3.07-4.74,4.34,0,0-1.37,.8-5.08,.6,0,0-3.19-.09-4.82-1.26,0,0-2.38-1.24-3.53-2.9,0,0-1.03-1.45-1.32-2.47Z" style="" fill="#978367"></path><path d="M6.96,60.37l-.16-.69c-.14-.68-.61-1.31-.61-1.31-.18-.43-1.08-.98-1.08-.98-.1-.09-1.2-.54-1.2-.54l-1.18-.26-.86-.14-1.15-.14H.74s.46,.06,0,0c-.46-.06-.67-.27-.67-.27-.31-.74,.51-.7,.51-.7,.18-.05,1.78,.03,1.78,.03,.61,.08,4.52,.34,4.52,.34,1.25,.16,4.43-.21,4.43-.21,3.55-.26,10.17-.52,10.17-.52,11.89,.1,19.04,4.33,19.04,4.33,11.06,5.95,10.27,15.85,10.27,15.85,0,10.85-9.28,15.96-9.28,15.96-7.41,5.16-18.03,4.43-18.03,4.43l-13.9-.3c-.69,.02-4.75,.2-4.75,.2-1.09,.15-2.77,.22-2.77,.22-1.31-.25-.3-.87-.3-.87l2.28-.44c2.45-.64,2.82-2.3,2.82-2.3,.66-1.28,.21-6.04,.32-5.24v-22.73c.15-.87-.2-3.69-.2-3.69m6.45,31.49c0,1.84,1.84,2,1.84,2,.43,.11,5.25,.05,5.25,.05,6.71,.43,10.12-.87,10.12-.87,8.34-2.22,11.15-8.01,11.15-8.01,3.63-5.9,2.6-12.23,2.6-12.23-.22-7.63-8.44-12.72-8.44-12.72-6.12-3.68-20.61-3.5-20.61-3.5-2.22,.19-1.91,2.45-1.91,2.45v32.82Z" style="" fill="#978367"></path><path d="M164.67,66.09c1.19-2.13,1.84-1.85,1.84-1.85,.95,.04,1.55,1.18,1.55,1.18l13.24,25.46c.79,1.58,1.18,1.71,1.18,1.71l2.37,.98c1.11,.47,.55,1.12,.55,1.12-.32,.43-1.38,.09-1.38,.09-2.54-.66-5.87-.29-5.87-.29-.44,.03-3.17,.4-3.17,.4-.86,.09-.5-.72-.5-.72,.1-.36,.6-.7,.6-.7l1.28-.3c.93,.04,.27-1.15,.27-1.15l-4.44-8.87h-14.82s-4.24,8.25-4.24,8.25c-.67,1.38,.39,1.54,.39,1.54l1.77,.42c.88,.27,.96,.92,.96,.92,.42,.89-.83,.57-.83,.57-3.09-.7-7.31-.1-7.31-.1-.37,.04-1.29,.14-1.29,.14-.99-.16-.49-1.06-.49-1.06,.1-.26,1.28-.46,1.28-.46,1.13-.26,2.2-.83,2.2-.83,.82-.47,1.77-2.18,1.77-2.18l13.11-24.25Zm-6.09,14.65h12.56l-6.09-12.09-6.47,12.09Z" style="" fill="#978367"></path><path d="M204.46,64.35c-1.12,.04-1.32,2.28-1.32,2.28l-3.27,24.07-.19,1.28c-.28,.92-1.1,.99-1.1,.99-.15,.07-1.22,.31-1.22,.31l-1.67,.31c-.68,.13-.55,.77-.55,.77,.13,.47,.88,.53,.88,.53,.21,0,1.56-.16,1.56-.16,.9-.15,4.39-.27,4.39-.27,0,0,3.07,.07,4.64,.4,0,0,1.83,.24,1.9-.2,0,0,.2-.52-.6-1.04l-5.56-.71s-1,.23-.85-.95l2.85-20.28s.05-.21,.17-.05l14.44,21.28s.48,.86,1.54,.88c0,0,.97,.1,1.33-.94l13.07-20.55s.21-.26,.26,0l2.61,17.99s.61,2.27-1.27,2.6l-2.47,.53-.62,.12s-.19,.04-.26,.15l-.02,.63s-.02,.51,.81,.51l5.79-.52s4.17,0,5.81,.41c0,0,1.34,.23,1.72,.09,0,0,.58,.03,.52-.79,0,0,.01-.35-.48-.51l-2.72-.63s-1.44-.08-1.54-2.9l-4.24-24.45s-.05-1.06-1.01-1.23c0,0-.91-.13-1.31,.99l-14.44,23.62s-.19,.27-.28-.02l-2.22-3.27-13.55-19.42s-.65-1.71-1.54-1.89Z" style="" fill="#978367"></path></g><g><path d="M165.61,130.23c-2.64,0-5.37-1.48-7.19-3.34,1.09-1.07,2.37-2.46,3.73-4.08,1.73-2.18,3.28-4.17,5.6-4.17,1.59,0,2.68,.79,3.19,1.86,.41-.42,.73-1.11,.73-1.62,0-1.44-1.23-2.36-2.78-2.36-3.82,0-6.37,6.03-10.83,10.06-2.82-2.97-4.69-6.95-4.73-11.13,2.32-1.34,8.42-3.8,8.42-7,0-1.76-1.23-2.78-2.87-2.78-4.51,0-8.01,6.31-8.01,10.25-3.41,1.48-6.74,4.82-6.74,8.86,0,3.48,2.5,6.21,6.51,6.21,2.91,0,4.73-1.44,6.01-2.5,2.18,1.76,5.55,2.5,7.92,2.5,4.1,0,8.24-2.13,10.74-5.98l-.23-.19c-2.09,3.06-5.73,5.43-9.47,5.43Zm-11.33-20.31c1.05-2.41,2.69-3.71,4.01-3.71,1.05,0,1.64,.65,1.64,1.99,0,3.38-3.05,5.15-6.6,6.72,0-1.21,.04-2.83,.95-5.01Zm-2.96,19.94c-2.87,0-4.73-2.83-4.73-5.84s1.46-6.35,4.28-7.6c0,4.4,2.05,8.9,5.37,11.73-1.14,.93-2.69,1.72-4.92,1.72Z" style="" fill="#978367"></path><path d="M126.69,128.76l-.07-.07c1.57-.31,3.27-1.9,3.27-3.6,0-1.16-.4-2.11-.8-2.99-.43-.92-.83-1.8-.83-2.79,0-1.12,.63-2.04,1.9-2.04,1.03,0,1.6,.68,1.6,1.6,0,.58-.23,1.36-.5,1.87,1.07,0,2.1-.54,2.1-1.7,0-1.33-1.23-2.18-3-2.18-1.94,0-3.65,1.16-3.7,3.12-.77,1.02-1.76,2.26-2.87,3.48-.02,0-.03,0-.05,0-1.22,0-2.03,1.04-2.09,2.18-1.86,1.73-3.8,3.05-5.35,3.05-.77,0-1.43-.31-1.43-1.16,0-1.63,2.04-4.08,5.61-10h4.47l.2-.41h-4.4l2.64-3.94h-2l-2.6,3.94h-1.87l-.2,.41h1.8c-.74,1.2-1.48,2.31-2.16,3.33-.67,.51-1.45,.96-2.25,.96-.73,0-1.34-.61-1.34-1.67,0-1.33,.87-2.45,1.64-3.23-.4-.03-.77-.07-1.23-.07-.8,0-.93,.31-1.17,.75-2.4,1.67-5.11,4.32-6.37,5.88l-.07-.07,4.24-6.29h-2.04c-.81,1.26-1.59,2.51-2.38,3.76-.79,.61-1.67,1-2.62,1-1.5,0-2.44-1.05-2.5-2.11-.1-1.73-1.13-2.92-2.94-2.92-3.83,0-7.65,4.06-8.91,7.21-2.22,2.37-4.97,4.32-8.04,4.69l-.07-.07c1.57-.31,3.27-1.9,3.27-3.6,0-1.16-.4-2.11-.8-2.99-.43-.92-.83-1.8-.83-2.79,0-1.12,.63-2.04,1.9-2.04,1.04,0,1.6,.68,1.6,1.6,0,.58-.23,1.36-.5,1.87,1.07,0,2.1-.54,2.1-1.7,0-1.33-1.23-2.18-3-2.18-1.97,0-3.7,1.19-3.7,3.2,0,.02,0,.04,0,.05-.72,1.17-1.63,2.33-2.62,3.39-.09-.02-.18-.04-.29-.04-1.25,0-2.08,1.1-2.1,2.27-2.09,1.7-4.25,2.83-5.78,2.83-1.23,0-1.64-1.19-1.64-2.24,0-1.12,.37-2.35,.83-3.23,2.97-.65,8.21-2.69,8.21-4.83,0-.88-.67-1.39-1.77-1.39-1.91,0-4.13,1.28-5.92,3.03h-.02s-.03,.03-.04,.06c-1.14,1.13-2.09,2.45-2.67,3.77-.69,.85-1.39,1.66-2.12,2.39-1.94,1.94-3.77,2.86-5.11,2.86-.6,0-.97-.41-.97-1.09,0-.88,.53-2.38,1.07-3.88,.53-1.53,1.03-3.09,1.03-4.08,0-1.53-.7-2.48-2.07-3.06v-.07c4.01,0,7.98-1.84,7.98-6.66,0-1.84-.9-3.26-2.54-4.22,.9-.51,1.97-.95,3.04-1.09l-.03-.2c-1.03,.1-2.64,.71-3.5,1.05-1.47-.78-3.67-1.05-5.57-1.05-8.04,0-17.45,5.61-17.45,12.48,0,2.86,1.8,4.66,4.61,4.66,3.9,0,6.67-3.91,6.67-7.68h-.4c0,3.3-2.4,7.28-6.24,7.28-2.17,0-3.44-1.56-3.44-4.05,0-7.72,9.48-12.27,16.15-12.27,1.74,0,3.67,.24,5.14,.99-9.48,4.59-13.42,22.95-20.36,22.95-1,0-1.94-.58-2.07-1.16,.63,.03,.93-.58,.93-1.12,0-.58-.43-1.05-1.03-1.05-.83,0-1.37,.54-1.37,1.36,0,1.67,1.74,2.38,3.17,2.38,9.65,0,14.45-18.9,21.23-22.98,.84,.65,1.27,1.77,1.27,2.89,0,3.88-2.57,7.11-6.51,7.11-.47,0-.93-.07-1.4-.14l-.13,.34c1.47,.24,2.47,.54,2.47,2.28,0,1.12-.57,2.72-1.2,4.22-.63,1.5-1.24,2.99-1.24,3.98,0,1.53,1,2.31,2.54,2.31,1.87,0,3.9-1.19,6.11-3.54,.35-.37,.66-.74,.97-1.11-.15,.53-.24,1.05-.24,1.55,0,1.8,1.07,2.82,2.94,2.82,2.12,0,4.44-1.24,6.52-2.91,.21,1.95,1.87,2.91,3.83,2.91,3.55,0,6.56-1.9,8.98-4.38-.13,.45-.21,.88-.21,1.26,0,1.87,1,3.13,2.9,3.13,4.14,0,8.28-4.86,9.21-8.3h.07c.47,.78,1.4,1.43,2.64,1.43,.7,0,1.45-.25,2.17-.67-1.53,2.43-3.03,4.85-4.5,7.26h2.17c.7-1.73,1.77-3.5,2.64-4.49,2.44-2.79,4.67-4.9,6.47-6.15l.07,.07c-.23,.41-.37,.95-.37,1.46,0,1.56,.93,2.52,2.37,2.52,.78,0,1.49-.31,2.13-.73-1.38,2.1-2.4,3.8-2.4,5.15,0,1.53,1.17,2.45,2.54,2.45,1.74,0,3.7-1.29,5.6-3.07,.14,2.06,1.83,3.07,3.84,3.07,5.61,0,9.88-4.73,12.58-9.04l-.2-.1c-2.44,3.84-6.44,8.23-11.21,8.81Zm-52.19-11.49c.5,0,.87,.34,.87,.95,0,2.35-4.47,4.15-6.44,4.49,.9-2.01,3.74-5.44,5.57-5.44Zm4.51,11.42c-1.47,0-2.87-.78-2.87-2.38,0-.34,.06-.68,.22-.96,.14-.13,.29-.26,.43-.39,.11,.39,.37,.68,.85,.68,.63,0,.93-.54,.93-1.16,0-.42-.19-.69-.48-.85,.93-1.02,1.72-2.05,2.31-2.98,.12,.63,.4,1.3,.67,2,.37,.92,.7,1.87,.7,2.72,0,1.67-.9,3.33-2.77,3.33Zm12.11,0c-.87,0-1.33-.71-1.33-1.9,0-3.6,4.44-9.52,7.24-9.52,.97,0,1.43,.75,1.43,1.7,0,3.37-3.8,9.72-7.34,9.72Zm34.21,0c-1.47,0-2.87-.78-2.87-2.38,0-.54,.13-1.12,.63-1.39,.1,.41,.37,.71,.87,.71,.63,0,.93-.54,.93-1.16,0-.55-.32-.87-.79-.97,.92-1.05,1.8-2.14,2.59-3.16,.07,.71,.38,1.49,.7,2.3,.37,.92,.7,1.87,.7,2.72,0,1.67-.9,3.33-2.77,3.33Z" style="" fill="#978367"></path><path d="M199.31,117.61c.4-5.64,.77-12.44,5.97-12.44,1.3,0,2.37,.78,2.37,2.41,0,1.09-.23,1.7-.73,2.48,1.37,0,2.54-.75,2.54-2.18,0-1.84-1.63-3.13-3.97-3.13-5.27,0-8.08,5.03-8.18,13.06-.07,5.03-2.17,11.29-8.24,11.29-3.6,0-5.94-2.11-5.94-4.49,0-.85,.13-1.67,.6-2.21,.13,.2,.47,.34,.7,.34,.67,0,1.1-.54,1.1-1.22,0-.75-.53-1.29-1.53-1.29-1.17,0-1.94,1.19-1.94,2.75,0,3.81,2.74,6.53,6.77,6.53,4.97,0,9.81-2.58,10.48-11.9Z" style="" fill="#978367"></path><path d="M246.24,120.09c-2.44,3.84-6.44,8.23-11.21,8.81l-.07-.07c1.57-.31,3.27-1.9,3.27-3.6,0-1.16-.4-2.11-.8-2.99-.43-.92-.83-1.8-.83-2.79,0-1.12,.63-2.04,1.9-2.04,1.03,0,1.6,.68,1.6,1.6,0,.58-.23,1.36-.5,1.87,1.07,0,2.1-.54,2.1-1.7,0-1.33-1.23-2.18-3-2.18-1.97,0-3.7,1.19-3.7,3.2,0,.01,0,.03,0,.04-.8,1.22-1.66,2.37-2.53,3.41-.12-.03-.24-.05-.38-.05-1.27,0-2.1,1.12-2.1,2.31,0,.13,.03,.25,.04,.37-1.66,1.58-3.15,2.55-4.08,2.55-.6,0-.9-.27-.9-.88,0-1.6,3.07-5.98,6.34-10.68h-2.17l-1.1,2.01h-.07c-.23-1.16-1-2.28-2.8-2.28-2.56,0-5.8,2.8-7.6,5.76-1.67,1.34-3.4,2.1-5.45,2.47l-.07-.07c1.3-1.36,2.7-3.2,2.7-5.58,0-1.9-1.1-2.58-2.54-2.58-2.54,0-4.77,2.79-6.11,4.59l-.07-.07c2.3-3.71,4.97-7.21,7.31-10.85h-2.2c-6.07,9.83-12.48,19.51-18.45,29.31h2.07c2.1-3.84,6.64-10.95,7.88-12.72,1.54-2.21,5.91-9.72,8.98-9.72,.6,0,1.13,.34,1.13,1.9,0,2.04-1.4,4.69-2.54,6.09-2,.2-6.21,.68-6.21,2.62,0,.75,.77,1.09,1.37,1.09,2.37,0,4.74-2.41,6.24-3.57,1.51-.35,3.29-.53,5.56-2.22-.6,1.14-.96,2.26-.96,3.24,0,1.33,.6,2.55,2.24,2.55,1.94,0,4.41-2.28,5.57-3.57l.07,.03c-.23,.61-.47,1.22-.47,1.87,0,.92,.6,1.67,1.87,1.67,1.33,0,2.92-1.05,4.48-2.55,.36,1.72,1.95,2.55,3.79,2.55,5.61,0,9.88-4.73,12.58-9.04l-.2-.1Zm-40.31,8.74c-.5,0-.97-.27-.97-.82,0-1.6,3.4-1.8,4.94-2.07l.07,.07c-.57,.68-2.67,2.82-4.04,2.82Zm13.58-.41c-.77,0-1.2-.61-1.2-1.63,0-4.08,4.54-9.38,7.18-9.38,.83,0,1.5,.58,1.5,1.6,0,4.01-5.24,9.42-7.48,9.42Zm14.15,.41c-1.47,0-2.87-.78-2.87-2.38,0-.19,.03-.38,.07-.56,.21-.22,.42-.45,.63-.68,.13,.32,.38,.56,.81,.56,.63,0,.93-.54,.93-1.16,0-.43-.2-.71-.51-.87,.86-1.08,1.65-2.18,2.32-3.18,.09,.69,.39,1.44,.7,2.22,.37,.92,.7,1.87,.7,2.72,0,1.67-.9,3.33-2.77,3.33Z" style="" fill="#978367"></path></g></g></svg>