<svg width="24" height="24" viewBox="0 0 24 24" fill="none" xmlns="http://www.w3.org/2000/svg">
<path d="M16.9437 18.1334C17.1078 18.2975 17.3129 18.3795 17.5386 18.3795C17.7642 18.3795 17.9693 18.2975 18.1334 18.1334L23.6719 12.5949C23.7129 12.5539 23.7539 12.5128 23.7745 12.4718C23.7745 12.4718 23.795 12.4513 23.795 12.4308C23.8155 12.3898 23.836 12.3487 23.8565 12.3282C23.8565 12.3077 23.8565 12.2872 23.877 12.2872C23.8975 12.2462 23.8975 12.2257 23.918 12.1846C23.9386 12.1231 23.9386 12.0821 23.9386 12.0205C23.9386 11.959 23.9386 11.918 23.918 11.8564C23.918 11.8154 23.8975 11.7744 23.877 11.7539C23.877 11.7334 23.877 11.7128 23.8565 11.7128C23.836 11.6718 23.8155 11.6308 23.795 11.5898C23.795 11.5898 23.795 11.5693 23.7745 11.5693C23.7539 11.5282 23.7129 11.4872 23.6719 11.4462L18.1334 5.90771C17.8052 5.57951 17.2719 5.57951 16.9437 5.90771C16.6155 6.23592 16.6155 6.76925 16.9437 7.09746L21.0462 11.2H6.46163C5.98984 11.2 5.62061 11.5693 5.62061 12.041C5.62061 12.5128 5.98984 12.8821 6.46163 12.8821H21.0462L16.9437 16.9846C16.6155 17.2718 16.6155 17.8052 16.9437 18.1334Z" fill="#FFC200"/>
<path d="M0.923057 23.8974H12C12.4718 23.8974 12.841 23.5282 12.841 23.0564V14.7898C12.841 14.318 12.4718 13.9487 12 13.9487C11.5282 13.9487 11.159 14.318 11.159 14.7898V22.2154H1.76408V1.76411H11.159V9.18975C11.159 9.66155 11.5282 10.0308 12 10.0308C12.4718 10.0308 12.841 9.66155 12.841 9.18975V0.923087C12.841 0.451293 12.4718 0.0820618 12 0.0820618H0.923057C0.451262 0.0820618 0.0820312 0.451293 0.0820312 0.923087V23.0564C0.102544 23.5282 0.471775 23.8974 0.923057 23.8974Z" fill="#03D6D0"/>
</svg>
