<svg width="24" height="24" viewBox="0 0 24 24" fill="none" xmlns="http://www.w3.org/2000/svg">
<path d="M16.9437 18.1333C17.1078 18.2974 17.3129 18.3795 17.5386 18.3795C17.7642 18.3795 17.9693 18.2974 18.1334 18.1333L23.6719 12.5949C23.7129 12.5538 23.7539 12.5128 23.7745 12.4718C23.7745 12.4718 23.795 12.4513 23.795 12.4308C23.8155 12.3897 23.836 12.3487 23.8565 12.3282C23.8565 12.3077 23.8565 12.2872 23.877 12.2872C23.8975 12.2461 23.8975 12.2256 23.918 12.1846C23.9386 12.1231 23.9386 12.082 23.9386 12.0205C23.9386 11.959 23.9386 11.9179 23.918 11.8564C23.918 11.8154 23.8975 11.7744 23.877 11.7538C23.877 11.7333 23.877 11.7128 23.8565 11.7128C23.836 11.6718 23.8155 11.6308 23.795 11.5897C23.795 11.5897 23.795 11.5692 23.7745 11.5692C23.7539 11.5282 23.7129 11.4872 23.6719 11.4461L18.1334 5.90768C17.8052 5.57948 17.2719 5.57948 16.9437 5.90768C16.6155 6.23589 16.6155 6.76922 16.9437 7.09743L21.0462 11.2H6.46163C5.98984 11.2 5.62061 11.5692 5.62061 12.041C5.62061 12.5128 5.98984 12.882 6.46163 12.882H21.0462L16.9437 16.9846C16.6155 17.2718 16.6155 17.8051 16.9437 18.1333Z" fill="white"/>
<path d="M0.923057 23.8974H12C12.4718 23.8974 12.841 23.5282 12.841 23.0564V14.7897C12.841 14.3179 12.4718 13.9487 12 13.9487C11.5282 13.9487 11.159 14.3179 11.159 14.7897V22.2154H1.76408V1.7641H11.159V9.18974C11.159 9.66153 11.5282 10.0308 12 10.0308C12.4718 10.0308 12.841 9.66153 12.841 9.18974V0.923072C12.841 0.451277 12.4718 0.0820465 12 0.0820465H0.923057C0.451262 0.0820465 0.0820312 0.451277 0.0820312 0.923072V23.0564C0.102544 23.5282 0.471775 23.8974 0.923057 23.8974Z" fill="white"/>
</svg>
