<svg width="158" height="158" viewBox="0 0 158 158" fill="none" xmlns="http://www.w3.org/2000/svg">
<path d="M93.7314 62.8279C94.8138 60.9375 97.1036 60.3776 98.9996 61.3742L126.843 75.1744C128.761 76.1224 129.55 78.4458 128.604 80.366L115.381 107.041L147.63 91.0554L121.729 38.8011L70.2346 53.1314L60.8162 80.4444L72.8249 85.3841L93.7314 62.8279ZM65.5935 25.5682C68.0083 30.0601 61.1782 33.7327 58.7634 29.2408L48.7179 10.5177C46.3031 6.02583 53.1313 2.35324 55.5461 6.84508L65.5935 25.5682ZM77.9363 25.2547C76.2605 30.0657 68.9451 27.5146 70.6228 22.7037L74.2749 12.2009C75.9526 7.38999 83.2679 9.94103 81.5902 14.752L77.9363 25.2547ZM116.409 136.31C114.313 131.657 121.386 128.472 123.482 133.122L130.103 147.736C132.199 152.387 125.126 155.574 123.03 150.924L116.409 136.31ZM130.601 127.367C125.551 126.669 126.613 118.99 131.665 119.688L151.3 122.429C156.35 123.127 155.288 130.806 150.237 130.108L130.601 127.367ZM62.4434 51.9034L35.972 38.7825L10.3702 90.434L94.3305 132.053L100.713 119.178L89.9711 113.854C85.4009 111.598 88.829 104.647 93.4011 106.903L104.156 112.233L110.111 100.22L99.3672 94.8959C94.797 92.6416 98.2251 85.6902 102.797 87.9445L113.552 93.2761L119.934 80.4015L98.0628 69.561L76.6785 92.6304C75.6092 93.7762 73.9035 94.2036 72.3695 93.5728L54.6952 86.3042C52.6667 85.6099 51.5862 83.4004 52.2822 81.3719L62.4434 51.9034ZM109.695 118.51L99.5576 138.96C98.6114 140.88 96.2862 141.667 94.3678 140.721L79.627 133.415L63.6341 141.343C61.7138 142.291 59.3904 141.501 58.4424 139.583L47.4899 117.484L3.46171 95.6592C1.54143 94.7131 0.753914 92.3897 1.70006 90.4694L30.7468 31.874C31.6929 29.9537 34.0163 29.1662 35.9366 30.1123L67.6202 45.8179L122.61 30.5154C124.404 29.9444 126.397 30.7543 127.255 32.4954L156.3 91.0908C157.246 93.0111 156.459 95.3345 154.538 96.2806L109.695 118.51ZM70.9009 129.09L58.9575 123.17L63.6695 132.674L70.9009 129.09Z" fill="#FFC200"/>
</svg>
