<svg width="81" height="81" viewBox="0 0 81 81" fill="none" xmlns="http://www.w3.org/2000/svg">
<g id="Layer_1">
<g id="Group">
<path id="Vector" d="M31.2494 30.4261C27.8158 29.6537 25.0229 24.8063 25.0229 19.6203C25.0229 18.8374 24.3883 18.2028 23.6054 18.2028C22.8226 18.2028 22.1879 18.8374 22.1879 19.6203C22.1879 26.1659 25.8945 32.1271 30.6269 33.1918C30.7318 33.2153 30.8367 33.2266 30.9392 33.2266C31.5876 33.2266 32.1728 32.7791 32.321 32.1198C32.4927 31.3563 32.0132 30.5982 31.2494 30.4261Z" fill="#03D6D0"/>
<path id="Vector_2" d="M63.9556 28.0888C63.9556 18.5668 58.1718 11.3866 50.5015 11.3866C47.8532 11.3866 45.3304 12.2735 43.1933 13.9207C41.3724 7.35846 36.4188 2.96704 30.4985 2.96704C22.8286 2.96704 17.0444 10.1473 17.0444 19.6692C17.0444 27.7202 21.1244 35.1123 26.6182 37.5224L25.5324 39.3591C25.2732 39.7973 25.2692 40.3408 25.5215 40.7831C25.7738 41.225 26.2436 41.4983 26.7527 41.4983H29.7047C31.8921 45.4738 31.6524 50.2658 29.0065 54.4689C26.3355 58.7643 26.4327 63.6109 29.2953 68.8731C29.5525 69.3453 30.0389 69.6134 30.5415 69.6134C30.7703 69.6134 31.0028 69.5575 31.2178 69.4405C31.9051 69.0667 32.1594 68.2057 31.7852 67.518C29.4135 63.1573 29.292 59.3783 31.4098 55.9718C34.3229 51.3435 34.8089 46.0878 32.854 41.4979H34.246C34.7551 41.4979 35.2249 41.2246 35.4772 40.7823C35.7295 40.34 35.7251 39.7965 35.4663 39.3583L34.3825 37.5253C35.6906 36.9603 36.9267 36.1151 38.0587 35.0127C39.6127 40.2133 42.7895 44.2758 46.6204 45.9428L45.535 47.7783C45.2758 48.2165 45.2717 48.76 45.524 49.2022C45.7763 49.6445 46.2461 49.9175 46.7552 49.9175H49.7073C51.8947 53.8934 51.6549 58.6853 49.0091 62.8884C46.3381 67.1838 46.4353 72.0305 49.2978 77.2926C49.555 77.7649 50.0414 78.033 50.544 78.033C50.7728 78.033 51.0053 77.9771 51.2204 77.86C51.9076 77.4862 52.162 76.6252 51.7878 75.9375C49.4161 71.5769 49.2946 67.7978 51.4123 64.3914C54.3259 59.7626 54.8115 54.5073 52.8562 49.9171H54.2485C54.7576 49.9171 55.2274 49.6441 55.4797 49.2018C55.7321 48.7596 55.7276 48.2157 55.4688 47.7779L54.3826 45.9412C59.8748 43.5335 63.9556 36.1406 63.9556 28.0888ZM31.5422 38.2932L31.7609 38.6629H29.2378L29.4561 38.2932C29.631 38.3126 29.8056 38.3272 29.9797 38.3369C30.1531 38.3466 30.326 38.3515 30.4985 38.3515C30.6374 38.3515 30.7772 38.3458 30.9165 38.3397C31.1247 38.3304 31.3332 38.3162 31.5422 38.2932ZM31.959 35.3525C30.9849 35.5704 30.0109 35.5703 29.0401 35.3529C23.989 34.2152 19.8794 27.1796 19.8794 19.6688C19.8794 11.7632 24.4446 5.80164 30.4985 5.80164C35.7097 5.80164 39.9958 10.3551 40.9212 16.8768C41.0516 17.786 41.1176 18.7252 41.1176 19.6688C41.1176 20.1953 41.0978 20.721 41.0589 21.2447C40.7863 24.9087 39.5754 28.4496 37.6427 31.1494C36.0422 33.3939 34.0228 34.8867 31.959 35.3525ZM49.2395 47.0829L49.4578 46.7135C50.1564 46.7917 50.8457 46.7917 51.5439 46.7135L51.7622 47.0829H49.2395ZM51.9611 43.7724C50.9883 43.9899 50.0131 43.9895 49.0435 43.7728C45.0255 42.8676 41.4829 38.1866 40.2987 32.2923C40.3198 32.2607 40.3388 32.2279 40.3599 32.1963C40.4239 32.0987 40.4858 31.9987 40.5486 31.8994C40.6304 31.7698 40.7122 31.6402 40.7912 31.5078C40.8532 31.4045 40.9127 31.2992 40.973 31.1943C41.0488 31.0623 41.1241 30.9299 41.1974 30.7954C41.2565 30.6865 41.3141 30.5763 41.3716 30.4657C41.4412 30.3317 41.5105 30.1972 41.5773 30.0611C41.6336 29.9473 41.6879 29.8319 41.7421 29.7165C41.8065 29.58 41.8697 29.4431 41.9313 29.3046C41.9839 29.1867 42.035 29.0681 42.0856 28.9486C42.1245 28.8567 42.1646 28.7659 42.2022 28.6732C42.4315 34.9661 46.0501 40.5814 50.6295 41.6121C50.7344 41.6356 50.8393 41.647 50.9417 41.647C51.5901 41.647 52.1753 41.1994 52.3236 40.5405C52.4953 39.7767 52.0154 39.0181 51.2519 38.8464C47.8184 38.0737 45.0255 33.2266 45.0255 28.0406C45.0255 27.2577 44.3908 26.6231 43.608 26.6231C43.3318 26.6231 43.0762 26.7053 42.8583 26.8418C42.8891 26.7426 42.9195 26.6429 42.9494 26.5433C42.9932 26.3959 43.0349 26.2472 43.0762 26.0986C43.1119 25.9706 43.1471 25.8423 43.1807 25.7135C43.2196 25.5632 43.2556 25.4117 43.2917 25.2607C43.3225 25.1311 43.3536 25.0015 43.3824 24.8711C43.4164 24.7176 43.4472 24.5633 43.478 24.4086C43.5039 24.2789 43.5306 24.1502 43.5545 24.0197C43.5837 23.8614 43.6092 23.7022 43.6347 23.5431C43.6554 23.4155 43.6776 23.2879 43.6963 23.1599C43.7206 22.9955 43.7404 22.8307 43.7611 22.6654C43.7769 22.5411 43.7939 22.4176 43.8076 22.2928C43.8267 22.1195 43.8413 21.9457 43.8566 21.7716C43.8672 21.6545 43.8793 21.5379 43.8882 21.4209C43.9024 21.2261 43.9117 21.0308 43.9214 20.836C43.9263 20.7392 43.9336 20.6429 43.9372 20.5461C43.9482 20.2537 43.9538 19.9612 43.9538 19.6684C43.9538 19.2922 43.9413 18.9167 43.9227 18.5425C43.9186 18.4575 43.9142 18.3728 43.9093 18.2878C43.887 17.9221 43.8583 17.558 43.8186 17.1971C43.817 17.1821 43.8166 17.1672 43.8149 17.1522C45.6706 15.2572 48.0237 14.2212 50.5027 14.2212C56.5562 14.2212 61.1218 20.1828 61.1218 28.0884C61.1206 35.5995 57.011 42.6348 51.9611 43.7724Z" fill="#03D6D0"/>
</g>
</g>
</svg>
