<svg width="110" height="110" viewBox="0 0 110 110" fill="none" xmlns="http://www.w3.org/2000/svg">
<circle cx="54.9389" cy="54.9389" r="54.9389" fill="black"/>
<path d="M45.2494 44.4261C41.8158 43.6537 39.0229 38.8063 39.0229 33.6203C39.0229 32.8374 38.3883 32.2028 37.6054 32.2028C36.8226 32.2028 36.1879 32.8374 36.1879 33.6203C36.1879 40.1659 39.8945 46.1271 44.6269 47.1918C44.7318 47.2153 44.8367 47.2266 44.9392 47.2266C45.5876 47.2266 46.1728 46.7791 46.321 46.1198C46.4927 45.3563 46.0132 44.5982 45.2494 44.4261Z" fill="#03D6D0"/>
<path d="M77.9556 42.0888C77.9556 32.5668 72.1718 25.3866 64.5015 25.3866C61.8532 25.3866 59.3304 26.2735 57.1933 27.9207C55.3724 21.3585 50.4188 16.967 44.4985 16.967C36.8286 16.967 31.0444 24.1473 31.0444 33.6692C31.0444 41.7202 35.1244 49.1123 40.6182 51.5224L39.5324 53.3591C39.2732 53.7973 39.2692 54.3408 39.5215 54.7831C39.7738 55.225 40.2436 55.4983 40.7527 55.4983H43.7047C45.8921 59.4738 45.6524 64.2658 43.0065 68.4689C40.3355 72.7643 40.4327 77.6109 43.2953 82.8731C43.5525 83.3453 44.0389 83.6134 44.5415 83.6134C44.7703 83.6134 45.0028 83.5575 45.2178 83.4405C45.9051 83.0667 46.1594 82.2057 45.7852 81.518C43.4135 77.1573 43.292 73.3783 45.4098 69.9718C48.3229 65.3435 48.8089 60.0878 46.854 55.4979H48.246C48.7551 55.4979 49.2249 55.2246 49.4772 54.7823C49.7295 54.34 49.7251 53.7965 49.4663 53.3583L48.3825 51.5253C49.6906 50.9603 50.9267 50.1151 52.0587 49.0127C53.6127 54.2133 56.7895 58.2758 60.6204 59.9428L59.535 61.7783C59.2758 62.2165 59.2717 62.76 59.524 63.2022C59.7763 63.6445 60.2461 63.9175 60.7552 63.9175H63.7073C65.8947 67.8934 65.6549 72.6853 63.0091 76.8884C60.3381 81.1838 60.4353 86.0305 63.2978 91.2926C63.555 91.7649 64.0414 92.033 64.544 92.033C64.7728 92.033 65.0053 91.9771 65.2204 91.86C65.9076 91.4862 66.162 90.6252 65.7878 89.9375C63.4161 85.5769 63.2946 81.7978 65.4123 78.3914C68.3259 73.7626 68.8115 68.5073 66.8562 63.9171H68.2485C68.7576 63.9171 69.2274 63.6441 69.4797 63.2018C69.7321 62.7596 69.7276 62.2157 69.4688 61.7779L68.3826 59.9412C73.8748 57.5335 77.9556 50.1406 77.9556 42.0888ZM45.5422 52.2932L45.7609 52.6629H43.2378L43.4561 52.2932C43.631 52.3126 43.8056 52.3272 43.9797 52.3369C44.1531 52.3466 44.326 52.3515 44.4985 52.3515C44.6374 52.3515 44.7772 52.3458 44.9165 52.3397C45.1247 52.3304 45.3332 52.3162 45.5422 52.2932ZM45.959 49.3525C44.9849 49.5704 44.0109 49.5703 43.0401 49.3529C37.989 48.2152 33.8794 41.1796 33.8794 33.6688C33.8794 25.7632 38.4446 19.8016 44.4985 19.8016C49.7097 19.8016 53.9958 24.3551 54.9212 30.8768C55.0516 31.786 55.1176 32.7252 55.1176 33.6688C55.1176 34.1953 55.0978 34.721 55.0589 35.2447C54.7863 38.9087 53.5754 42.4496 51.6427 45.1494C50.0422 47.3939 48.0228 48.8867 45.959 49.3525ZM63.2395 61.0829L63.4578 60.7135C64.1564 60.7917 64.8457 60.7917 65.5439 60.7135L65.7622 61.0829H63.2395ZM65.9611 57.7724C64.9883 57.9899 64.0131 57.9895 63.0435 57.7728C59.0255 56.8676 55.4829 52.1866 54.2987 46.2923C54.3198 46.2607 54.3388 46.2279 54.3599 46.1963C54.4239 46.0987 54.4858 45.9987 54.5486 45.8994C54.6304 45.7698 54.7122 45.6402 54.7912 45.5078C54.8532 45.4045 54.9127 45.2992 54.973 45.1943C55.0488 45.0623 55.1241 44.9299 55.1974 44.7954C55.2565 44.6865 55.3141 44.5763 55.3716 44.4657C55.4412 44.3317 55.5105 44.1972 55.5773 44.0611C55.6336 43.9473 55.6879 43.8319 55.7421 43.7165C55.8065 43.58 55.8697 43.4431 55.9313 43.3046C55.9839 43.1867 56.035 43.0681 56.0856 42.9486C56.1245 42.8567 56.1646 42.7659 56.2022 42.6732C56.4315 48.9661 60.0501 54.5814 64.6295 55.6121C64.7344 55.6356 64.8393 55.647 64.9417 55.647C65.5901 55.647 66.1753 55.1994 66.3236 54.5405C66.4953 53.7767 66.0154 53.0181 65.2519 52.8464C61.8184 52.0737 59.0255 47.2266 59.0255 42.0406C59.0255 41.2577 58.3908 40.6231 57.608 40.6231C57.3318 40.6231 57.0762 40.7053 56.8583 40.8418C56.8891 40.7426 56.9195 40.6429 56.9494 40.5433C56.9932 40.3959 57.0349 40.2472 57.0762 40.0986C57.1119 39.9706 57.1471 39.8423 57.1807 39.7135C57.2196 39.5632 57.2556 39.4117 57.2917 39.2607C57.3225 39.1311 57.3536 39.0015 57.3824 38.8711C57.4164 38.7176 57.4472 38.5633 57.478 38.4086C57.5039 38.2789 57.5306 38.1502 57.5545 38.0197C57.5837 37.8614 57.6092 37.7022 57.6347 37.5431C57.6554 37.4155 57.6776 37.2879 57.6963 37.1599C57.7206 36.9955 57.7404 36.8307 57.7611 36.6654C57.7769 36.5411 57.7939 36.4176 57.8076 36.2928C57.8267 36.1195 57.8413 35.9457 57.8566 35.7716C57.8672 35.6545 57.8793 35.5379 57.8882 35.4209C57.9024 35.2261 57.9117 35.0308 57.9214 34.836C57.9263 34.7392 57.9336 34.6429 57.9372 34.5461C57.9482 34.2537 57.9538 33.9612 57.9538 33.6684C57.9538 33.2922 57.9413 32.9167 57.9227 32.5425C57.9186 32.4575 57.9142 32.3728 57.9093 32.2878C57.887 31.9221 57.8583 31.558 57.8186 31.1971C57.817 31.1821 57.8166 31.1672 57.8149 31.1522C59.6706 29.2572 62.0237 28.2212 64.5027 28.2212C70.5562 28.2212 75.1218 34.1828 75.1218 42.0884C75.1206 49.5995 71.011 56.6348 65.9611 57.7724Z" fill="#03D6D0"/>
</svg>
