<svg width="60" height="60" viewBox="0 0 60 60" fill="none" xmlns="http://www.w3.org/2000/svg">
<g id="3186852_comic_hammer_marvel_movie_thors_icon 1" clip-path="url(#clip0_276_1003)">
<g id="Group">
<path id="Vector" d="M46.25 6.25H13.75V31.25H46.25V6.25Z" stroke="black" stroke-width="3" stroke-miterlimit="10" stroke-linecap="round" stroke-linejoin="round"/>
<path id="Vector_2" d="M46.25 6.25L51.25 11.25V26.25L46.25 31.25" stroke="black" stroke-width="3" stroke-miterlimit="10" stroke-linecap="round" stroke-linejoin="round"/>
<path id="Vector_3" d="M13.75 6.25L8.75 11.25V26.25L13.75 31.25" stroke="black" stroke-width="3" stroke-miterlimit="10" stroke-linecap="round" stroke-linejoin="round"/>
<path id="Vector_4" d="M26.25 6.25V3.75C26.25 2.36929 27.3693 1.25 28.75 1.25H31.25C32.6307 1.25 33.75 2.36929 33.75 3.75V6.25" stroke="black" stroke-width="3" stroke-miterlimit="10" stroke-linecap="round" stroke-linejoin="round"/>
<path id="Vector_5" d="M33.75 31.25V56.25C33.75 57.6307 32.6307 58.75 31.25 58.75H28.75C27.3693 58.75 26.25 57.6307 26.25 56.25V31.25" stroke="black" stroke-width="3" stroke-miterlimit="10" stroke-linecap="round" stroke-linejoin="round"/>
<path id="Vector_6" d="M26.25 36.25L30 38.75L33.75 36.25" stroke="black" stroke-width="3" stroke-miterlimit="10" stroke-linecap="round" stroke-linejoin="round"/>
<path id="Vector_7" d="M26.25 43.75L30 46.25L33.75 43.75" stroke="black" stroke-width="3" stroke-miterlimit="10" stroke-linecap="round" stroke-linejoin="round"/>
<path id="Vector_8" d="M26.25 51.25L30 53.75L33.75 51.25" stroke="black" stroke-width="3" stroke-miterlimit="10" stroke-linecap="round" stroke-linejoin="round"/>
</g>
</g>
<defs>
<clipPath id="clip0_276_1003">
<rect width="60" height="60" fill="white"/>
</clipPath>
</defs>
</svg>
