<svg width="80" height="80" viewBox="0 0 80 80" fill="none" xmlns="http://www.w3.org/2000/svg">
<g id="3741358_cold_snow_snowflake_icon 1">
<g id="Snow">
<g id="Group">
<g id="Group_2">
<path id="Path-12" d="M30.7141 9.82153L39.9999 16.7858L49.2856 9.82153M70.1784 30.7144L63.2141 40.0001L70.1784 49.2858M49.2856 70.1787L39.9999 63.2144L30.7141 70.1787M9.82129 49.2858L16.7856 40.0001L9.82129 30.7144" stroke="black" stroke-width="3" stroke-linecap="round"/>
<path id="Oval-9" d="M39.9998 44.6429C42.564 44.6429 44.6426 42.5642 44.6426 40C44.6426 37.4359 42.564 35.3572 39.9998 35.3572C37.4356 35.3572 35.3569 37.4359 35.3569 40C35.3569 42.5642 37.4356 44.6429 39.9998 44.6429Z" fill="black" stroke="black" stroke-width="3"/>
<path id="Path-13" d="M40 7.5V72.5" stroke="black" stroke-width="3" stroke-linecap="round"/>
<path id="Path-14" d="M7.5 40H72.5" stroke="black" stroke-width="3" stroke-linecap="round"/>
<path id="Path-16" d="M16.7856 16.7856L63.2142 63.2142" stroke="black" stroke-width="3" stroke-linecap="round"/>
<path id="Path-17" d="M16.7856 63.2142L63.2142 16.7856" stroke="black" stroke-width="3" stroke-linecap="round"/>
</g>
</g>
</g>
</g>
</svg>
