<svg width="68" height="46" viewBox="0 0 68 46" fill="none" xmlns="http://www.w3.org/2000/svg">
<g id="horchata 1" clip-path="url(#clip0_279_1344)">
<g id="Capa 2">
<g id="Capa 1">
<path id="Vector" d="M61.5306 20.5382C61.1789 20.4749 60.8243 20.4297 60.468 20.4026C60.7255 20.1541 60.9703 19.8926 61.2012 19.6193C62.4413 18.1528 63.2234 16.4397 63.4036 14.7917C63.5961 13.0393 63.0946 11.562 61.9914 10.6282C60.8882 9.69442 59.3458 9.4464 57.6544 9.92617C56.0498 10.3788 54.483 11.4319 53.247 12.8983C53.0163 13.1718 52.7996 13.4568 52.5978 13.7522C52.5117 13.4052 52.4081 13.0628 52.2874 12.7262C51.8068 11.3568 51.0229 10.1137 49.9943 9.08995C51.6627 6.22078 50.4483 2.7458 47.3243 1.5328C44.958 0.612555 42.6648 0.872773 40.3974 1.95566C28.6171 7.57382 16.8342 13.1834 5.04849 18.7844C2.53034 19.9879 1.59248 22.1727 1.67515 24.8318C1.74834 27.2388 3.1321 28.7052 5.34937 29.4615C5.38189 29.4737 5.38867 29.5685 5.41849 29.662C3.47634 31.409 0.689847 32.3876 0 35.3462V37.5973C0.0624347 37.6769 0.111421 37.7662 0.145017 37.8616C0.97175 43.997 6.32789 46.6073 11.6651 45.8416C14.1046 45.4892 16.0115 44.2152 17.9103 42.7813C24.9208 37.5038 31.9408 32.2412 38.9703 26.9935C39.3145 27.0932 39.6637 27.1747 40.0166 27.2374C40.3689 27.3011 40.724 27.3458 41.0791 27.3729C40.8213 27.6207 40.5765 27.8817 40.3459 28.155C39.1072 29.6214 38.3251 31.3372 38.1435 32.9839C37.9484 34.7336 38.4539 36.2095 39.5558 37.1446C41.7486 38.9973 45.6668 37.9809 48.2934 34.8745C48.5243 34.6013 48.741 34.3163 48.9426 34.0207C49.0285 34.3677 49.1321 34.7102 49.2529 35.0466C49.9048 36.8546 50.9972 38.3902 52.3335 39.3701C53.3134 40.087 54.3448 40.4543 55.3355 40.4543C55.7823 40.4548 56.2257 40.3778 56.6461 40.2266C58.0014 39.7373 58.9921 38.5271 59.4231 36.818C59.8297 35.2106 59.6942 33.3322 59.0463 31.5242C58.9257 31.1875 58.7877 30.8573 58.633 30.5349C58.9769 30.6339 59.3257 30.7153 59.6779 30.7788C63.6801 31.5012 67.3502 29.7908 67.8598 26.9677C68.3694 24.1446 65.526 21.2605 61.5306 20.5382ZM52.8567 16.3367C53.2068 15.4199 53.711 14.5697 54.3475 13.8227C55.4046 12.5717 56.7166 11.6772 58.0393 11.3032C59.2591 10.9548 60.3366 11.1039 61.0644 11.7179C61.7922 12.3318 62.1174 13.3686 61.9778 14.6318C61.8287 15.9993 61.1646 17.4427 60.1062 18.6909C59.4755 19.4463 58.72 20.088 57.8726 20.5883L56.7884 21.2145L55.7394 21.3595C55.0766 21.4503 54.1307 21.4272 53.3879 20.7984C52.6452 20.1695 52.4663 19.2425 52.446 18.5743L52.4148 17.5172L52.8567 16.3367ZM50.7397 12.6774C50.8129 12.8496 50.882 13.023 50.9457 13.2033C51.2833 14.1258 51.4598 15.0996 51.4675 16.0819V17.3342L51.0609 18.3195C50.8088 18.9389 50.3155 19.7467 49.4007 20.0814C48.9061 20.2517 48.3714 20.2673 47.8678 20.1262C47.5671 20.0469 47.2768 19.9323 47.0031 19.7846L46.3052 19.4038L46.0693 19.2791L45.2738 18.3195C44.6542 17.5575 44.1701 16.6948 43.8426 15.7689C43.192 13.9595 43.1812 12.1096 43.6867 10.7651C44.0282 9.85705 44.6043 9.1794 45.3795 8.90021C47.1902 8.24289 49.5497 9.95599 50.7316 12.6856L50.7397 12.6774ZM22.4803 12.2695C28.4721 9.3949 34.4707 6.52844 40.4462 3.62674C42.3802 2.68752 44.3237 2.13591 46.4569 2.82576C48.7786 3.57931 49.8289 6.13675 48.7081 8.0911C47.4707 7.34433 46.1195 7.10715 44.8943 7.54898C43.9713 7.88374 43.234 8.56139 42.7272 9.45317C42.6445 9.51281 42.5645 9.57515 42.4832 9.64156C42.3477 9.74727 42.2121 9.84621 42.0766 9.9465C41.6036 10.2799 41.155 10.8261 40.6495 10.8952C40.0721 10.967 39.8648 10.162 39.45 9.78387C37.5323 8.02198 35.1131 7.85121 33.0056 9.39896C27.3676 13.5389 21.7417 17.6871 16.1281 21.8433C15.5304 22.2879 15.2336 22.4247 14.7728 21.6414C13.9596 20.2346 12.6368 19.3753 11.1528 18.7668C10.8112 18.6313 10.467 18.4957 9.91401 18.2802C14.2469 16.2107 18.3657 14.2428 22.4803 12.2695ZM38.4173 12.6625C31.1791 17.9527 23.9572 23.2668 16.7515 28.6049C15.2155 29.737 13.675 30.8628 12.1299 31.9823C11.0444 32.7701 10.2353 33.8804 9.81779 35.1551C9.19164 33.2387 8.00033 31.9864 6.13137 31.4063C6.11918 31.0363 6.43496 30.9672 6.63148 30.8235C15.6551 24.1627 24.6823 17.5064 33.7131 10.8546C35.5183 9.52636 37.1013 9.67409 38.5501 11.1812C39.1261 11.7802 39.1587 12.1218 38.4173 12.6625ZM3.26356 24.6962C3.20799 21.7078 5.04036 19.7873 8.03286 19.7846C10.2745 19.7846 12.1313 20.6466 13.4771 22.4871C13.8945 23.0604 13.9514 23.5402 13.2169 23.9874C12.382 24.497 11.6285 25.1367 10.7299 25.7981C10.3328 23.6296 9.37461 22.6579 7.3918 22.3394C7.07873 22.2906 6.53932 22.0344 6.59218 22.6958C6.6247 23.1024 6.18559 23.7014 7.05298 23.9074C8.79454 24.3303 9.27431 24.9808 8.92329 26.1952C8.5289 27.5586 7.21155 28.2688 5.78306 27.8852C4.24209 27.4719 3.29338 26.2724 3.26356 24.6962ZM10.9779 44.3223C9.22552 44.489 7.50836 44.306 5.88335 43.5484C3.03723 42.2243 1.1886 38.8049 1.64669 35.6958C1.87709 34.1535 3.27305 32.9134 4.82622 32.8768C5.59972 32.8681 6.35251 33.1267 6.9573 33.609C7.56208 34.0913 7.98176 34.7677 8.14535 35.5237C8.35406 36.5415 7.94612 37.3913 7.09499 37.7085C6.24386 38.0256 5.41578 37.6542 4.98886 36.6351C4.64054 35.8083 3.97645 36.1458 3.53055 36.2461C3.00876 36.3626 3.38554 36.8899 3.48583 37.1867C3.90597 38.42 4.79776 39.1776 6.07716 39.3768C7.35656 39.5761 8.41776 39.0692 9.19435 38.0215C9.41391 37.7247 9.56706 37.3791 9.82863 36.9142C10.0523 37.3208 10.1918 37.6204 10.3707 37.8955C11.0931 38.9797 12.1191 39.5218 13.4148 39.3931C14.7484 39.2576 15.6849 38.5013 16.1457 37.2382C16.2582 36.9264 16.6688 36.3776 16.0698 36.2366C15.628 36.135 14.9652 35.83 14.6372 36.6771C14.2632 37.6393 13.4175 38.0039 12.6043 37.7274C11.7911 37.4509 11.3371 36.6527 11.478 35.6782C11.478 35.6457 11.4862 35.6105 11.4916 35.5779C11.6551 34.7865 12.0962 34.0796 12.7352 33.5848C13.3741 33.09 14.1689 32.8398 14.9761 32.8795C15.7644 32.9454 16.5037 33.2891 17.0622 33.8493C17.6207 34.4095 17.9621 35.1499 18.0255 35.9384C18.3575 40.5464 15.5683 43.8886 10.9779 44.3223ZM19.6518 39.4622C19.5189 39.5376 19.3808 39.6032 19.2385 39.6587C19.3537 38.9174 19.4621 38.279 19.5502 37.6353C19.7277 36.3315 19.7223 35.0385 19.0379 33.8608C18.7844 33.4244 18.9024 33.2021 19.271 32.9459C19.9121 32.4973 20.5057 31.9728 21.1684 31.554C21.7309 31.1935 21.6617 30.9062 21.3039 30.4251C20.9461 29.9439 20.6819 29.7813 20.2034 30.2448C19.9107 30.5281 19.5258 30.7138 19.2331 30.9943C18.2274 31.943 17.2001 32.5244 15.9586 31.1908C18.2992 29.4628 20.6778 27.7023 23.0604 25.9458C29.3499 21.3134 35.6435 16.6769 41.9411 12.0364C41.8081 13.4636 41.9966 14.9025 42.4927 16.2473C42.6141 16.5839 42.7525 16.9141 42.9074 17.2367C42.5636 17.1373 42.2148 17.0559 41.8625 16.9927C39.9732 16.6525 38.0975 16.8328 36.5768 17.5009C34.9627 18.2111 33.934 19.3835 33.6778 20.8052C33.4217 22.2269 33.976 23.6852 35.2391 24.9158C35.8221 25.4711 36.4839 25.9374 37.203 26.2995C31.3553 30.6925 25.5049 35.0801 19.6518 39.4622ZM40.4828 25.8591L40.27 25.8238C39.667 25.7171 39.0766 25.5486 38.5081 25.321C37.667 24.9928 36.8968 24.506 36.2393 23.8871C35.3286 23.0007 34.9193 21.9897 35.0901 21.0586C35.2608 20.1275 35.9927 19.3238 37.1555 18.8102C38.0561 18.4319 39.0249 18.2432 40.0017 18.2558C40.5403 18.2568 41.0779 18.3063 41.6077 18.4036C42.5752 18.5731 43.5066 18.9068 44.3617 19.3902L45.4459 20.0164L45.4852 20.0679L46.0964 20.854C46.2273 21.0215 46.3447 21.1991 46.4475 21.3852C46.7637 21.9225 46.8839 22.5528 46.7876 23.1688C46.6155 24.1256 45.8999 24.745 45.3321 25.0974L44.4308 25.6544L43.1947 25.8604C42.2964 26.0035 41.381 26.0031 40.4828 25.8591ZM48.6918 31.4334C48.3417 32.3507 47.8376 33.2014 47.201 33.9489C45.1206 36.4087 42.0509 37.3696 40.4841 36.0523C39.7563 35.4356 39.4338 34.4015 39.5707 33.1384C39.7198 31.7709 40.3839 30.3302 41.4437 29.0725C42.0736 28.3168 42.8286 27.675 43.6759 27.1751L44.7601 26.5489L45.8078 26.4039C46.4719 26.3131 47.4179 26.3361 48.1606 26.965C48.9033 27.5939 49.0822 28.5209 49.1025 29.1904L49.1337 30.2462L48.6918 31.4334ZM49.0835 25.8767C48.6185 25.484 48.068 25.2055 47.4761 25.0635C47.8428 24.5788 48.0902 24.0146 48.1982 23.4166C48.3063 22.8185 48.2721 22.2034 48.0982 21.6211C48.7019 21.6949 49.3145 21.6261 49.8867 21.4201C50.4589 21.2142 50.9748 20.8768 51.3929 20.4352C51.6285 20.9959 51.9932 21.493 52.4575 21.8859C52.9217 22.2787 53.4723 22.5563 54.0642 22.6958C53.6972 23.1808 53.4497 23.7455 53.3418 24.3441C53.234 24.9428 53.2688 25.5584 53.4435 26.141C52.8402 26.0652 52.2275 26.1329 51.6553 26.3385C51.083 26.5441 50.5673 26.8818 50.1501 27.3242C49.9111 26.7673 49.546 26.2736 49.0835 25.8821V25.8767ZM58.0285 36.4643C57.7222 37.7003 57.0581 38.5582 56.1609 38.8794C55.2637 39.2006 54.2052 38.9648 53.1792 38.214C52.0692 37.4008 51.1544 36.1024 50.6042 34.5642C50.2662 33.6407 50.0893 32.6661 50.081 31.6828V30.4305L50.4808 29.452C50.7329 28.8312 51.2262 28.0235 52.1411 27.6901C53.0559 27.3567 53.9504 27.6698 54.54 27.9869L55.4724 28.4884L56.268 29.4547C56.8871 30.2178 57.3707 31.0815 57.6978 32.0081C58.2521 33.5518 58.3714 35.1347 58.0353 36.4697L58.0285 36.4643ZM66.4422 26.7061C66.0803 28.7174 63.096 29.9345 59.9246 29.3612C58.957 29.1919 58.0255 28.8582 57.1706 28.3745L56.0863 27.7484L55.4372 26.9135C55.0306 26.3849 54.5738 25.5582 54.7446 24.5959C54.8292 24.1542 55.0298 23.743 55.326 23.4046C55.579 23.1156 55.8747 22.8669 56.2029 22.6673L57.1015 22.113L58.3375 21.9043C59.3079 21.7501 60.2974 21.7625 61.2636 21.9409C64.4418 22.521 66.8163 24.703 66.449 26.7143L66.4422 26.7061Z" fill="black"/>
</g>
</g>
</g>
<defs>
<clipPath id="clip0_279_1344">
<rect width="67.9195" height="45" fill="white" transform="translate(0 0.97168)"/>
</clipPath>
</defs>
</svg>
