<svg width="80" height="81" viewBox="0 0 80 81" fill="none" xmlns="http://www.w3.org/2000/svg">
<g id="no-pineapple-neg 1" clip-path="url(#clip0_276_1225)">
<g id="Capa 2">
<g id="Capa 1">
<path id="Vector" d="M68.3414 12.7785C68.3163 12.7509 68.3088 12.7157 68.2836 12.6906C68.2585 12.6655 68.2233 12.6579 68.1957 12.6328C64.492 8.93265 60.0957 5.99836 55.2578 3.99752C50.42 1.99668 45.2353 0.968496 40 0.971687C17.9439 0.971687 9.01893e-06 18.9155 9.01893e-06 40.9717C-0.00351254 46.2068 1.02428 51.3914 3.02468 56.2292C5.02508 61.0671 7.95891 65.4635 11.6586 69.1674C11.6837 69.195 11.6913 69.2302 11.7164 69.2553C11.7415 69.2804 11.7767 69.288 11.8043 69.3131C19.2853 76.784 29.4274 80.9777 40 80.9717C62.0562 80.9717 80 63.0278 80 40.9717C80.0054 30.3999 75.8118 20.2589 68.3414 12.7785ZM40 4.90562C48.8845 4.90036 57.4558 8.18764 64.0583 14.1325L13.1608 65.03C7.21597 58.4275 3.92868 49.8562 3.93394 40.9717C3.93394 21.0835 20.1118 4.90562 40 4.90562ZM40 77.0378C31.1158 77.0437 22.5446 73.7573 15.9417 67.8134L66.8417 16.9134C72.7857 23.5163 76.072 32.0875 76.0661 40.9717C76.0661 60.8574 59.8857 77.0378 40 77.0378Z" fill="black"/>
<path id="Vector_2" d="M69.3966 54.0394C67.8006 48.7891 66.2013 43.5397 64.5985 38.2911C62.8384 32.5133 61.0799 26.7355 59.3232 20.9577C58.8459 19.3877 57.8737 18.4029 56.3488 17.9432C53.1736 16.9936 49.7069 15.9185 45.7478 14.6599C45.2805 14.5021 44.7915 14.4173 44.2983 14.4087C43.3049 14.419 42.3458 14.7742 41.5853 15.4135C35.5881 20.2066 29.5884 24.9963 23.5862 29.7827C19.7427 32.8608 15.9 35.9323 12.0582 38.997C9.84755 40.7555 9.30996 43.2173 10.5836 45.7319C13.4692 51.4066 17.7683 56.242 23.0662 59.772C26.8921 62.3645 31.1852 63.7913 35.2548 65.0122L36.0637 65.2634C39.7188 66.3738 43.4995 67.5243 47.2802 67.5243C47.6545 67.5243 48.0338 67.5243 48.3931 67.4916H49.2773C51.6528 67.4987 54.0245 67.302 56.3664 66.9038C61.2148 66.0899 65.1763 64.5751 68.4747 62.2715C69.5474 61.5179 70.0875 60.5734 70.0799 59.453C70.0724 57.9457 69.9819 55.9687 69.3966 54.0394ZM43.5673 54.2479C43.5673 52.6201 43.5447 50.9822 43.5196 49.3845L43.4895 47.4879V47.3497C43.4951 47.0724 43.4774 46.7951 43.4367 46.5207C43.3754 45.9575 43.1029 45.4384 42.674 45.0683C42.245 44.6981 41.6917 44.5044 41.1256 44.5261H40.9975C40.6986 44.5253 40.4027 44.5846 40.1272 44.7005C39.8518 44.8164 39.6025 44.9865 39.3941 45.2007C39.1858 45.415 39.0226 45.6689 38.9144 45.9475C38.8062 46.226 38.7551 46.5235 38.7642 46.8222C38.7516 47.827 38.7642 48.8319 38.7642 49.8091C38.7642 50.2135 38.7642 50.6154 38.7642 51.0174V52.2734C38.7642 53.012 38.7642 53.7488 38.7642 54.4841C35.5236 54.3861 33.0969 54.0143 30.7255 52.7457C32.3609 50.1808 34.0038 47.5758 35.594 45.0486L37.2293 42.4537C37.3524 42.2577 37.4805 42.0517 37.6061 41.8231C37.7546 41.5735 37.8518 41.2968 37.8919 41.0092C37.9321 40.7215 37.9145 40.4288 37.8401 40.148C37.7657 39.8673 37.636 39.6042 37.4587 39.3742C37.2813 39.1442 37.0599 38.9519 36.8073 38.8086C36.4137 38.5501 35.9543 38.4097 35.4834 38.4042C35.1621 38.4084 34.8453 38.4807 34.5539 38.6162C34.2625 38.7518 34.0031 38.9475 33.7928 39.1905C33.6044 39.4119 33.4363 39.6499 33.2904 39.9014L31.7278 42.3833C30.095 44.9657 28.4094 47.6336 26.7665 50.2788C25.2352 49.1324 23.7963 47.8675 22.4633 46.4956C23.3852 45.5762 24.2971 44.6367 25.1839 43.7323L25.8219 43.0767C26.4399 42.4411 26.7464 41.7754 26.7313 41.0971C26.7195 40.7896 26.645 40.4877 26.5124 40.2099C26.3797 39.9322 26.1918 39.6844 25.9601 39.4819C25.5513 39.0685 24.9965 38.8321 24.4152 38.8237C23.752 38.8237 23.1214 39.1377 22.4859 39.7808L22.1719 40.0973C21.2876 40.9916 20.3807 41.911 19.4864 42.8405C18.9413 42.0366 18.4088 41.1976 17.8938 40.3284C21.7574 37.2662 25.6662 34.1462 29.4494 31.1266L32.9211 28.3633L35.8854 26.002C38.4376 23.9722 41.0678 21.8796 43.6553 19.7921C47.2827 31.7697 50.3449 41.8131 53.2665 51.3163C50.1995 52.7763 46.9296 53.7647 43.5673 54.2479ZM57.9415 50.623C54.8801 40.5897 51.8221 30.5564 48.7674 20.5231L50.5911 21.0858C51.9527 21.5079 53.3544 21.945 54.7486 22.3645C54.781 22.3737 54.8129 22.3846 54.8441 22.3971C54.8557 22.4267 54.8658 22.4569 54.8742 22.4876C57.5773 31.4005 60.3431 40.4591 63.0159 49.2212L64.0208 52.4869C61.9927 51.8673 59.9662 51.246 57.9415 50.623Z" fill="#03D6D0"/>
<path id="Vector_3" d="M48.3677 66.2281C44.1499 66.4994 39.9045 65.1052 35.6213 63.8115C31.4739 62.5554 27.4018 61.1914 23.7743 58.732C18.5994 55.2151 14.5349 50.7486 11.7163 45.1667C10.7115 43.1973 11.1234 41.3584 12.8518 39.9793C22.6891 32.1248 32.5281 24.2712 42.3688 16.4184C42.7726 16.0647 43.2643 15.8262 43.792 15.7281C44.3198 15.63 44.8643 15.6758 45.3683 15.8607C48.9003 16.9828 52.4415 18.0789 55.9919 19.149C57.1424 19.4957 57.783 20.2041 58.1221 21.3245C61.4716 32.3542 64.8311 43.3815 68.2006 54.4062C68.7031 56.0491 68.8211 57.7548 68.8337 59.463C68.8337 60.2493 68.4117 60.7919 67.766 61.2416C64.2667 63.6859 60.3303 64.967 56.1702 65.6679C53.5928 66.0998 50.9804 66.2873 48.3677 66.2281ZM40.1733 51.0224C40.123 51.0224 40.1557 48.2365 40.1733 46.8423C40.1733 46.1967 40.3818 45.8123 41.05 45.7847C41.1879 45.765 41.3284 45.7742 41.4626 45.8117C41.5968 45.8492 41.7217 45.9141 41.8294 46.0025C41.9371 46.0908 42.0253 46.2006 42.0883 46.3249C42.1513 46.4491 42.1878 46.5851 42.1955 46.7242C42.2282 46.9833 42.2408 47.2445 42.2332 47.5055C42.2658 49.9146 42.3211 52.3237 42.3085 54.7328C42.3085 55.4864 42.5597 55.6547 43.2681 55.5592C46.9838 55.0802 50.5975 54.0037 53.9696 52.3714C54.5826 52.0775 54.7233 51.8062 54.5098 51.1154C51.1821 40.295 47.8787 29.4603 44.5996 18.6114C44.381 17.8854 44.2202 17.7171 43.5545 18.2572C39.7638 21.3195 35.9404 24.349 32.1295 27.3887C27.0267 31.4583 21.9187 35.5253 16.8058 39.5899C16.3762 39.9315 16.3235 40.1727 16.5998 40.6425C17.3358 41.8985 18.1071 43.1144 18.9511 44.3001C19.2526 44.7271 19.4309 44.7171 19.7801 44.3478C20.9558 43.0917 22.1616 41.8859 23.3649 40.6701C24.0431 39.9843 24.5631 39.9165 25.0882 40.4038C25.6132 40.8912 25.5906 41.5116 24.9073 42.2075C23.6713 43.4635 22.4454 44.7497 21.1844 45.9957C20.8176 46.3575 20.7875 46.5735 21.1592 46.9729C22.7527 48.6647 24.4994 50.2053 26.3769 51.5751C26.9923 52.0298 27.2486 51.8815 27.6128 51.2962C29.8159 47.7467 32.0542 44.2222 34.2799 40.6877C34.4104 40.4624 34.5591 40.2481 34.7245 40.0471C34.8067 39.9435 34.9085 39.8571 35.0241 39.7929C35.1398 39.7288 35.2669 39.688 35.3983 39.6731C35.5297 39.6582 35.6627 39.6693 35.7898 39.7059C35.9169 39.7425 36.0355 39.8038 36.1388 39.8863C36.2576 39.9443 36.3625 40.027 36.4466 40.1289C36.5306 40.2309 36.5919 40.3496 36.6261 40.4772C36.6604 40.6048 36.6669 40.7383 36.6453 40.8686C36.6236 40.999 36.5743 41.1231 36.5006 41.2328C36.3775 41.4614 36.2343 41.68 36.0936 41.901C33.8679 45.4355 31.6522 48.9725 29.3914 52.492C29.0573 53.0145 29.0397 53.2305 29.6426 53.5847C32.745 55.4135 36.1589 55.6974 39.6357 55.7627C40.1632 55.7627 40.1657 55.499 40.1632 55.1121C40.1607 53.748 40.1733 52.384 40.1733 51.0224ZM65.7388 54.3409C65.8619 54.0369 65.7388 53.8385 65.6684 53.6149C62.4647 43.1194 59.2676 32.6222 56.0773 22.1233C56.0231 21.8881 55.9035 21.6731 55.7324 21.5028C55.5613 21.3326 55.3456 21.2142 55.1101 21.1612C52.6156 20.4076 50.1312 19.6213 47.6392 18.8626C47.4432 18.8024 47.2347 18.6114 47.0011 18.7772C46.9897 18.8656 46.9897 18.9551 47.0011 19.0435C50.2585 29.735 53.5158 40.4264 56.7731 51.1179C56.846 51.3691 56.9038 51.6203 57.2102 51.7158C60.0556 52.5883 62.8985 53.4633 65.7388 54.3409ZM38.5906 60.9251C39.7153 60.9814 40.8428 60.936 41.9593 60.7894C46.4127 60.3439 50.7297 59.0014 54.6504 56.8429C55.3689 56.4485 55.7206 55.8883 55.6553 55.0845C55.595 54.1726 55.4267 54.0796 54.6228 54.4665C49.8974 56.7782 44.7002 57.9623 39.4397 57.9256C36.5709 57.898 33.682 57.7724 30.9916 56.6143C26.2278 54.5627 22.0118 51.4222 18.6823 47.4452C17.2291 45.7485 15.9507 43.9095 14.8665 41.9563C14.6278 41.5217 14.4469 41.4338 14.0475 41.793C13.3266 42.4336 13.1582 43.1822 13.6305 44.1318C15.4165 47.7589 17.8819 51.0097 20.893 53.7078C25.9197 58.217 31.5216 61.3747 38.5906 60.9251ZM41.2484 63.186C49.0912 64.8163 56.7103 64.2561 64.3144 60.905C63.9024 60.7517 63.7467 60.6839 63.5859 60.6387C61.2999 59.9956 59.0114 59.3701 56.7355 58.7019C56.5336 58.6357 56.3198 58.6145 56.1089 58.6396C55.898 58.6648 55.6952 58.7358 55.5146 58.8476C52.9465 60.2522 50.2108 61.3258 47.3729 62.043C45.3582 62.5554 43.3008 62.8393 41.2484 63.1784V63.186ZM57.7529 54.165C57.8458 54.8835 57.9563 55.4688 57.7679 56.0265C57.5795 56.5842 57.7855 56.7625 58.3156 56.9032C60.6644 57.5337 63.0031 58.212 65.3494 58.8677C66.6959 59.242 66.7085 59.2344 66.5628 57.8051C66.5201 57.3855 66.6733 56.9007 66.0076 56.7048C63.282 55.8934 60.5764 55.0342 57.7529 54.1575V54.165Z" fill="black"/>
</g>
</g>
</g>
<defs>
<clipPath id="clip0_276_1225">
<rect width="80" height="80" fill="white" transform="translate(0 0.97168)"/>
</clipPath>
</defs>
</svg>
