<svg width="69" height="60" viewBox="0 0 69 60" fill="none" xmlns="http://www.w3.org/2000/svg">
<g id="pineapple 1" clip-path="url(#clip0_303_435)">
<g id="Capa 2">
<g id="Capa 1">
<path id="Vector" d="M44.1243 59.9604C39.1196 60.2817 34.0836 58.6267 29.0049 57.0912C24.0826 55.604 19.2542 53.9859 14.9461 51.0684C8.81534 46.9196 3.98122 41.5992 0.6343 34.9765C-0.548638 32.639 -0.0680694 30.4608 1.9907 28.8229C13.657 19.5054 25.3262 10.1888 36.9983 0.873149C37.4773 0.453718 38.0604 0.171098 38.6864 0.0550066C39.3124 -0.0610848 39.9581 -0.00635765 40.5556 0.213433C44.7442 1.54424 48.9442 2.85514 53.1556 4.11486C54.5205 4.52433 55.2826 5.36604 55.6864 6.694C59.6675 19.7746 63.6485 32.8551 67.6296 45.9357C68.2239 47.8836 68.3632 49.9168 68.3803 51.9329C68.3803 52.8627 67.8798 53.5082 67.112 54.0428C62.9604 56.9433 58.2969 58.4618 53.3575 59.2921C50.308 59.8073 47.2163 60.031 44.1243 59.9604ZM34.4078 41.9205H34.2343C34.2343 40.2684 34.2343 38.6163 34.2343 36.9641C34.2343 36.1992 34.6552 35.7414 35.4457 35.7073C35.6095 35.6851 35.7762 35.6969 35.9352 35.742C36.0943 35.787 36.2424 35.8644 36.3702 35.9693C36.498 36.0742 36.6028 36.2043 36.6781 36.3515C36.7534 36.4987 36.7975 36.6598 36.8078 36.8248C36.8449 37.1323 36.8591 37.4422 36.8504 37.7518C36.8874 40.5954 36.9556 43.4646 36.9386 46.3224C36.9386 47.2239 37.2229 47.4172 38.076 47.3035C42.4841 46.7354 46.7715 45.4593 50.7727 43.5243C51.495 43.1746 51.6599 42.8504 51.4096 42.0371C47.4684 29.1916 43.549 16.3376 39.6514 3.47504C39.3926 2.62196 39.2021 2.41722 38.4115 3.05704C33.9158 6.69116 29.3831 10.2798 24.8618 13.8855C18.8087 18.7177 12.7509 23.5433 6.68833 28.3622C6.17932 28.766 6.11961 29.0532 6.44378 29.6106C7.31676 31.0978 8.24093 32.5423 9.23335 33.9499C9.59165 34.4561 9.80207 34.4419 10.2172 34.004C11.6106 32.5281 13.0409 31.0864 14.4826 29.6419C15.2874 28.8286 15.9044 28.7461 16.5272 29.3291C17.1499 29.912 17.1158 30.64 16.3139 31.4646C14.8495 32.9689 13.3907 34.4845 11.8978 35.9604C11.4599 36.3897 11.4258 36.6457 11.8665 37.1205C13.7558 39.126 15.8262 40.9527 18.0514 42.5774C18.7793 43.1177 19.0836 42.9442 19.5158 42.2476C22.1291 38.039 24.7822 33.8561 27.4267 29.6646C27.5803 29.3962 27.7563 29.1413 27.9528 28.9025C28.4476 28.3594 29.0447 28.3338 29.6305 28.712C30.2163 29.0902 30.4153 29.6476 30.0599 30.3101C29.912 30.5945 29.7443 30.8419 29.5793 31.1035C26.9348 35.295 24.3044 39.4921 21.6371 43.6665C21.2419 44.2864 21.222 44.5423 21.9215 44.9632C25.6011 47.1329 29.6504 47.4684 33.7736 47.5452C34.4021 47.5452 34.4049 47.2324 34.4021 46.7746C34.3879 45.1566 34.4078 43.5386 34.4078 41.9205ZM64.7405 45.8589C64.8855 45.4978 64.7405 45.2532 64.658 45.0059C60.8665 32.5547 57.0751 20.1016 53.2836 7.64661C53.2195 7.36952 53.0789 7.116 52.8778 6.9149C52.6768 6.71381 52.4232 6.57322 52.1461 6.50917C49.186 5.61912 46.24 4.68358 43.2826 3.78215C43.0495 3.71391 42.8021 3.49779 42.5262 3.68263C42.5119 3.78735 42.5119 3.89355 42.5262 3.99827C46.3879 16.6807 50.2523 29.3632 54.1196 42.0457C54.2078 42.33 54.2788 42.6428 54.64 42.7537C57.9935 43.7793 61.3566 44.8144 64.7291 45.8589H64.7405ZM32.5253 53.6703C33.8592 53.7369 35.1964 53.6826 36.5205 53.5082C41.8028 52.9787 46.9234 51.3866 51.5746 48.8277C52.4277 48.3585 52.8457 47.6902 52.7831 46.7404C52.712 45.6599 52.4987 45.5518 51.5575 46.0096C45.9449 48.7551 39.7714 50.1598 33.5234 50.113C30.1111 50.0788 26.6988 49.931 23.4997 48.5575C17.8537 46.1208 12.8575 42.3946 8.91202 37.6779C7.18798 35.666 5.67129 33.4853 4.38501 31.1689C4.10065 30.6542 3.88738 30.549 3.4125 30.9727C2.55942 31.7348 2.35752 32.6248 2.91771 33.7509C5.03871 38.0518 7.96338 41.9069 11.5338 45.1082C17.494 50.457 24.1395 54.2021 32.5253 53.6703ZM35.676 56.3405C44.9803 58.2769 54.0172 57.6115 63.04 53.6362C62.548 53.457 62.366 53.3746 62.1727 53.3205C59.4656 52.5585 56.7499 51.8163 54.0485 51.0258C53.8091 50.9461 53.555 50.9201 53.3044 50.9496C53.0538 50.979 52.8127 51.0633 52.5983 51.1964C49.5514 52.8627 46.3056 54.1364 42.9386 54.9869C40.5499 55.604 38.1044 55.9395 35.676 56.3405ZM55.2542 45.6428C55.3651 46.4959 55.4959 47.1897 55.2741 47.8495C55.0523 48.5092 55.294 48.7224 55.9224 48.8902C58.7092 49.6381 61.4817 50.4428 64.2627 51.2191C65.858 51.6656 65.8751 51.657 65.6845 49.9594C65.6362 49.4618 65.8182 48.8874 65.0277 48.6542C61.8144 47.7016 58.6068 46.6807 55.2542 45.6428Z" fill="#03D6D0"/>
</g>
</g>
</g>
<defs>
<clipPath id="clip0_303_435">
<rect width="68.3915" height="60" fill="white"/>
</clipPath>
</defs>
</svg>
