<svg width="60" height="60" viewBox="0 0 60 60" fill="none" xmlns="http://www.w3.org/2000/svg">
<g id="3186855_comics_dc_logo_movie_sigil_icon 1" clip-path="url(#clip0_276_1078)">
<g id="Group">
<path id="Vector" d="M1.25 18.7515L8.75 8.75146H51.25L58.75 18.7515L30 51.2502L1.25 18.7515Z" stroke="black" stroke-width="3" stroke-miterlimit="10" stroke-linecap="round" stroke-linejoin="round"/>
<path id="Vector_2" d="M30.0002 8.75126C30.0002 8.75126 14.2061 8.47184 8.75021 16.2513C3.57453 23.6311 7.04923 28.7562 16.2502 28.7513C25.0002 28.7466 45.3916 28.9707 43.7502 35.0013C41.7355 42.4032 21.1638 41.2513 21.1638 41.2513" stroke="black" stroke-width="3" stroke-miterlimit="10" stroke-linecap="round" stroke-linejoin="round"/>
<path id="Vector_3" d="M28.7502 41.173C28.7502 41.173 27.5002 33.7515 22.5002 33.7515C18.7502 33.7515 17.5002 36.2515 17.5002 36.2515L17.2368 36.8226" stroke="black" stroke-width="3" stroke-miterlimit="10" stroke-linecap="round" stroke-linejoin="round"/>
<path id="Vector_4" d="M51.25 8.75116V16.2512H43.75C43.75 16.2512 41.2499 8.70764 30 8.75116C22.5037 8.78017 21.25 13.3701 21.25 16.2512C21.25 18.7512 22.5 21.2512 30 21.2512C42.3535 21.2512 49.8235 21.2532 51.2035 27.2841" stroke="black" stroke-width="3" stroke-miterlimit="10" stroke-linecap="round" stroke-linejoin="round"/>
<path id="Vector_5" d="M43.75 16.2513C43.75 16.2513 47.5 15 47.5 8.75" stroke="black" stroke-width="3" stroke-miterlimit="10" stroke-linecap="round" stroke-linejoin="round"/>
</g>
</g>
<defs>
<clipPath id="clip0_276_1078">
<rect width="60" height="60" fill="white"/>
</clipPath>
</defs>
</svg>
