<svg width="80" height="80" viewBox="0 0 80 80" fill="none" xmlns="http://www.w3.org/2000/svg">
<g id="no-pineapple-neg 1" clip-path="url(#clip0_303_421)">
<g id="Capa 2">
<g id="Capa 1">
<path id="Vector" d="M68.3414 11.8068C68.3163 11.7792 68.3088 11.744 68.2836 11.7189C68.2585 11.6938 68.2233 11.6862 68.1957 11.6611C64.492 7.96097 60.0957 5.02668 55.2578 3.02584C50.42 1.025 45.2353 -0.00318419 40 7.4075e-06C17.9439 7.4075e-06 9.01893e-06 17.9439 9.01893e-06 40C-0.00351254 45.2351 1.02428 50.4197 3.02468 55.2575C5.02508 60.0954 7.95891 64.4918 11.6586 68.1957C11.6837 68.2233 11.6913 68.2585 11.7164 68.2836C11.7415 68.3088 11.7767 68.3163 11.8043 68.3414C19.2853 75.8124 29.4274 80.006 40 80C62.0562 80 80 62.0562 80 40C80.0054 29.4283 75.8118 19.2872 68.3414 11.8068ZM40 3.93394C48.8845 3.92868 57.4558 7.21596 64.0583 13.1608L13.1608 64.0583C7.21597 57.4558 3.92868 48.8845 3.93394 40C3.93394 20.1118 20.1118 3.93394 40 3.93394ZM40 76.0661C31.1158 76.072 22.5446 72.7857 15.9417 66.8417L66.8417 15.9417C72.7857 22.5446 76.072 31.1158 76.0661 40C76.0661 59.8857 59.8857 76.0661 40 76.0661Z" fill="#03D6D0"/>
<path id="Vector_2" d="M69.3966 53.0677C67.8006 47.8175 66.2013 42.568 64.5985 37.3194C62.8384 31.5416 61.0799 25.7638 59.3232 19.986C58.8459 18.416 57.8737 17.4312 56.3488 16.9715C53.1736 16.022 49.7069 14.9468 45.7478 13.6882C45.2805 13.5304 44.7915 13.4457 44.2983 13.437C43.3049 13.4473 42.3458 13.8025 41.5853 14.4418C35.5881 19.2349 29.5884 24.0246 23.5862 28.811C19.7427 31.8891 15.9 34.9606 12.0582 38.0253C9.84755 39.7838 9.30996 42.2456 10.5836 44.7603C13.4692 50.4349 17.7683 55.2703 23.0662 58.8003C26.8921 61.3928 31.1852 62.8197 35.2548 64.0405L36.0637 64.2917C39.7188 65.4021 43.4995 66.5526 47.2802 66.5526C47.6545 66.5526 48.0338 66.5526 48.3931 66.52H49.2773C51.6528 66.527 54.0245 66.3303 56.3664 65.9321C61.2148 65.1182 65.1763 63.6034 68.4747 61.2999C69.5474 60.5462 70.0875 59.6017 70.0799 58.4813C70.0724 56.974 69.9819 54.997 69.3966 53.0677ZM43.5673 53.2762C43.5673 51.6484 43.5447 50.0105 43.5196 48.4128L43.4895 46.5162V46.378C43.4951 46.1007 43.4774 45.8234 43.4367 45.549C43.3754 44.9858 43.1029 44.4668 42.674 44.0966C42.245 43.7264 41.6917 43.5327 41.1256 43.5545H40.9975C40.6986 43.5536 40.4027 43.6129 40.1272 43.7288C39.8518 43.8447 39.6025 44.0149 39.3941 44.2291C39.1858 44.4433 39.0226 44.6972 38.9144 44.9758C38.8062 45.2543 38.7551 45.5518 38.7642 45.8505C38.7516 46.8553 38.7642 47.8602 38.7642 48.8374C38.7642 49.2418 38.7642 49.6438 38.7642 50.0457V51.3017C38.7642 52.0403 38.7642 52.7772 38.7642 53.5124C35.5236 53.4144 33.0969 53.0426 30.7255 51.774C32.3609 49.2092 34.0038 46.6041 35.594 44.077L37.2293 41.482C37.3524 41.286 37.4805 41.08 37.6061 40.8514C37.7546 40.6018 37.8518 40.3251 37.8919 40.0375C37.9321 39.7498 37.9145 39.4571 37.8401 39.1764C37.7657 38.8956 37.636 38.6326 37.4587 38.4026C37.2813 38.1726 37.0599 37.9803 36.8073 37.8369C36.4137 37.5784 35.9543 37.438 35.4834 37.4325C35.1621 37.4368 34.8453 37.509 34.5539 37.6446C34.2625 37.7801 34.0031 37.9758 33.7928 38.2188C33.6044 38.4403 33.4363 38.6782 33.2904 38.9297L31.7278 41.4116C30.095 43.9941 28.4094 46.6619 26.7665 49.3071C25.2352 48.1608 23.7963 46.8958 22.4633 45.5239C23.3852 44.6045 24.2971 43.665 25.1839 42.7606L25.8219 42.105C26.4399 41.4694 26.7464 40.8037 26.7313 40.1254C26.7195 39.8179 26.645 39.516 26.5124 39.2382C26.3797 38.9605 26.1918 38.7127 25.9601 38.5102C25.5513 38.0968 24.9965 37.8604 24.4152 37.852C23.752 37.852 23.1214 38.166 22.4859 38.8091L22.1719 39.1256C21.2876 40.0199 20.3807 40.9394 19.4864 41.8688C18.9413 41.065 18.4088 40.2259 17.8938 39.3567C21.7574 36.2945 25.6662 33.1745 29.4494 30.155L32.9211 27.3917L35.8854 25.0303C38.4376 23.0005 41.0678 20.908 43.6553 18.8204C47.2827 30.7981 50.3449 40.8414 53.2665 50.3446C50.1995 51.8046 46.9296 52.793 43.5673 53.2762ZM57.9415 49.6513C54.8801 39.618 51.8221 29.5847 48.7674 19.5514L50.5911 20.1141C51.9527 20.5362 53.3544 20.9733 54.7486 21.3928C54.781 21.402 54.8129 21.4129 54.8441 21.4255C54.8557 21.4551 54.8658 21.4852 54.8742 21.5159C57.5773 30.4288 60.3431 39.4874 63.0159 48.2495L64.0208 51.5153C61.9927 50.8956 59.9662 50.2743 57.9415 49.6513Z" fill="black"/>
<path id="Vector_3" d="M48.3677 65.2564C44.1499 65.5277 39.9045 64.1335 35.6213 62.8398C31.4739 61.5837 27.4018 60.2197 23.7743 57.7603C18.5994 54.2434 14.5349 49.7769 11.7163 44.1951C10.7115 42.2256 11.1234 40.3867 12.8518 39.0076C22.6891 31.1531 32.5281 23.2995 42.3688 15.4467C42.7726 15.093 43.2643 14.8546 43.792 14.7564C44.3198 14.6583 44.8643 14.7041 45.3683 14.889C48.9003 16.0111 52.4415 17.1072 55.9919 18.1773C57.1424 18.524 57.783 19.2324 58.1221 20.3528C61.4716 31.3826 64.8311 42.4098 68.2006 53.4345C68.7031 55.0774 68.8211 56.7831 68.8337 58.4914C68.8337 59.2776 68.4117 59.8203 67.766 60.2699C64.2667 62.7142 60.3303 63.9953 56.1702 64.6962C53.5928 65.1281 50.9804 65.3157 48.3677 65.2564ZM40.1733 50.0507C40.123 50.0507 40.1557 47.2648 40.1733 45.8706C40.1733 45.225 40.3818 44.8407 41.05 44.813C41.1879 44.7933 41.3284 44.8025 41.4626 44.84C41.5968 44.8775 41.7217 44.9425 41.8294 45.0308C41.9371 45.1192 42.0253 45.2289 42.0883 45.3532C42.1513 45.4774 42.1878 45.6134 42.1955 45.7526C42.2282 46.0116 42.2408 46.2728 42.2332 46.5338C42.2658 48.9429 42.3211 51.352 42.3085 53.7611C42.3085 54.5147 42.5597 54.683 43.2681 54.5876C46.9838 54.1085 50.5975 53.032 53.9696 51.3997C54.5826 51.1058 54.7233 50.8345 54.5098 50.1437C51.1821 39.3233 47.8787 28.4886 44.5996 17.6398C44.381 16.9138 44.2202 16.7455 43.5545 17.2856C39.7638 20.3478 35.9404 23.3774 32.1295 26.417C27.0267 30.4866 21.9187 34.5537 16.8058 38.6182C16.3762 38.9599 16.3235 39.201 16.5998 39.6708C17.3358 40.9268 18.1071 42.1427 18.9511 43.3284C19.2526 43.7554 19.4309 43.7454 19.7801 43.3761C20.9558 42.1201 22.1616 40.9143 23.3649 39.6984C24.0431 39.0126 24.5631 38.9448 25.0882 39.4321C25.6132 39.9195 25.5906 40.54 24.9073 41.2358C23.6713 42.4919 22.4454 43.778 21.1844 45.024C20.8176 45.3858 20.7875 45.6018 21.1592 46.0012C22.7527 47.693 24.4994 49.2336 26.3769 50.6034C26.9923 51.0581 27.2486 50.9099 27.6128 50.3246C29.8159 46.775 32.0542 43.2505 34.2799 39.716C34.4104 39.4907 34.5591 39.2765 34.7245 39.0754C34.8067 38.9718 34.9085 38.8854 35.0241 38.8213C35.1398 38.7571 35.2669 38.7164 35.3983 38.7014C35.5297 38.6865 35.6627 38.6976 35.7898 38.7342C35.9169 38.7708 36.0355 38.8321 36.1388 38.9146C36.2576 38.9726 36.3625 39.0553 36.4466 39.1573C36.5306 39.2592 36.5919 39.378 36.6261 39.5056C36.6604 39.6332 36.6669 39.7666 36.6453 39.897C36.6236 40.0273 36.5743 40.1515 36.5006 40.2611C36.3775 40.4897 36.2343 40.7083 36.0936 40.9293C33.8679 44.4638 31.6522 48.0009 29.3914 51.5203C29.0573 52.0428 29.0397 52.2589 29.6426 52.6131C32.745 54.4419 36.1589 54.7257 39.6357 54.791C40.1632 54.791 40.1657 54.5273 40.1632 54.1404C40.1607 52.7764 40.1733 51.4123 40.1733 50.0507ZM65.7388 53.3692C65.8619 53.0652 65.7388 52.8668 65.6684 52.6432C62.4647 42.1477 59.2676 31.6505 56.0773 21.1517C56.0231 20.9165 55.9035 20.7014 55.7324 20.5312C55.5613 20.3609 55.3456 20.2425 55.1101 20.1895C52.6156 19.4359 50.1312 18.6496 47.6392 17.891C47.4432 17.8307 47.2347 17.6398 47.0011 17.8056C46.9897 17.8939 46.9897 17.9834 47.0011 18.0718C50.2585 28.7633 53.5158 39.4547 56.7731 50.1462C56.846 50.3974 56.9038 50.6486 57.2102 50.7441C60.0556 51.6166 62.8985 52.4916 65.7388 53.3692ZM38.5906 59.9534C39.7153 60.0097 40.8428 59.9643 41.9593 59.8177C46.4127 59.3722 50.7297 58.0297 54.6504 55.8712C55.3689 55.4768 55.7206 54.9167 55.6553 54.1128C55.595 53.2009 55.4267 53.1079 54.6228 53.4948C49.8974 55.8065 44.7002 56.9906 39.4397 56.954C36.5709 56.9263 33.682 56.8007 30.9916 55.6426C26.2278 53.591 22.0118 50.4505 18.6823 46.4735C17.2291 44.7768 15.9507 42.9379 14.8665 40.9846C14.6278 40.55 14.4469 40.4621 14.0475 40.8213C13.3266 41.4619 13.1582 42.2105 13.6305 43.1601C15.4165 46.7872 17.8819 50.038 20.893 52.7362C25.9197 57.2454 31.5216 60.4031 38.5906 59.9534ZM41.2484 62.2143C49.0912 63.8446 56.7103 63.2844 64.3144 59.9333C63.9024 59.7801 63.7467 59.7122 63.5859 59.667C61.2999 59.0239 59.0114 58.3984 56.7355 57.7302C56.5336 57.664 56.3198 57.6428 56.1089 57.668C55.898 57.6931 55.6952 57.7641 55.5146 57.8759C52.9465 59.2805 50.2108 60.3541 47.3729 61.0713C45.3582 61.5837 43.3008 61.8676 41.2484 62.2067V62.2143ZM57.7529 53.1934C57.8458 53.9118 57.9563 54.4971 57.7679 55.0548C57.5795 55.6125 57.7855 55.7909 58.3156 55.9315C60.6644 56.5621 63.0031 57.2403 65.3494 57.896C66.6959 58.2703 66.7085 58.2628 66.5628 56.8334C66.5201 56.4139 66.6733 55.929 66.0076 55.7331C63.282 54.9217 60.5764 54.0625 57.7529 53.1858V53.1934Z" fill="#03D6D0"/>
</g>
</g>
</g>
<defs>
<clipPath id="clip0_303_421">
<rect width="80" height="80" fill="white"/>
</clipPath>
</defs>
</svg>
