<svg width="68" height="45" viewBox="0 0 68 45" fill="none" xmlns="http://www.w3.org/2000/svg">
<g id="horchata 1" clip-path="url(#clip0_303_293)">
<g id="Capa 2">
<g id="Capa 1">
<path id="Vector" d="M61.5306 19.5665C61.1789 19.5033 60.8243 19.458 60.468 19.431C60.7255 19.1824 60.9703 18.921 61.2012 18.6476C62.4413 17.1812 63.2234 15.4681 63.4036 13.82C63.5961 12.0676 63.0946 10.5903 61.9914 9.65654C60.8882 8.72274 59.3458 8.47472 57.6544 8.95449C56.0498 9.40716 54.483 10.4602 53.247 11.9267C53.0163 12.2001 52.7996 12.4851 52.5978 12.7805C52.5117 12.4335 52.4081 12.0911 52.2874 11.7545C51.8068 10.3851 51.0229 9.14207 49.9943 8.11827C51.6627 5.2491 50.4483 1.77412 47.3243 0.561124C44.958 -0.359124 42.6648 -0.0989067 40.3974 0.983977C28.6171 6.60215 16.8342 12.2117 5.04849 17.8127C2.53034 19.0162 1.59248 21.201 1.67515 23.8601C1.74834 26.2671 3.1321 27.7335 5.34937 28.4898C5.38189 28.502 5.38867 28.5968 5.41849 28.6904C3.47634 30.4373 0.689847 31.4159 0 34.3745V36.6256C0.0624347 36.7052 0.111421 36.7945 0.145017 36.8899C0.97175 43.0254 6.32789 45.6357 11.6651 44.8699C14.1046 44.5175 16.0115 43.2436 17.9103 41.8097C24.9208 36.5321 31.9408 31.2695 38.9703 26.0218C39.3145 26.1215 39.6637 26.203 40.0166 26.2657C40.3689 26.3294 40.724 26.3742 41.0791 26.4013C40.8213 26.649 40.5765 26.91 40.3459 27.1833C39.1072 28.6497 38.3251 30.3655 38.1435 32.0122C37.9484 33.7619 38.4539 35.2378 39.5558 36.173C41.7486 38.0257 45.6668 37.0092 48.2934 33.9028C48.5243 33.6296 48.741 33.3446 48.9426 33.049C49.0285 33.3961 49.1321 33.7385 49.2529 34.075C49.9048 35.8829 50.9972 37.4185 52.3335 38.3984C53.3134 39.1153 54.3448 39.4826 55.3355 39.4826C55.7823 39.4831 56.2257 39.4061 56.6461 39.2549C58.0014 38.7657 58.9921 37.5554 59.4231 35.8463C59.8297 34.239 59.6942 32.3605 59.0463 30.5525C58.9257 30.2158 58.7877 29.8856 58.633 29.5632C58.9769 29.6622 59.3257 29.7436 59.6779 29.8071C63.6801 30.5295 67.3502 28.8191 67.8598 25.996C68.3694 23.1729 65.526 20.2889 61.5306 19.5665ZM52.8567 15.3651C53.2068 14.4482 53.711 13.598 54.3475 12.851C55.4046 11.6 56.7166 10.7055 58.0393 10.3315C59.2591 9.98317 60.3366 10.1322 61.0644 10.7462C61.7922 11.3601 62.1174 12.397 61.9778 13.6601C61.8287 15.0276 61.1646 16.471 60.1062 17.7192C59.4755 18.4746 58.72 19.1164 57.8726 19.6166L56.7884 20.2428L55.7394 20.3878C55.0766 20.4786 54.1307 20.4556 53.3879 19.8267C52.6452 19.1978 52.4663 18.2708 52.446 17.6027L52.4148 16.5455L52.8567 15.3651ZM50.7397 11.7058C50.8129 11.8779 50.882 12.0514 50.9457 12.2316C51.2833 13.1542 51.4598 14.1279 51.4675 15.1103V16.3626L51.0609 17.3479C50.8088 17.9672 50.3155 18.775 49.4007 19.1098C48.9061 19.28 48.3714 19.2956 47.8678 19.1545C47.5671 19.0752 47.2768 18.9606 47.0031 18.8129L46.3052 18.4321L46.0693 18.3074L45.2738 17.3479C44.6542 16.5859 44.1701 15.7231 43.8426 14.7972C43.192 12.9879 43.1812 11.1379 43.6867 9.79342C44.0282 8.88537 44.6043 8.20772 45.3795 7.92853C47.1902 7.27121 49.5497 8.98431 50.7316 11.7139L50.7397 11.7058ZM22.4803 11.2978C28.4721 8.42322 34.4707 5.55676 40.4462 2.65506C42.3802 1.71584 44.3237 1.16423 46.4569 1.85408C48.7786 2.60763 49.8289 5.16508 48.7081 7.11942C47.4707 6.37265 46.1195 6.13547 44.8943 6.5773C43.9713 6.91206 43.234 7.58971 42.7272 8.48149C42.6445 8.54113 42.5645 8.60347 42.4832 8.66988C42.3477 8.77559 42.2121 8.87453 42.0766 8.97482C41.6036 9.30823 41.155 9.85441 40.6495 9.92353C40.0721 9.99536 39.8648 9.19031 39.45 8.81219C37.5323 7.0503 35.1131 6.87953 33.0056 8.42728C27.3676 12.5673 21.7417 16.7154 16.1281 20.8716C15.5304 21.3162 15.2336 21.4531 14.7728 20.6697C13.9596 19.2629 12.6368 18.4036 11.1528 17.7951C10.8112 17.6596 10.467 17.524 9.91401 17.3086C14.2469 15.239 18.3657 13.2711 22.4803 11.2978ZM38.4173 11.6908C31.1791 16.981 23.9572 22.2952 16.7515 27.6332C15.2155 28.7654 13.675 29.8912 12.1299 31.0106C11.0444 31.7984 10.2353 32.9088 9.81779 34.1834C9.19164 32.267 8.00033 31.0147 6.13137 30.4346C6.11918 30.0646 6.43496 29.9955 6.63148 29.8519C15.6551 23.191 24.6823 16.5347 33.7131 9.88287C35.5183 8.55468 37.1013 8.70241 38.5501 10.2095C39.1261 10.8085 39.1587 11.1501 38.4173 11.6908ZM3.26356 23.7245C3.20799 20.7361 5.04036 18.8157 8.03286 18.8129C10.2745 18.8129 12.1313 19.6749 13.4771 21.5154C13.8945 22.0887 13.9514 22.5685 13.2169 23.0157C12.382 23.5253 11.6285 24.165 10.7299 24.8264C10.3328 22.6579 9.37461 21.6862 7.3918 21.3677C7.07873 21.3189 6.53932 21.0627 6.59218 21.7241C6.6247 22.1307 6.18559 22.7298 7.05298 22.9358C8.79454 23.3586 9.27431 24.0092 8.92329 25.2235C8.5289 26.5869 7.21155 27.2971 5.78306 26.9136C4.24209 26.5002 3.29338 25.3008 3.26356 23.7245ZM10.9779 43.3506C9.22552 43.5173 7.50836 43.3344 5.88335 42.5768C3.03723 41.2526 1.1886 37.8332 1.64669 34.7242C1.87709 33.1818 3.27305 31.9417 4.82622 31.9051C5.59972 31.8964 6.35251 32.155 6.9573 32.6373C7.56208 33.1196 7.98176 33.796 8.14535 34.552C8.35406 35.5699 7.94612 36.4196 7.09499 36.7368C6.24386 37.0539 5.41578 36.6826 4.98886 35.6634C4.64054 34.8366 3.97645 35.1741 3.53055 35.2744C3.00876 35.391 3.38554 35.9182 3.48583 36.215C3.90597 37.4483 4.79776 38.2059 6.07716 38.4051C7.35656 38.6044 8.41776 38.0975 9.19435 37.0498C9.41391 36.753 9.56706 36.4074 9.82863 35.9426C10.0523 36.3492 10.1918 36.6487 10.3707 36.9238C11.0931 38.008 12.1191 38.5502 13.4148 38.4214C14.7484 38.2859 15.6849 37.5296 16.1457 36.2665C16.2582 35.9548 16.6688 35.4059 16.0698 35.2649C15.628 35.1633 14.9652 34.8583 14.6372 35.7054C14.2632 36.6677 13.4175 37.0322 12.6043 36.7557C11.7911 36.4793 11.3371 35.681 11.478 34.7065C11.478 34.674 11.4862 34.6388 11.4916 34.6062C11.6551 33.8148 12.0962 33.1079 12.7352 32.6131C13.3741 32.1183 14.1689 31.8682 14.9761 31.9078C15.7644 31.9737 16.5037 32.3174 17.0622 32.8776C17.6207 33.4379 17.9621 34.1782 18.0255 34.9668C18.3575 39.5748 15.5683 42.9169 10.9779 43.3506ZM19.6518 38.4905C19.5189 38.5659 19.3808 38.6315 19.2385 38.687C19.3537 37.9457 19.4621 37.3074 19.5502 36.6636C19.7277 35.3598 19.7223 34.0668 19.0379 32.8891C18.7844 32.4527 18.9024 32.2304 19.271 31.9743C19.9121 31.5256 20.5057 31.0011 21.1684 30.5824C21.7309 30.2218 21.6617 29.9345 21.3039 29.4534C20.9461 28.9723 20.6819 28.8096 20.2034 29.2731C19.9107 29.5564 19.5258 29.7421 19.2331 30.0226C18.2274 30.9713 17.2001 31.5528 15.9586 30.2191C18.2992 28.4911 20.6778 26.7306 23.0604 24.9741C29.3499 20.3417 35.6435 15.7052 41.9411 11.0647C41.8081 12.4919 41.9966 13.9308 42.4927 15.2756C42.6141 15.6122 42.7525 15.9424 42.9074 16.265C42.5636 16.1657 42.2148 16.0842 41.8625 16.021C39.9732 15.6808 38.0975 15.8611 36.5768 16.5293C34.9627 17.2394 33.934 18.4118 33.6778 19.8335C33.4217 21.2552 33.976 22.7135 35.2391 23.9441C35.8221 24.4994 36.4839 24.9657 37.203 25.3279C31.3553 29.7208 25.5049 34.1084 19.6518 38.4905ZM40.4828 24.8874L40.27 24.8522C39.667 24.7454 39.0766 24.5769 38.5081 24.3493C37.667 24.0211 36.8968 23.5343 36.2393 22.9154C35.3286 22.0291 34.9193 21.018 35.0901 20.0869C35.2608 19.1558 35.9927 18.3521 37.1555 17.8385C38.0561 17.4602 39.0249 17.2715 40.0017 17.2842C40.5403 17.2852 41.0779 17.3346 41.6077 17.4319C42.5752 17.6014 43.5066 17.9351 44.3617 18.4185L45.4459 19.0447L45.4852 19.0962L46.0964 19.8823C46.2273 20.0498 46.3447 20.2274 46.4475 20.4135C46.7637 20.9508 46.8839 21.5811 46.7876 22.1971C46.6155 23.154 45.8999 23.7733 45.3321 24.1257L44.4308 24.6827L43.1947 24.8887C42.2964 25.0319 41.381 25.0314 40.4828 24.8874ZM48.6918 30.4617C48.3417 31.379 47.8376 32.2297 47.201 32.9772C45.1206 35.437 42.0509 36.3979 40.4841 35.0806C39.7563 34.4639 39.4338 33.4298 39.5707 32.1667C39.7198 30.7992 40.3839 29.3585 41.4437 28.1008C42.0736 27.3452 42.8286 26.7034 43.6759 26.2034L44.7601 25.5772L45.8078 25.4322C46.4719 25.3414 47.4179 25.3645 48.1606 25.9933C48.9033 26.6222 49.0822 27.5492 49.1025 28.2187L49.1337 29.2745L48.6918 30.4617ZM49.0835 24.905C48.6185 24.5123 48.068 24.2339 47.4761 24.0918C47.8428 23.6072 48.0902 23.0429 48.1982 22.4449C48.3063 21.8468 48.2721 21.2317 48.0982 20.6494C48.7019 20.7232 49.3145 20.6544 49.8867 20.4485C50.4589 20.2425 50.9748 19.9051 51.3929 19.4635C51.6285 20.0242 51.9932 20.5213 52.4575 20.9142C52.9217 21.3071 53.4723 21.5846 54.0642 21.7241C53.6972 22.2091 53.4497 22.7739 53.3418 23.3725C53.234 23.9711 53.2688 24.5867 53.4435 25.1693C52.8402 25.0936 52.2275 25.1612 51.6553 25.3668C51.083 25.5724 50.5673 25.9101 50.1501 26.3525C49.9111 25.7956 49.546 25.302 49.0835 24.9104V24.905ZM58.0285 35.4926C57.7222 36.7286 57.0581 37.5865 56.1609 37.9078C55.2637 38.229 54.2052 37.9931 53.1792 37.2423C52.0692 36.4291 51.1544 35.1307 50.6042 33.5925C50.2662 32.669 50.0893 31.6944 50.081 30.7111V29.4588L50.4808 28.4803C50.7329 27.8596 51.2262 27.0518 52.1411 26.7184C53.0559 26.385 53.9504 26.6981 54.54 27.0152L55.4724 27.5167L56.268 28.483C56.8871 29.2461 57.3707 30.1098 57.6978 31.0364C58.2521 32.5801 58.3714 34.1631 58.0353 35.498L58.0285 35.4926ZM66.4422 25.7345C66.0803 27.7457 63.096 28.9628 59.9246 28.3895C58.957 28.2202 58.0255 27.8865 57.1706 27.4028L56.0863 26.7767L55.4372 25.9418C55.0306 25.4132 54.5738 24.5865 54.7446 23.6243C54.8292 23.1826 55.0298 22.7714 55.326 22.4329C55.579 22.1439 55.8747 21.8952 56.2029 21.6957L57.1015 21.1413L58.3375 20.9326C59.3079 20.7784 60.2974 20.7908 61.2636 20.9692C64.4418 21.5493 66.8163 23.7313 66.449 25.7426L66.4422 25.7345Z" fill="#03D6D0"/>
</g>
</g>
</g>
<defs>
<clipPath id="clip0_303_293">
<rect width="67.9195" height="45" fill="white"/>
</clipPath>
</defs>
</svg>
