<svg width="199" height="199" viewBox="0 0 199 199" fill="none" xmlns="http://www.w3.org/2000/svg">
<g id="Layer_1">
<g id="Group">
<path id="Vector" d="M99.5 193.196C151.247 193.196 193.196 151.247 193.196 99.5C193.196 47.7532 151.247 5.80417 99.5 5.80417C47.7533 5.80417 5.8042 47.7532 5.8042 99.5C5.8042 151.247 47.7533 193.196 99.5 193.196Z" stroke="#03D6D0" stroke-width="6" stroke-miterlimit="10" stroke-linecap="round" stroke-linejoin="round"/>
<path id="Vector_2" d="M99.5001 123.546C70.4792 123.546 45.6042 140.129 33.1667 165.004C49.7501 182.417 73.7959 192.367 99.5001 192.367C125.204 192.367 149.25 181.588 165.833 165.004C153.396 140.958 128.521 123.546 99.5001 123.546Z" stroke="#03D6D0" stroke-width="6" stroke-miterlimit="10" stroke-linecap="round" stroke-linejoin="round"/>
<path id="Vector_3" d="M99.5002 101.988C115.986 101.988 129.35 88.6232 129.35 72.1375C129.35 55.6518 115.986 42.2875 99.5002 42.2875C83.0145 42.2875 69.6501 55.6518 69.6501 72.1375C69.6501 88.6232 83.0145 101.988 99.5002 101.988Z" stroke="#03D6D0" stroke-width="6" stroke-miterlimit="10" stroke-linecap="round" stroke-linejoin="round"/>
</g>
<g id="Group 75">
<circle id="Ellipse 13" cx="165.5" cy="164.5" r="27.5" fill="#03D6D0"/>
<g id="Group 74">
<path id="Vector_4" d="M184.672 152.4L163.806 176.248L154.863 167.305M154.863 176.248L145.92 167.305M175.729 152.4L163.06 166.932" stroke="white" stroke-width="4" stroke-linecap="round" stroke-linejoin="round"/>
</g>
</g>
</g>
</svg>
