<svg width="69" height="61" viewBox="0 0 69 61" fill="none" xmlns="http://www.w3.org/2000/svg">
<g id="pineapple 1" clip-path="url(#clip0_276_1146)">
<g id="Capa 2">
<g id="Capa 1">
<path id="Vector" d="M44.1243 60.932C39.1196 61.2534 34.0836 59.5984 29.0049 58.0628C24.0826 56.5756 19.2542 54.9576 14.9461 52.0401C8.81534 47.8913 3.98122 42.5709 0.6343 35.9481C-0.548638 33.6107 -0.0680694 31.4325 1.9907 29.7946C13.657 20.4771 25.3262 11.1605 36.9983 1.84483C37.4773 1.4254 38.0604 1.14278 38.6864 1.02669C39.3124 0.910595 39.9581 0.965322 40.5556 1.18511C44.7442 2.51592 48.9442 3.82682 53.1556 5.08653C54.5205 5.49601 55.2826 6.33772 55.6864 7.66568C59.6675 20.7463 63.6485 33.8268 67.6296 46.9074C68.2239 48.8553 68.3632 50.8884 68.3803 52.9045C68.3803 53.8344 67.8798 54.4799 67.112 55.0145C62.9604 57.915 58.2969 59.4335 53.3575 60.2638C50.308 60.779 47.2163 61.0027 44.1243 60.932ZM34.4078 42.8922H34.2343C34.2343 41.2401 34.2343 39.588 34.2343 37.9358C34.2343 37.1709 34.6552 36.7131 35.4457 36.679C35.6095 36.6567 35.7762 36.6686 35.9352 36.7136C36.0943 36.7587 36.2424 36.8361 36.3702 36.941C36.498 37.0459 36.6028 37.1759 36.6781 37.3231C36.7534 37.4703 36.7975 37.6315 36.8078 37.7965C36.8449 38.104 36.8591 38.4139 36.8504 38.7235C36.8874 41.5671 36.9556 44.4363 36.9386 47.2941C36.9386 48.1955 37.2229 48.3889 38.076 48.2752C42.4841 47.7071 46.7715 46.431 50.7727 44.496C51.495 44.1462 51.6599 43.8221 51.4096 43.0088C47.4684 30.1633 43.549 17.3093 39.6514 4.44672C39.3926 3.59364 39.2021 3.3889 38.4115 4.02871C33.9158 7.66284 29.3831 11.2515 24.8618 14.8572C18.8087 19.6894 12.7509 24.515 6.68833 29.3339C6.17932 29.7377 6.11961 30.0249 6.44378 30.5823C7.31676 32.0695 8.24093 33.514 9.23335 34.9216C9.59165 35.4278 9.80207 35.4136 10.2172 34.9756C11.6106 33.4998 13.0409 32.0581 14.4826 30.6136C15.2874 29.8003 15.9044 29.7178 16.5272 30.3008C17.1499 30.8837 17.1158 31.6117 16.3139 32.4363C14.8495 33.9406 13.3907 35.4562 11.8978 36.932C11.4599 37.3614 11.4258 37.6173 11.8665 38.0922C13.7558 40.0977 15.8262 41.9244 18.0514 43.5491C18.7793 44.0894 19.0836 43.9159 19.5158 43.2192C22.1291 39.0107 24.7822 34.8278 27.4267 30.6363C27.5803 30.3679 27.7563 30.113 27.9528 29.8742C28.4476 29.3311 29.0447 29.3055 29.6305 29.6837C30.2163 30.0619 30.4153 30.6192 30.0599 31.2818C29.912 31.5662 29.7443 31.8135 29.5793 32.0752C26.9348 36.2666 24.3044 40.4638 21.6371 44.6382C21.2419 45.2581 21.222 45.514 21.9215 45.9349C25.6011 48.1045 29.6504 48.4401 33.7736 48.5169C34.4021 48.5169 34.4049 48.2041 34.4021 47.7463C34.3879 46.1282 34.4078 44.5102 34.4078 42.8922ZM64.7405 46.8306C64.8855 46.4695 64.7405 46.2249 64.658 45.9775C60.8665 33.5263 57.0751 21.0733 53.2836 8.61829C53.2195 8.3412 53.0789 8.08768 52.8778 7.88658C52.6768 7.68549 52.4232 7.5449 52.1461 7.48085C49.186 6.5908 46.24 5.65526 43.2826 4.75383C43.0495 4.68559 42.8021 4.46947 42.5262 4.65431C42.5119 4.75903 42.5119 4.86523 42.5262 4.96995C46.3879 17.6524 50.2523 30.3349 54.1196 43.0173C54.2078 43.3017 54.2788 43.6145 54.64 43.7254C57.9935 44.751 61.3566 45.7861 64.7291 46.8306H64.7405ZM32.5253 54.642C33.8592 54.7086 35.1964 54.6543 36.5205 54.4799C41.8028 53.9504 46.9234 52.3583 51.5746 49.7993C52.4277 49.3301 52.8457 48.6619 52.7831 47.7121C52.712 46.6316 52.4987 46.5235 51.5575 46.9813C45.9449 49.7268 39.7714 51.1315 33.5234 51.0846C30.1111 51.0505 26.6988 50.9026 23.4997 49.5292C17.8537 47.0925 12.8575 43.3663 8.91202 38.6496C7.18798 36.6377 5.67129 34.4569 4.38501 32.1406C4.10065 31.6259 3.88738 31.5207 3.4125 31.9444C2.55942 32.7064 2.35752 33.5965 2.91771 34.7226C5.03871 39.0235 7.96338 42.8786 11.5338 46.0799C17.494 51.4287 24.1395 55.1737 32.5253 54.642ZM35.676 57.3121C44.9803 59.2486 54.0172 58.5832 63.04 54.6079C62.548 54.4287 62.366 54.3462 62.1727 54.2922C59.4656 53.5301 56.7499 52.788 54.0485 51.9974C53.8091 51.9178 53.555 51.8918 53.3044 51.9212C53.0538 51.9507 52.8127 52.035 52.5983 52.168C49.5514 53.8344 46.3056 55.1081 42.9386 55.9586C40.5499 56.5756 38.1044 56.9112 35.676 57.3121ZM55.2542 46.6145C55.3651 47.4676 55.4959 48.1614 55.2741 48.8211C55.0523 49.4809 55.294 49.6941 55.9224 49.8619C58.7092 50.6098 61.4817 51.4145 64.2627 52.1908C65.858 52.6372 65.8751 52.6287 65.6845 50.9311C65.6362 50.4335 65.8182 49.859 65.0277 49.6259C61.8144 48.6733 58.6068 47.6524 55.2542 46.6145Z" fill="black"/>
</g>
</g>
</g>
<defs>
<clipPath id="clip0_276_1146">
<rect width="68.3915" height="60" fill="white" transform="translate(0 0.97168)"/>
</clipPath>
</defs>
</svg>
