<svg width="81" height="81" viewBox="0 0 81 81" fill="none" xmlns="http://www.w3.org/2000/svg">
<g id="9025063_sun_horizon_light_icon 1">
<path id="Vector" d="M29.3626 18.668L26.9263 12.8145" stroke="#03D6D0" stroke-width="3" stroke-linecap="round" stroke-linejoin="round"/>
<path id="Vector_2" d="M13.6055 34.4251L7.75195 31.9888" stroke="#03D6D0" stroke-width="3" stroke-linecap="round" stroke-linejoin="round"/>
<path id="Vector_3" d="M67.3945 34.4251L73.248 31.9888" stroke="#03D6D0" stroke-width="3" stroke-linecap="round" stroke-linejoin="round"/>
<path id="Vector_4" d="M51.6377 18.668L54.074 12.8145" stroke="#03D6D0" stroke-width="3" stroke-linecap="round" stroke-linejoin="round"/>
<path id="Vector_5" d="M75.9375 50.625H5.0625" stroke="#03D6D0" stroke-width="3" stroke-linecap="round" stroke-linejoin="round"/>
<path id="Vector_6" d="M65.8125 63.2812H15.1875" stroke="#03D6D0" stroke-width="3" stroke-linecap="round" stroke-linejoin="round"/>
<path id="Vector_7" d="M22.2117 50.6249C21.4262 47.8045 21.3036 44.8407 21.8536 41.965C22.4036 39.0894 23.6112 36.38 25.382 34.0485C27.1529 31.717 29.439 29.8267 32.0616 28.5254C34.6842 27.224 37.5723 26.5469 40.5 26.5469C43.4277 26.5469 46.3158 27.224 48.9384 28.5254C51.561 29.8267 53.8471 31.717 55.618 34.0485C57.3888 36.38 58.5964 39.0894 59.1464 41.965C59.6964 44.8407 59.5738 47.8045 58.7883 50.6249" stroke="#03D6D0" stroke-width="3" stroke-linecap="round" stroke-linejoin="round"/>
</g>
</svg>
