<svg width="60" height="60" viewBox="0 0 60 60" fill="none" xmlns="http://www.w3.org/2000/svg">
<g id="Group 93">
<g id="Capa 2">
<g id="Capa 1">
<path id="Vector" d="M56.5234 18.1162C54.0163 16.5951 51.8728 14.8202 50.2466 12.3777C49.4853 11.2332 48.3246 10.9099 46.9458 11.188C45.8886 11.4013 44.9123 11.8556 43.8567 12.1352C43.8567 11.0813 43.8939 10.0888 43.847 9.1011C43.7694 7.45553 43.0711 6.20599 41.3835 5.74853C38.7179 5.02597 36.5034 3.61802 34.4311 1.7817C31.683 -0.643009 28.1834 -0.537938 25.3012 1.7623C24.7766 2.174 24.2732 2.61209 23.793 3.07488C22.1766 4.65256 20.0751 5.1472 17.9091 5.87461C17.9091 5.06638 17.9091 4.40524 17.9091 3.7441C17.9042 1.45841 16.7953 0.0795548 14.9364 0.0569242C13.0322 0.0342936 11.8942 1.42446 11.8877 3.79744C11.8877 5.62729 11.8651 7.45876 11.8877 9.29346C11.9039 10.3038 12.0348 11.2591 10.5945 11.4595C9.99643 11.542 9.58746 12.1756 9.24477 12.6994C7.83359 14.8574 5.99404 16.4916 3.71805 17.7848C0.262026 19.7617 -0.896985 23.2679 0.716255 26.8985C1.77505 29.2828 2.33273 31.6703 2.20341 34.2615C2.11451 36.059 2.9971 37.2649 4.70733 37.8436C5.6174 38.1524 6.53233 38.4433 7.54424 38.7731C6.43696 39.7979 5.42504 40.7129 4.63459 41.8589C3.18946 43.9604 3.1539 45.0353 4.69278 47.0414C6.05482 48.778 6.98901 50.8108 7.41977 52.9754C8.25711 57.1783 11.4949 59.4413 15.7155 58.8901C17.7793 58.6034 19.8814 58.797 21.8581 59.4559C24.9294 60.471 25.9753 60.0491 27.8035 57.3189C28.6764 56.016 29.2195 54.5515 29.8904 52.8849C30.6453 54.8958 31.3646 56.6481 32.5721 58.1465C34.0867 60.0265 35.0631 60.3918 37.3391 59.6224C39.5826 58.8453 41.9763 58.6017 44.3303 58.9111C48.2293 59.4106 51.4428 57.1831 52.2672 53.31C52.7893 50.8352 53.7301 48.6594 55.3111 46.7197C56.4587 45.3101 56.4329 43.8666 55.4581 42.3552C54.5949 41.0119 53.4634 39.9305 52.1169 38.6745C53.2601 38.488 54.3763 38.1623 55.4404 37.7046C56.8047 37.1162 57.6081 36.0881 57.5418 34.6107C57.4076 31.7156 58.114 29.071 59.2294 26.4055C60.5565 23.2178 59.4702 19.9056 56.5234 18.1162ZM20.3144 7.24377C22.3382 6.60453 24.1949 5.52407 25.7506 4.08033C28.6408 1.37758 31.085 1.35495 33.9413 4.02698C35.6596 5.63214 37.622 6.68285 39.8398 7.36177C41.7278 7.94208 41.8765 8.19264 41.8474 10.1987C41.765 12.1385 41.4821 13.8471 39.6717 15.1742C37.4619 16.7987 35.8455 19.078 34.2856 21.341C33.5097 22.4726 32.8744 22.5502 31.7623 21.6999C30.5644 20.7866 29.1759 20.7947 27.9732 21.7258C26.9306 22.534 26.2549 22.4532 25.5324 21.4025C23.6589 18.6884 21.5817 16.157 18.9485 14.1364C18.3019 13.6402 18.3019 12.9257 18.1532 12.25C18.0505 11.7654 17.9803 11.2745 17.943 10.7806C17.762 8.2476 17.901 8.04069 20.3209 7.24377H20.3144ZM23.8561 22.6843C24.3944 23.5297 23.5215 24.5514 23.064 25.2998C22.634 26.0029 21.9745 25.2432 21.4944 24.9054C18.0465 22.4807 16.5706 18.9891 16.0598 14.6343C19.4981 16.8343 21.8921 19.5839 23.8625 22.6843H23.8561ZM13.9083 3.28664C13.9083 2.61419 14.1944 2.11308 14.8992 2.11308C15.604 2.11308 15.8691 2.63197 15.8691 3.29795C15.8691 4.54156 15.8691 5.78517 15.8691 7.02878C15.8691 8.27184 15.8691 9.51653 15.8691 10.7596C15.8691 11.2753 15.806 11.8653 15.1368 11.8103C14.5533 11.7618 13.8873 11.6487 13.897 10.7483C13.9342 8.26215 13.9164 5.77439 13.9148 3.28664H13.9083ZM5.42989 35.9685C4.65075 35.6695 4.17713 35.1813 4.23047 34.2938C4.4099 31.368 3.76654 28.6507 2.53479 25.9739C1.37578 23.4522 2.18401 20.9903 4.61196 19.6292C7.18538 18.1889 9.29973 16.3574 10.8806 13.8939C11.4593 12.9919 12.211 13.1423 13.0726 13.3007C13.9342 13.4591 13.9067 14.0443 13.9746 14.6698C14.5274 19.6809 16.388 23.9775 20.746 26.8807C21.0919 27.1119 21.2746 27.3656 21.1889 27.8037C21.0741 28.3953 21.2455 28.9579 21.4863 29.4961C21.5865 29.7225 21.7741 29.9552 21.648 30.1977C21.0111 31.4068 21.0111 32.5626 21.7854 33.7281C22.1087 34.213 21.5736 34.255 21.3085 34.3601C17.8153 35.7535 14.2381 36.7848 10.441 36.8075C8.73121 36.8672 7.02694 36.5819 5.42989 35.9685ZM27.6419 52.9657C27.2965 54.0344 26.8192 55.0558 26.221 56.0063C24.8551 58.1255 24.6352 58.2435 22.3091 57.4612C20.1324 56.7362 17.8166 56.5291 15.5458 56.8566C12.3015 57.2914 10.0498 55.7849 9.43552 52.5939C8.96823 50.0499 7.85497 47.6687 6.20257 45.6787C5.49779 44.8236 5.55598 44.0816 6.16216 43.2087C7.40846 41.4306 9.04433 40.1164 10.892 39.0317C11.5806 38.6276 12.3581 38.8103 13.0904 38.7084C16.2998 38.2327 19.4377 37.3601 22.432 36.1108C23.0527 35.8554 23.4794 35.6743 23.9013 36.5149C24.4283 37.5656 25.4758 37.9471 26.6493 37.842C27.7809 37.7418 28.3741 38.3657 28.4857 39.3777C28.678 41.1121 28.7556 42.8579 28.8494 44.1479C28.7491 47.4358 28.5536 50.2501 27.6419 52.9657ZM29.8613 36.9837C29.3408 36.9659 29.053 36.6167 28.9156 36.135C28.615 35.0988 27.9846 34.921 27.1375 35.5014C26.6784 35.8149 26.2371 35.9556 25.7716 35.5983C25.3982 35.3122 25.3384 34.9033 25.4952 34.4668C25.9155 33.3175 25.4629 32.8083 24.2974 32.8164C23.8383 32.8164 23.4891 32.645 23.3049 32.2086C23.1271 31.8029 23.2935 31.4812 23.5489 31.1854C24.6724 29.8922 24.6805 29.8922 23.3534 28.544C24.1778 28.8512 24.8163 29.1001 25.4661 29.3264C25.951 29.4881 25.8573 29.8825 25.8977 30.2494C26.1175 32.27 27.4463 33.7248 29.3084 34.0029C30.199 34.1245 31.1048 33.9472 31.8839 33.4988C32.6629 33.0503 33.2711 32.3561 33.6131 31.5248C33.9363 30.7064 33.982 29.8046 33.7431 28.9578C33.5043 28.1109 32.9941 27.3659 32.2908 26.837C30.752 25.6845 28.8009 25.7427 27.2442 27.0553C26.8191 27.4157 26.5071 27.558 25.9332 27.3673C25.146 27.1054 25.7005 26.6495 25.6488 26.281C25.6091 26.0381 25.5508 25.7987 25.4742 25.5649C25.34 25.122 25.4079 24.7292 25.7878 24.4495C25.9528 24.3177 26.1577 24.2459 26.3689 24.2459C26.5801 24.2459 26.785 24.3177 26.95 24.4495C27.9458 25.1721 28.6166 25.0557 28.9609 23.7835C29.0115 23.5773 29.1326 23.3953 29.3032 23.269C29.4738 23.1426 29.6832 23.0799 29.8952 23.0917C30.1069 23.0882 30.3133 23.1577 30.4799 23.2883C30.6465 23.419 30.7631 23.603 30.8102 23.8094C31.169 25.1026 31.8657 25.1446 32.8388 24.4398C33.0084 24.3171 33.2134 24.2533 33.4226 24.258C33.6318 24.2628 33.8337 24.3359 33.9975 24.4661C34.1613 24.5964 34.278 24.7766 34.3297 24.9794C34.3814 25.1822 34.3653 25.3963 34.284 25.5891C33.854 26.7368 34.3098 27.2573 35.4688 27.2541C35.9974 27.2541 36.3644 27.4691 36.5066 27.967C36.6359 28.4212 36.4096 28.7752 36.0394 29.0306C35.0437 29.7273 35.1035 30.3998 36.0685 31.0771C36.4322 31.3325 36.6472 31.6913 36.4921 32.1504C36.3304 32.6499 35.9457 32.8342 35.4268 32.8293C34.3244 32.818 33.8815 33.332 34.2565 34.4118C34.4262 34.8968 34.3939 35.3284 33.9655 35.6355C33.5371 35.9426 33.1185 35.8408 32.6998 35.5498C31.8059 34.9275 31.1545 35.0649 30.836 36.1867C30.6986 36.6636 30.3899 37.0014 29.858 36.9837H29.8613ZM29.6414 28.1302C30.9346 28.1415 31.6992 28.7219 31.8447 29.792C31.9029 30.2926 31.7681 30.7966 31.4678 31.2014C31.1675 31.6063 30.7242 31.8814 30.2282 31.971C29.2034 32.1229 28.4646 31.6768 28.046 30.7214C27.8649 30.3076 27.8536 30.0748 28.4517 30.0102C29.9243 29.8453 30.0876 29.5366 29.6414 28.1302ZM52.4984 41.8315C54.5319 44.004 54.5707 44.274 52.833 46.6502C51.5544 48.3992 50.8237 50.3373 50.376 52.4485C49.6599 55.8334 47.5358 57.3076 44.1315 56.8437C41.6373 56.5042 39.2239 56.7337 36.9075 57.6778C35.6272 58.1999 34.8142 57.8135 34.0496 56.758C32.2569 54.2799 31.5214 51.4511 31.1739 48.4978C31.0122 47.1788 30.988 45.8436 30.8991 44.4889C31.0138 42.8498 31.0898 41.1865 31.2579 39.5328C31.3808 38.3172 32.0047 37.8258 33.2187 37.863C34.3987 37.897 35.3832 37.4896 35.9311 36.4389C36.2819 35.7681 36.6278 35.8214 37.2017 36.0542C40.7208 37.4815 44.3271 38.5759 48.1484 38.8232C48.4764 38.8608 48.7918 38.9712 49.0715 39.1465C50.3371 39.8712 51.4913 40.775 52.4984 41.8298V41.8315ZM56.8629 26.8661C55.8526 29.0468 55.4905 31.2824 55.5357 33.644C55.5697 35.4464 55.3741 35.6856 53.659 36.2191C52.2591 36.6555 50.8253 36.8754 49.8991 36.822C45.5492 36.7832 41.9784 35.7163 38.4658 34.386C37.8677 34.1613 37.7642 33.901 38.157 33.4161C38.215 33.3556 38.2572 33.2818 38.2799 33.2011C38.6032 31.132 38.4076 29.0532 38.3138 26.9825C38.2928 26.5186 37.8741 26.0417 37.4215 25.8316C36.6683 25.4841 36.5276 24.7954 36.1574 24.1747C35.5238 23.1192 35.9328 22.4629 36.5325 21.6643C38.4334 19.1168 40.4847 16.7276 43.1778 14.9721C43.6274 14.6726 44.0937 14.399 44.5744 14.1526C47.6457 12.625 47.9238 12.68 49.9702 15.373C51.1344 16.894 52.6026 18.1558 54.2813 19.078C57.7487 21.0274 58.5165 23.2808 56.8612 26.8645L56.8629 26.8661Z" fill="black"/>
</g>
</g>
</g>
</svg>
