<svg width="24" height="24" viewBox="0 0 24 24" fill="none" xmlns="http://www.w3.org/2000/svg">
<g id="Layer_1">
<path id="Vector" d="M15.5625 4.3125C16.6565 4.3125 17.7057 4.7471 18.4793 5.52068C19.2529 6.29427 19.6875 7.34348 19.6875 8.4375V15.5625C19.6875 16.6565 19.2529 17.7057 18.4793 18.4793C17.7057 19.2529 16.6565 19.6875 15.5625 19.6875H8.4375C7.34348 19.6875 6.29427 19.2529 5.52068 18.4793C4.7471 17.7057 4.3125 16.6565 4.3125 15.5625V8.4375C4.3125 7.34348 4.7471 6.29427 5.52068 5.52068C6.29427 4.7471 7.34348 4.3125 8.4375 4.3125H15.5625ZM15.5625 2.8125H8.4375C6.94703 2.81695 5.51887 3.41101 4.46494 4.46494C3.41101 5.51887 2.81695 6.94703 2.8125 8.4375V15.5625C2.81695 17.053 3.41101 18.4811 4.46494 19.5351C5.51887 20.589 6.94703 21.183 8.4375 21.1875H15.5625C17.053 21.183 18.4811 20.589 19.5351 19.5351C20.589 18.4811 21.183 17.053 21.1875 15.5625V8.4375C21.183 6.94703 20.589 5.51887 19.5351 4.46494C18.4811 3.41101 17.053 2.81695 15.5625 2.8125Z" fill="#03D6D0"/>
<path id="Vector_2" d="M16.9012 6C16.6888 6 16.481 6.06301 16.3044 6.18106C16.1277 6.29912 15.99 6.46691 15.9087 6.66323C15.8273 6.85955 15.8061 7.07557 15.8475 7.28397C15.889 7.49238 15.9913 7.68382 16.1416 7.83407C16.2918 7.98433 16.4832 8.08665 16.6916 8.12811C16.9001 8.16956 17.1161 8.14829 17.3124 8.06697C17.5087 7.98565 17.6765 7.84795 17.7946 7.67127C17.9126 7.49459 17.9756 7.28687 17.9756 7.07437C17.9756 6.93329 17.9478 6.79358 17.8938 6.66323C17.8398 6.53288 17.7607 6.41444 17.6609 6.31468C17.5612 6.21491 17.4427 6.13577 17.3124 6.08178C17.182 6.02779 17.0423 6 16.9012 6Z" fill="#03D6D0"/>
<path id="Vector_3" d="M12.0506 8.71311C12.7064 8.71274 13.3476 8.9069 13.893 9.27101C14.4385 9.63512 14.8637 10.1528 15.1148 10.7587C15.3659 11.3645 15.4317 12.0312 15.3039 12.6744C15.176 13.3176 14.8603 13.9084 14.3966 14.3722C13.9328 14.8359 13.342 15.1517 12.6988 15.2795C12.0555 15.4074 11.3888 15.3416 10.783 15.0904C10.1772 14.8393 9.65951 14.4141 9.29539 13.8687C8.93128 13.3232 8.73713 12.682 8.7375 12.0262C8.73898 11.148 9.08852 10.3062 9.70953 9.68515C10.3305 9.06414 11.1724 8.7146 12.0506 8.71311ZM12.0506 7.21311C11.0986 7.21497 10.1685 7.49898 9.37792 8.02927C8.58729 8.55956 7.9716 9.31232 7.60865 10.1924C7.24571 11.0725 7.1518 12.0404 7.3388 12.9739C7.5258 13.9073 7.98531 14.7644 8.65925 15.4368C9.3332 16.1092 10.1913 16.5667 11.1252 16.7515C12.0591 16.9363 13.0268 16.8401 13.9061 16.4752C14.7853 16.1102 15.5366 15.4927 16.0651 14.7008C16.5935 13.909 16.8754 12.9782 16.875 12.0262C16.8748 11.3933 16.7497 10.7666 16.507 10.182C16.2644 9.59745 15.9088 9.06645 15.4607 8.61941C15.0127 8.17237 14.4808 7.81807 13.8957 7.57676C13.3105 7.33545 12.6836 7.21188 12.0506 7.21311Z" fill="#03D6D0"/>
</g>
</svg>
