<svg width="200" height="42" viewBox="0 0 200 42" fill="none" xmlns="http://www.w3.org/2000/svg">
<g id="logo_horizontal 1" clip-path="url(#clip0_4_15)">
<g id="Capa 2">
<g id="Capa 1">
<path id="Vector" d="M19.8283 35.9349L4.12239 20.2566C2.17753 18.3083 1.00198 15.723 0.812145 12.9767C0.622316 10.2304 1.43099 7.50795 3.08929 5.3106C4.74759 3.11326 7.14387 1.58895 9.83695 1.01831C12.53 0.447677 15.3386 0.869136 17.7456 2.20509L23.8532 5.6105C24.1643 5.78289 24.5142 5.87334 24.8699 5.87334C25.2257 5.87334 25.5756 5.78289 25.8867 5.6105L31.8675 2.25812C33.8095 1.16897 36.0277 0.671935 38.2488 0.828292C40.4698 0.984648 42.5965 1.78756 44.3668 3.13804C46.137 4.48852 47.4733 6.32753 48.2109 8.42832C48.9486 10.5291 49.0553 12.7999 48.518 14.9606C48.7702 15.1871 48.9657 15.4695 49.089 15.7852C49.7386 13.6695 49.8002 11.4168 49.2672 9.26877C48.7341 7.12069 47.6266 5.15817 46.0633 3.59154C42.2205 -0.251167 36.2259 -1.07581 31.4894 1.5795L25.5086 4.93188C25.3127 5.04041 25.0924 5.09736 24.8684 5.09736C24.6444 5.09736 24.4241 5.04041 24.2282 4.93188L18.1221 1.53031C13.3856 -1.10886 7.40329 -0.272686 3.56519 3.56618C2.43388 4.69839 1.53673 6.0424 0.924982 7.52143C0.313235 9.00046 -0.00111888 10.5855 -0.000119696 12.1861C0.000879488 13.7866 0.317212 15.3713 0.930806 16.8496C1.5444 18.3278 2.44323 19.6707 3.57595 20.8015L19.2788 36.4798C19.3561 36.3464 19.4533 36.2256 19.567 36.1216C19.6471 36.05 19.7344 35.9869 19.8275 35.9333" fill="#FFC200"/>
<path id="Vector_2" d="M48.2329 16.5022C48.2087 16.1971 48.0679 15.9131 47.8398 15.7091C47.6117 15.5051 47.3137 15.3969 47.0078 15.407C45.9319 15.4323 43.8568 15.9319 41.0816 18.6933C40.7288 19.0453 40.3799 19.4026 40.0556 19.7808L36.5825 23.8125L26.0297 24.0907C24.5974 24.1273 23.2043 24.566 22.0095 25.3565C22.0002 25.3627 21.9918 25.3696 21.9826 25.375C21.8944 25.4296 21.8245 25.5093 21.7818 25.6038C21.7391 25.6983 21.7255 25.8035 21.7428 25.9057C21.7602 26.008 21.8076 26.1028 21.879 26.178C21.9505 26.2532 22.0427 26.3054 22.144 26.328L32.4017 28.7435L24.9776 37.428C24.9776 37.428 21.7735 36.9093 20.683 36.7363C20.6077 36.7235 20.5306 36.7274 20.457 36.748C20.3835 36.7685 20.3155 36.8051 20.2578 36.855C20.2001 36.905 20.1542 36.9672 20.1234 37.037C20.0926 37.1068 20.0776 37.1826 20.0796 37.2589C20.0863 37.3709 20.132 37.477 20.2088 37.5587L24.375 41.6404C24.483 41.7489 24.6277 41.8133 24.7806 41.8208C24.9336 41.8284 25.0838 41.7785 25.202 41.6811C25.2146 41.6707 25.2266 41.6597 25.2381 41.6481L44.5124 22.5183C45.0686 21.9674 45.5907 21.383 46.0756 20.7683C47.6196 18.8078 48.2959 17.4828 48.2329 16.5014" fill="#03D6D0"/>
<path id="Vector_3" d="M58.6528 13.1836H64.5683V29.406H74.9052V34.6182H58.6528V13.1836Z" fill="#03D6D0"/>
<path id="Vector_4" d="M99.5776 13.1567H106.194L111.043 26.6484L115.891 13.1567H122.386L113.726 34.6174H108.238L99.5776 13.1567Z" fill="#03D6D0"/>
<path id="Vector_5" d="M128.21 13.1836H125.801V34.6182H128.21V13.1836Z" fill="#03D6D0"/>
<path id="Vector_6" d="M147.723 26.7699L142.872 15.8243L137.992 26.7699H147.723ZM141.777 13.1836H144.033L153.761 34.6182H151.172L148.671 28.9456H137.051L134.52 34.6182H132.05L141.777 13.1836Z" fill="#03D6D0"/>
<path id="Vector_7" d="M163.666 34.6175C162.059 34.6175 160.727 34.2588 159.669 33.5415C158.618 32.8328 157.734 31.9036 157.078 30.8186L158.818 29.3161C159.466 30.3182 160.162 31.0799 160.905 31.6009C161.648 32.122 162.579 32.3813 163.699 32.3787C164.898 32.3787 165.895 31.9447 166.688 31.0768C167.482 30.2088 167.878 28.9259 167.877 27.2279V13.1836H170.286V27.198C170.286 28.4655 170.115 29.5692 169.773 30.5088C169.432 31.4485 168.96 32.2255 168.358 32.8398C167.144 34.0249 165.581 34.6175 163.67 34.6175" fill="#03D6D0"/>
<path id="Vector_8" d="M87.2818 28.6666C86.3396 28.6657 85.4187 28.3855 84.6358 27.8613C83.8528 27.3372 83.2428 26.5927 82.8828 25.7219C82.5229 24.8512 82.4292 23.8933 82.6135 22.9692C82.7979 22.0452 83.2521 21.1966 83.9187 20.5307C84.5853 19.8648 85.4343 19.4114 86.3585 19.2279C87.2827 19.0444 88.2405 19.1391 89.1109 19.4999C89.9813 19.8606 90.7253 20.4714 91.2486 21.2549C91.772 22.0384 92.0513 22.9594 92.0513 23.9017C92.0513 24.5278 91.9279 25.1478 91.6882 25.7262C91.4484 26.3046 91.0971 26.8301 90.6541 27.2726C90.2111 27.7152 89.6853 28.0661 89.1067 28.3052C88.528 28.5444 87.9079 28.6672 87.2818 28.6666ZM87.2818 13.1859C81.3556 13.1859 76.5514 17.9839 76.5514 23.9024C76.5514 29.821 81.3556 34.6205 87.2818 34.6205C93.208 34.6205 98.0122 29.8194 98.0122 23.9017C98.0122 17.9839 93.2088 13.1851 87.2818 13.1851" fill="#03D6D0"/>
<path id="Vector_9" d="M184.349 32.2357C182.701 32.2338 181.09 31.7432 179.721 30.826C178.351 29.9088 177.285 28.6062 176.655 27.0828C176.026 25.5594 175.862 23.8836 176.185 22.2673C176.508 20.6509 177.303 19.1666 178.469 18.0019C179.636 16.8372 181.121 16.0444 182.738 15.7238C184.355 15.4031 186.03 15.569 187.553 16.2004C189.075 16.8319 190.376 17.9005 191.292 19.2713C192.207 20.642 192.695 22.2534 192.695 23.9017C192.694 24.997 192.478 26.0815 192.058 27.0932C191.639 28.1049 191.024 29.024 190.249 29.798C189.474 30.5721 188.554 31.1859 187.542 31.6044C186.529 32.0229 185.445 32.238 184.349 32.2373M184.349 13.1851C178.423 13.1851 173.618 17.9831 173.618 23.9017C173.618 29.8202 178.423 34.6198 184.349 34.6198C190.276 34.6198 195.08 29.8194 195.08 23.9017C195.08 17.9839 190.276 13.1851 184.349 13.1851Z" fill="#03D6D0"/>
<path id="Vector_10" d="M199.812 33.1242C199.568 33.708 199.106 34.1737 198.524 34.4222C198.223 34.549 197.899 34.6144 197.573 34.6144C197.246 34.6144 196.922 34.549 196.621 34.4222C196.333 34.3013 196.072 34.1251 195.852 33.9035C195.634 33.6826 195.46 33.4216 195.34 33.1349C195.216 32.8382 195.152 32.5198 195.152 32.1981C195.152 31.8764 195.216 31.5579 195.34 31.2612C195.584 30.6772 196.046 30.2114 196.628 29.9632C196.929 29.8365 197.253 29.7713 197.58 29.7713C197.907 29.7713 198.231 29.8365 198.532 29.9632C198.819 30.0848 199.08 30.261 199.301 30.4819C199.519 30.7032 199.692 30.9641 199.812 31.2505C199.936 31.5473 200 31.8657 200 32.1873C200 32.5089 199.936 32.8273 199.812 33.1242ZM199.611 31.3304C199.504 31.0689 199.347 30.8305 199.15 30.6279C198.946 30.4203 198.702 30.2558 198.433 30.1444C198.164 30.033 197.876 29.9768 197.584 29.9793C197.283 29.9763 196.984 30.0365 196.708 30.1561C196.447 30.2706 196.21 30.4327 196.008 30.6341C195.81 30.8373 195.653 31.0775 195.547 31.3412C195.435 31.6136 195.378 31.9057 195.379 32.2004C195.377 32.7826 195.603 33.3426 196.009 33.7598C196.207 33.9627 196.443 34.1241 196.704 34.2347C196.98 34.3509 197.277 34.4107 197.576 34.4107C197.876 34.4107 198.172 34.3509 198.448 34.2347C198.711 34.1216 198.949 33.959 199.151 33.7559C199.349 33.553 199.506 33.313 199.612 33.0496C199.835 32.4994 199.835 31.8837 199.612 31.3335M198.494 32.1251C198.367 32.2489 198.207 32.3346 198.033 32.3725L198.802 33.3716H198.347L197.631 32.4325H196.995V33.3693H196.628V30.8869H197.737C197.979 30.8762 198.217 30.9468 198.414 31.0875C198.498 31.1512 198.566 31.2344 198.611 31.3299C198.657 31.4255 198.678 31.5306 198.674 31.6363C198.679 31.7257 198.665 31.8151 198.634 31.8991C198.603 31.9831 198.556 32.0599 198.494 32.1251ZM198.143 31.335C198.02 31.2527 197.872 31.2131 197.724 31.222H196.995V32.102H197.704C197.855 32.1086 198.003 32.0677 198.129 31.9852C198.179 31.9472 198.22 31.8983 198.249 31.8424C198.277 31.7864 198.293 31.7247 198.294 31.6619C198.295 31.5991 198.282 31.5368 198.256 31.4797C198.23 31.4225 198.191 31.372 198.143 31.3319" fill="#03D6D0"/>
</g>
</g>
</g>
<defs>
<clipPath id="clip0_4_15">
<rect width="200" height="41.8241" fill="white"/>
</clipPath>
</defs>
</svg>
