<svg width="331" height="69" viewBox="0 0 331 69" fill="none" xmlns="http://www.w3.org/2000/svg">
<g clip-path="url(#clip0_11_492)">
<path d="M33.2168 59.284L7.30202 33.4185C4.09301 30.2043 2.15334 25.9392 1.84012 21.4084C1.5269 16.8776 2.86122 12.3862 5.59741 8.7611C8.33361 5.13599 12.2875 2.62123 16.731 1.67982C21.1746 0.738404 25.8088 1.43371 29.7803 3.63773L39.8578 9.25587C40.3712 9.54028 40.9485 9.68949 41.5355 9.68949C42.1224 9.68949 42.6998 9.54028 43.2132 9.25587L53.0815 3.72522C56.2857 1.92837 59.9458 1.10838 63.6105 1.36633C67.2753 1.62428 70.7844 2.9489 73.7052 5.17688C76.6261 7.40486 78.831 10.4388 80.0481 13.9046C81.2652 17.3704 81.4414 21.1166 80.5547 24.6813C80.9709 25.055 81.2936 25.5209 81.4969 26.0418C82.5688 22.5513 82.6704 18.835 81.7909 15.2912C80.9114 11.7473 79.084 8.50962 76.5045 5.92505C70.164 -0.414526 60.2729 -1.775 52.4576 2.60565L42.5893 8.1363C42.266 8.31536 41.9025 8.4093 41.533 8.4093C41.1634 8.4093 40.7999 8.31536 40.4766 8.1363L30.4016 2.5245C22.5864 -1.82952 12.7155 -0.450028 6.38265 5.88321C4.51599 7.7511 3.03568 9.9684 2.0263 12.4085C1.01692 14.8485 0.498233 17.4635 0.499882 20.104C0.501531 22.7446 1.02348 25.3589 2.03591 27.7977C3.04834 30.2365 4.53141 32.4519 6.4004 34.3175L32.3101 60.183C32.4376 59.963 32.598 59.7637 32.7856 59.5921C32.9178 59.4739 33.0618 59.3698 33.2155 59.2815" fill="#FFC200"/>
<path d="M80.0844 27.2247C80.0445 26.7214 79.8122 26.2528 79.4358 25.9163C79.0593 25.5799 78.5677 25.4014 78.063 25.4179C76.2877 25.4598 72.8638 26.2839 68.2847 30.8395C67.7027 31.4202 67.127 32.0098 66.5918 32.6336L60.8613 39.2851L43.4491 39.7441C41.0859 39.8045 38.7872 40.5281 36.8157 41.8324C36.8005 41.8425 36.7865 41.8539 36.7713 41.8628C36.6258 41.9529 36.5105 42.0844 36.44 42.2403C36.3696 42.3963 36.3472 42.5697 36.3758 42.7384C36.4044 42.9072 36.4826 43.0635 36.6005 43.1876C36.7184 43.3117 36.8706 43.3978 37.0376 43.435L53.9629 47.4201L41.7131 61.7475C41.7131 61.7475 36.4264 60.8917 34.627 60.6064C34.5028 60.5852 34.3755 60.5917 34.2542 60.6256C34.1329 60.6595 34.0206 60.7198 33.9254 60.8022C33.8302 60.8847 33.7545 60.9872 33.7037 61.1024C33.6529 61.2177 33.6282 61.3427 33.6315 61.4686C33.6424 61.6533 33.7178 61.8283 33.8446 61.9631L40.7189 68.697C40.8971 68.8761 41.1358 68.9822 41.3881 68.9946C41.6405 69.0071 41.8884 68.9249 42.0834 68.7642C42.1042 68.7471 42.1241 68.7289 42.143 68.7097L73.9455 37.15C74.8634 36.2411 75.7248 35.277 76.5248 34.2629C79.0724 31.0285 80.1883 28.8426 80.0844 27.2234" fill="#03D6D0"/>
<path d="M97.2771 21.7498H107.038V48.513H124.093V57.112H97.2771V21.7498Z" fill="#03D6D0"/>
<path d="M164.803 21.7054H175.72L183.721 43.9637L191.72 21.7054H202.438L188.149 57.1107H179.092L164.803 21.7054Z" fill="#03D6D0"/>
<path d="M212.046 21.7498H208.072V57.112H212.046V21.7498Z" fill="#03D6D0"/>
<path d="M244.243 44.164L236.239 26.1064L228.188 44.164H244.243ZM234.432 21.7498H238.155L254.206 57.112H249.934L245.808 47.7535H226.634L222.458 57.112H218.383L234.432 21.7498Z" fill="#03D6D0"/>
<path d="M270.548 57.1107C267.897 57.1107 265.699 56.519 263.954 55.3356C262.22 54.1665 260.761 52.6335 259.679 50.8434L262.549 48.3646C263.619 50.018 264.767 51.2745 265.993 52.1342C267.219 52.9938 268.756 53.4215 270.604 53.4173C272.582 53.4173 274.226 52.7013 275.536 51.2694C276.845 49.8375 277.499 47.721 277.497 44.9197V21.7498H281.472V44.8703C281.472 46.9615 281.19 48.7822 280.626 50.3325C280.062 51.8827 279.284 53.1646 278.291 54.178C276.287 56.1332 273.708 57.1107 270.556 57.1107" fill="#03D6D0"/>
<path d="M144.515 47.2933C142.96 47.2918 141.441 46.8295 140.149 45.9648C138.857 45.1001 137.851 43.8718 137.257 42.4352C136.663 40.9987 136.508 39.4183 136.812 37.8939C137.117 36.3695 137.866 34.9695 138.966 33.8709C140.066 32.7723 141.467 32.0243 142.992 31.7216C144.516 31.4189 146.097 31.575 147.533 32.1702C148.969 32.7655 150.197 33.773 151.06 35.0656C151.924 36.3582 152.385 37.8778 152.385 39.4322C152.385 40.4652 152.181 41.488 151.786 42.4423C151.39 43.3965 150.81 44.2634 150.079 44.9935C149.348 45.7236 148.481 46.3025 147.526 46.6971C146.571 47.0917 145.548 47.2943 144.515 47.2933ZM144.515 21.7536C134.737 21.7536 126.81 29.6693 126.81 39.4335C126.81 49.1977 134.737 57.1158 144.515 57.1158C154.293 57.1158 162.22 49.1952 162.22 39.4322C162.22 29.6692 154.294 21.7524 144.515 21.7524" fill="#03D6D0"/>
<path d="M304.676 53.1815C301.957 53.1782 299.299 52.3689 297.04 50.8557C294.78 49.3425 293.02 47.1935 291.981 44.6803C290.943 42.167 290.673 39.4024 291.206 36.7358C291.738 34.0692 293.05 31.6204 294.974 29.699C296.899 27.7775 299.35 26.4696 302.017 25.9406C304.685 25.4116 307.45 25.6852 309.962 26.727C312.474 27.7687 314.621 29.5317 316.131 31.7931C317.641 34.0546 318.447 36.7129 318.447 39.4322C318.446 41.2392 318.089 43.0284 317.396 44.6974C316.704 46.3665 315.689 47.8828 314.41 49.1598C313.132 50.4368 311.614 51.4494 309.944 52.1399C308.274 52.8304 306.484 53.1852 304.676 53.184M304.676 21.7524C294.898 21.7524 286.97 29.668 286.97 39.4322C286.97 49.1964 294.898 57.1146 304.676 57.1146C314.455 57.1146 322.382 49.1952 322.382 39.4322C322.382 29.6693 314.455 21.7524 304.676 21.7524Z" fill="#03D6D0"/>
<path d="M330.191 54.6472C329.788 55.6104 329.025 56.3787 328.065 56.7887C327.568 56.9979 327.034 57.1057 326.495 57.1057C325.955 57.1057 325.421 56.9979 324.924 56.7887C324.45 56.5892 324.019 56.2984 323.656 55.9329C323.296 55.5685 323.009 55.138 322.812 54.6649C322.606 54.1755 322.501 53.6501 322.501 53.1194C322.501 52.5887 322.606 52.0633 322.812 51.5738C323.213 50.6103 323.975 49.8418 324.936 49.4323C325.433 49.2234 325.967 49.1158 326.507 49.1158C327.046 49.1158 327.58 49.2234 328.078 49.4323C328.552 49.633 328.983 49.9236 329.346 50.2881C329.706 50.6532 329.992 51.0835 330.191 51.556C330.395 52.0457 330.5 52.571 330.5 53.1016C330.5 53.6322 330.395 54.1575 330.191 54.6472ZM329.858 51.6879C329.681 51.2565 329.423 50.8631 329.097 50.529C328.761 50.1864 328.359 49.9151 327.915 49.7313C327.471 49.5474 326.995 49.4548 326.514 49.4589C326.017 49.4539 325.524 49.5532 325.067 49.7505C324.637 49.9394 324.246 50.2069 323.913 50.5391C323.586 50.8744 323.327 51.2707 323.153 51.7056C322.967 52.155 322.873 52.637 322.876 53.1232C322.872 54.0837 323.245 55.0076 323.915 55.6958C324.241 56.0305 324.632 56.2969 325.062 56.4793C325.518 56.6709 326.007 56.7697 326.501 56.7697C326.995 56.7697 327.484 56.6709 327.94 56.4793C328.373 56.2927 328.767 56.0245 329.099 55.6894C329.426 55.3546 329.685 54.9587 329.86 54.5242C330.228 53.6164 330.228 52.6007 329.86 51.6929M328.016 52.9989C327.805 53.2032 327.542 53.3445 327.255 53.4072L328.523 55.0555H327.772L326.592 53.5061H325.542V55.0517H324.936V50.9563H326.767C327.165 50.9386 327.558 51.0551 327.883 51.2872C328.022 51.3922 328.134 51.5294 328.209 51.6871C328.284 51.8447 328.319 52.0181 328.313 52.1925C328.32 52.34 328.298 52.4875 328.247 52.626C328.196 52.7646 328.117 52.8915 328.016 52.9989ZM327.436 51.6955C327.232 51.5598 326.99 51.4943 326.745 51.5091H325.542V52.9609H326.712C326.96 52.9717 327.206 52.9043 327.413 52.7681C327.496 52.7054 327.563 52.6249 327.61 52.5325C327.657 52.4402 327.683 52.3384 327.685 52.2348C327.687 52.1312 327.666 52.0284 327.623 51.9342C327.58 51.8399 327.516 51.7566 327.436 51.6904" fill="#03D6D0"/>
</g>
<defs>
<clipPath id="clip0_11_492">
<rect width="330" height="69" fill="white" transform="translate(0.5)"/>
</clipPath>
</defs>
</svg>
