<svg width="198" height="165" viewBox="0 0 198 165" fill="none" xmlns="http://www.w3.org/2000/svg">
<path d="M79.0701 141.771L16.751 79.9101C9.04186 72.2222 4.38429 62.0255 3.63498 51.1956C2.88568 40.3657 6.09504 29.6311 12.6727 20.9662C19.2504 12.3013 28.754 6.28898 39.4354 4.03515C50.1168 1.78133 61.2576 3.43758 70.8085 8.69925L95.0444 22.1275C96.2795 22.8083 97.6686 23.1655 99.0809 23.1655C100.493 23.1655 101.882 22.8083 103.117 22.1275L126.844 8.90103C144.468 -0.926455 166.746 2.13149 181.016 16.3271C186.534 21.8207 190.53 28.6386 192.616 36.1196C194.703 43.6005 194.809 51.4907 192.926 59.0246C193.933 59.9146 194.716 61.0272 195.212 62.273C197.789 53.9264 198.033 45.0403 195.918 36.5666C193.803 28.0929 189.408 20.3509 183.206 14.17C167.941 -0.986135 144.159 -4.24586 125.352 6.23243L101.625 19.4589C100.847 19.8866 99.9727 20.111 99.0837 20.111C98.1947 20.111 97.3203 19.8866 96.5424 19.4589L72.3008 6.03918C53.505 -4.37659 29.7637 -1.06571 14.5355 14.0705C10.0457 18.5373 6.48526 23.8397 4.05755 29.6749C1.62985 35.5101 0.382482 41.7637 0.38673 48.0783C0.390977 54.3929 1.64676 60.6448 4.08231 66.4768C6.51786 72.3087 10.0855 77.6064 14.5812 82.0672L76.9004 143.917C77.2084 143.395 77.5939 142.923 78.0439 142.516C78.3624 142.233 78.7091 141.984 79.0787 141.771" fill="#FFC200"/>
<path d="M191.796 65.1035C191.701 63.9003 191.142 62.78 190.237 61.9755C189.332 61.171 188.15 60.7442 186.936 60.7838C182.674 60.8861 174.438 62.8527 163.418 73.7516C162.015 75.1385 160.634 76.5481 159.345 78.0401L145.557 93.9551L103.68 95.0521C97.9972 95.1929 92.4686 96.9203 87.7261 100.037L87.6203 100.108C87.2698 100.323 86.9918 100.637 86.8219 101.01C86.6521 101.383 86.5981 101.798 86.6669 102.202C86.7356 102.606 86.924 102.98 87.208 103.277C87.4919 103.574 87.8584 103.779 88.2607 103.868L128.971 113.394L99.4838 147.674C99.4838 147.674 86.7742 145.628 82.4433 144.945C82.1448 144.894 81.8388 144.91 81.5471 144.991C81.2554 145.072 80.9854 145.216 80.7565 145.413C80.5276 145.61 80.3456 145.855 80.2235 146.131C80.1015 146.406 80.0424 146.705 80.0506 147.006C80.0762 147.447 80.2574 147.866 80.5623 148.188L97.094 164.291C97.5227 164.719 98.0969 164.974 98.7042 165.004C99.3116 165.035 99.9086 164.839 100.379 164.455C100.427 164.413 100.473 164.37 100.519 164.322L177.028 88.8452C179.24 86.6728 181.315 84.3674 183.243 81.9421C189.369 74.2063 192.056 68.9771 191.805 65.1035" fill="#03D6D0"/>
</svg>
