<svg width="110" height="87" viewBox="0 0 110 87" fill="none" xmlns="http://www.w3.org/2000/svg">
<path d="M20.0497 86.7249C18.1497 86.7249 16.2497 85.2999 15.2997 83.3999C15.2997 82.9249 15.2997 82.9249 15.2997 82.4499V70.5749C15.2997 70.0999 15.2997 70.0999 15.2997 69.6249C15.2997 68.6749 15.2997 66.7749 16.2497 65.3499C17.1997 64.3999 18.1497 63.9249 19.0997 63.4499H20.0497C21.9497 62.9749 23.3747 62.4999 24.7997 62.0249C27.1747 60.5999 29.0747 58.2249 30.0247 55.3749C22.8997 55.3749 15.2997 55.3749 8.17465 55.3749C7.22465 55.3749 6.27465 55.3749 5.32465 54.8999C1.99966 53.9499 0.0996552 51.0999 0.0996552 47.7749C0.0996552 38.7499 0.0996552 29.2499 0.0996552 20.2249V9.77494C0.0996552 7.87494 0.0996552 5.02493 2.47465 2.64993C3.42465 1.69993 5.32465 1.22493 6.74965 1.22493H43.3246C48.5496 1.22493 50.9246 4.07493 50.9246 10.2499V11.6749C50.9246 17.8499 50.9246 41.1249 50.9246 53.4749C50.9246 62.9749 47.1246 71.5249 39.9996 78.1749L39.0497 79.1249C34.7747 82.4499 30.9747 84.3499 26.6997 85.7749C24.7997 86.2499 22.4247 86.2499 20.9997 86.7249C20.5247 86.7249 20.0497 86.7249 20.0497 86.7249ZM20.0497 81.9749C21.9497 81.4999 23.8497 81.4999 25.2747 81.0249C29.0747 80.0749 32.3997 78.1749 35.7247 75.3249L36.6747 74.3749C42.8497 68.6749 46.1746 61.5499 46.1746 52.9999C46.1746 41.1249 46.1746 17.3749 46.1746 11.1999V9.77494C46.1746 5.97494 45.2247 5.97493 43.7996 5.97493H6.74965C6.27465 5.97493 5.79965 5.97493 5.32465 6.92493C4.37465 7.39993 4.37465 7.87493 4.37465 10.2499V20.6999C4.37465 29.7249 4.37465 39.2249 4.37465 48.2499C4.37465 49.1999 5.32465 50.1499 6.27465 50.6249C6.74965 50.6249 7.22465 50.6249 7.69965 50.6249C15.7747 50.6249 24.3247 50.6249 32.3997 50.6249C33.3497 50.6249 33.8247 51.0999 34.2997 51.5749C35.2497 52.0499 35.2497 52.9999 35.2497 53.4749L34.7747 55.3749C33.8247 60.1249 30.9747 63.4499 27.1747 65.8249C25.2747 67.2499 22.8997 67.7249 20.9997 68.1999H20.0497C20.0497 68.1999 19.5747 68.1999 19.5747 68.6749V69.1499C19.5747 69.6249 19.5747 70.0999 19.5747 70.5749V73.4249L20.0497 81.9749Z" fill="#FFC200"/>
<path d="M77.9994 86.725C76.0994 86.725 74.1994 85.3 73.2494 83.4C73.2494 82.925 73.2494 82.925 73.2494 82.45V70.575C73.2494 70.1 73.2494 70.1 73.2494 69.625C73.2494 68.675 73.2494 66.775 74.1994 65.35C75.1494 64.4 76.0994 63.925 77.0494 63.45H77.9994C79.8994 62.975 81.3244 62.5 82.7494 62.025C85.1244 60.6 87.0244 58.225 87.9744 55.375C80.8494 55.375 73.2494 55.375 66.1244 55.375C65.1744 55.375 64.2244 55.375 63.2744 54.9C59.9494 53.95 58.0494 51.1 58.0494 47.775C58.0494 38.75 58.0494 29.725 58.0494 20.7V9.77497C58.0494 7.87497 58.0494 5.02496 60.4244 2.64997C61.8494 1.22496 63.2744 0.749966 65.1744 0.749966H101.749C106.974 0.749966 109.349 3.59997 109.349 9.77497V11.2C109.349 17.375 109.349 40.65 109.349 53C109.349 62.5 105.549 71.05 98.4244 77.7L96.9994 78.65L96.5244 79.125C92.7244 82.45 88.4494 84.35 84.1744 85.3C82.2744 85.775 80.3744 86.25 78.4744 86.25C78.4744 86.725 77.9994 86.725 77.9994 86.725ZM77.9994 81.975C79.8994 81.5 81.7994 81.5 83.2244 81.025C87.0244 80.075 90.3494 78.175 93.6744 75.325L94.6244 74.375C100.799 68.675 104.124 61.55 104.124 53C104.124 41.125 104.124 17.375 104.124 11.2V9.77497C104.124 5.97497 103.174 5.97497 101.274 5.97497H64.6994C64.2244 5.97497 63.7494 5.97496 63.2744 6.44996C62.7994 6.92496 62.3244 7.87497 62.3244 9.77497V20.7C62.3244 29.725 62.3244 38.75 62.3244 47.775C62.3244 48.725 63.2744 49.675 64.2244 50.15C64.6994 50.15 65.1744 50.15 65.6494 50.15C73.7244 50.15 82.2744 50.15 90.3494 50.15C91.2994 50.15 91.7744 50.625 92.2494 51.1C92.7244 51.575 92.7244 52.525 92.7244 53L92.2494 54.9C91.2994 59.65 88.4494 62.975 84.6494 65.35C82.7494 66.3 80.8494 67.25 78.4744 67.725H77.5244C77.5244 67.725 77.0494 67.725 77.0494 68.2V68.675C77.0494 69.15 77.0494 69.625 77.0494 70.1L77.9994 81.975Z" fill="#FFC200"/>
</svg>
