<svg xmlns:xlink="http://www.w3.org/1999/xlink" xmlns="http://www.w3.org/2000/svg" width="239.106" height="79.609" viewBox="0 0 239.106 79.609"><g transform="translate(-7.28 -5.003)"><path d="M22.347,19.361a11.678,11.678,0,0,0-8.179,3.311,11.12,11.12,0,0,0-3.395,7.98V40.965h8.785V30.829a6.022,6.022,0,0,1,.815-3.11,2.4,2.4,0,0,1,1.974-1.285,2.388,2.388,0,0,1,1.972,1.285,5.818,5.818,0,0,1,.822,3.11V40.965h8.789V30.652a11.12,11.12,0,0,0-3.395-7.98,11.7,11.7,0,0,0-8.189-3.311" transform="translate(-0.828 -3.404)" fill="#f5740e"/><path d="M298.173,19.361a11.741,11.741,0,0,0-8.194,3.311,11.156,11.156,0,0,0-3.38,7.98V40.965h8.784V30.829a5.865,5.865,0,0,1,.817-3.11,2.157,2.157,0,0,1,3.946,0,5.776,5.776,0,0,1,.816,3.11V40.965h8.785V30.652a11.1,11.1,0,0,0-3.388-7.98,11.713,11.713,0,0,0-8.186-3.311" transform="translate(-66.228 -3.404)" fill="#f5740e"/><path d="M50.933,13.2a4.7,4.7,0,0,0,0-6.75,4.983,4.983,0,0,0-6.913,0,4.681,4.681,0,0,0,0,6.75L45.1,14.242c1.8,1.76,1.926,2.223.211,3.893l-.977.964a4.242,4.242,0,0,0-1.306,3.058V37.573h8.889V22.156a4.261,4.261,0,0,0-1.3-3.058l-.977-.955c-1.715-1.678-1.587-2.141.213-3.9Z" transform="translate(-8.37 -0.012)" fill="#f5740e"/><path d="M69.964,34.258a2.054,2.054,0,0,1-3.95,0,7.542,7.542,0,0,1-.822-3.591,7.538,7.538,0,0,1,.822-3.588,2.055,2.055,0,0,1,3.95,0,6.992,6.992,0,0,1,.748,2.528h8.8a11.2,11.2,0,0,0-3.341-6.925,11.79,11.79,0,0,0-16.373,0,11.111,11.111,0,0,0,0,15.974,11.768,11.768,0,0,0,15.69.608,11.086,11.086,0,0,0,4.024-7.534h-8.8a6.974,6.974,0,0,1-.748,2.528" transform="translate(-11.649 -3.408)" fill="#f5740e"/><path d="M127.305,19.359a11.709,11.709,0,0,0-8.187,3.3,11.111,11.111,0,0,0,0,15.972,11.779,11.779,0,0,0,16.445-.071,9.846,9.846,0,0,0,2.54-5.6h-7.846s-1.086,2.665-2.952,2.665a2.377,2.377,0,0,1-1.967-1.485,6.56,6.56,0,0,1-.726-2.3h13.634s.938-5.429-2.792-9.107a11.333,11.333,0,0,0-8.149-3.37m-2.558,9.274a9.136,9.136,0,0,1,.591-1.678,2.436,2.436,0,0,1,1.967-1.483c.792,0,1.433.545,1.987,1.517a6.739,6.739,0,0,1,.55,1.627Z" transform="translate(-25.714 -3.404)" fill="#f5740e"/><path d="M235.157,19.359a11.73,11.73,0,0,0-8.186,3.3,11.1,11.1,0,0,0,0,15.972,11.777,11.777,0,0,0,16.443-.071,9.769,9.769,0,0,0,2.538-5.6h-7.835s-1.084,2.665-2.961,2.665a2.4,2.4,0,0,1-1.967-1.485,6.82,6.82,0,0,1-.724-2.3h13.641s.935-5.429-2.8-9.107a11.332,11.332,0,0,0-8.154-3.37m-2.546,9.274a8.862,8.862,0,0,1,.579-1.678,2.47,2.47,0,0,1,1.967-1.483c.795,0,1.44.545,1.99,1.517a6.541,6.541,0,0,1,.563,1.627Z" transform="translate(-51.286 -3.404)" fill="#f5740e"/><path d="M151.283,5a4.345,4.345,0,0,0-4.391,4.291l.015,28.266,8.788,0L155.681,9.29A4.343,4.343,0,0,0,151.283,5" transform="translate(-33.103 0)" fill="#f5740e"/><path d="M171.6,19.361a11.3,11.3,0,1,0,11.574,11.292A11.435,11.435,0,0,0,171.6,19.361m0,16.382c-1.537,0-2.787-2.276-2.787-5.09s1.25-5.088,2.787-5.088,2.791,2.278,2.791,5.088-1.251,5.09-2.791,5.09" transform="translate(-36.216 -3.404)" fill="#f5740e"/><path d="M266.391,19.361a11.3,11.3,0,1,0,11.582,11.292,11.431,11.431,0,0,0-11.582-11.292m0,16.382c-1.544,0-2.786-2.276-2.786-5.09s1.242-5.088,2.786-5.088,2.79,2.278,2.79,5.088-1.247,5.09-2.79,5.09" transform="translate(-58.692 -3.404)" fill="#f5740e"/><path d="M214.922,27.248l.014.011-.014-17.971a4.394,4.394,0,0,0-8.785.006V16.3a11.873,11.873,0,0,0-2.8-.333,11.747,11.747,0,0,0-8.19,3.3,11.1,11.1,0,0,0,0,15.97v0a11.786,11.786,0,0,0,16.382,0,11.152,11.152,0,0,0,3.395-7.989Zm-11.587,5.09c-1.528,0-2.785-2.276-2.785-5.09s1.257-5.088,2.785-5.088,2.8,2.278,2.8,5.088-1.255,5.09-2.8,5.09" transform="translate(-43.74)" fill="#f5740e"/><path d="M110.54,39.424a1.486,1.486,0,0,0-.232-.781l-4.815-7.1,3.34-5.9a4.234,4.234,0,0,0-1.562-5.863,4.453,4.453,0,0,0-6.016,1.511l-3.987,6.936V23.607a4.395,4.395,0,0,0-8.787,0V40.923h8.787V34.147l4.646,6.776,7.1,0a1.511,1.511,0,0,0,1.525-1.495" transform="translate(-19.253 -3.362)" fill="#f5740e"/><g transform="translate(9.766 47.357)"><path d="M20.215,61.687V74.3a.976.976,0,1,1-1.951,0V68.782H12.489V74.3a.975.975,0,1,1-1.951,0V61.687a.975.975,0,1,1,1.951,0v5.538h5.774V61.687a.976.976,0,1,1,1.951,0Z" transform="translate(-10.538 -60.563)" fill="#564e47"/><path d="M46.641,67.931a7.42,7.42,0,1,1-7.41-7.411A7.431,7.431,0,0,1,46.641,67.931Zm-12.869,0a5.449,5.449,0,1,0,5.459-5.439A5.433,5.433,0,0,0,33.772,67.931Z" transform="translate(-15.58 -60.52)" fill="#564e47"/><path d="M68.145,61.687a.975.975,0,0,1-.985.985H64.716V74.3a.976.976,0,0,1-.985.986.989.989,0,0,1-.986-.986V62.672H60.3a.985.985,0,1,1,0-1.971H67.16A.975.975,0,0,1,68.145,61.687Z" transform="translate(-22.103 -60.563)" fill="#564e47"/><path d="M86.581,74.3a.989.989,0,0,1-.986.986H80.2a.977.977,0,0,1-.986-.986V61.687A.952.952,0,0,1,80.2,60.7h5.4a.985.985,0,1,1,0,1.971H81.181V67.2h4.237a.788.788,0,1,1,0,1.577H81.181v4.532H85.6A.988.988,0,0,1,86.581,74.3Z" transform="translate(-26.82 -60.563)" fill="#564e47"/><path d="M104.127,75.285H98.668a.976.976,0,0,1-.985-.986V61.687a.975.975,0,0,1,.985-.986.988.988,0,0,1,.986.986V73.314h4.474a.988.988,0,0,1,.986.986A.976.976,0,0,1,104.127,75.285Z" transform="translate(-31.2 -60.563)" fill="#564e47"/><path d="M118.99,75.373a5.857,5.857,0,0,1-3.074-.906A.981.981,0,1,1,117,72.831a4.2,4.2,0,0,0,2.128.571,2.379,2.379,0,0,0,1.064-4.474c-.946-.453-2.305-.552-3.331-1.616-3.429-3.509,1.025-8.416,5.459-6.169a.99.99,0,0,1-1.025,1.7c-1.4-.867-3.765-.04-3.765,1.714,0,1.892,2.208,1.932,3.567,2.641a4.256,4.256,0,0,1,1.281,6.6A4.4,4.4,0,0,1,118.99,75.373Z" transform="translate(-35.42 -60.533)" fill="#564e47"/><path d="M158.343,69.573l-1.4,2.9,1.064,1.261a.877.877,0,0,1-.1,1.242.854.854,0,0,1-1.242-.1l-.729-.848a4.551,4.551,0,1,1-5.813-6.937,3.754,3.754,0,1,1,3.074.965l2.5,2.936,1.045-2.187a.886.886,0,0,1,1.6.769ZM154.8,72.666l-3.547-4.2a2.786,2.786,0,1,0,3.547,4.2Zm-4.139-8.356a2.01,2.01,0,1,0,2.01-2.01A2.019,2.019,0,0,0,150.657,64.31Z" transform="translate(-43.158 -60.526)" fill="#564e47"/><path d="M192.2,75.127a.979.979,0,0,1-1.359-.3l-3.587-5.656H186.03V74.3a.975.975,0,1,1-1.951,0V61.687a.985.985,0,0,1,.966-.986h3.39a4.236,4.236,0,0,1,1.064,8.337l3,4.729A.967.967,0,0,1,192.2,75.127ZM186.03,67.2h2.4a2.267,2.267,0,0,0,0-4.533h-2.4Z" transform="translate(-51.685 -60.563)" fill="#564e47"/><path d="M211.033,74.3a.988.988,0,0,1-.985.986h-5.4a.977.977,0,0,1-.986-.986V61.687a.952.952,0,0,1,.986-.986h5.4a.985.985,0,0,1,0,1.971h-4.416V67.2h4.238a.788.788,0,0,1,0,1.577h-4.238v4.532h4.416A.988.988,0,0,1,211.033,74.3Z" transform="translate(-56.328 -60.563)" fill="#564e47"/><path d="M225.28,75.373a5.859,5.859,0,0,1-3.074-.906.981.981,0,0,1,1.085-1.636,4.2,4.2,0,0,0,2.128.571,2.379,2.379,0,0,0,1.065-4.474c-.947-.453-2.306-.552-3.332-1.616-3.428-3.509,1.025-8.416,5.46-6.169a.991.991,0,0,1-1.025,1.7c-1.4-.867-3.764-.04-3.764,1.714,0,1.892,2.207,1.932,3.567,2.641a4.256,4.256,0,0,1,1.281,6.6A4.4,4.4,0,0,1,225.28,75.373Z" transform="translate(-60.621 -60.533)" fill="#564e47"/><path d="M255.371,67.931a7.42,7.42,0,1,1-7.411-7.411A7.431,7.431,0,0,1,255.371,67.931Zm-12.869,0a5.449,5.449,0,1,0,5.459-5.439A5.432,5.432,0,0,0,242.5,67.931Z" transform="translate(-65.07 -60.52)" fill="#564e47"/><path d="M276.811,75.127a.981.981,0,0,1-1.36-.3l-3.586-5.656h-1.222V74.3a.975.975,0,1,1-1.951,0V61.687a.984.984,0,0,1,.965-.986h3.39a4.236,4.236,0,0,1,1.064,8.337l3,4.729A.967.967,0,0,1,276.811,75.127ZM270.643,67.2h2.4a2.267,2.267,0,0,0,0-4.533h-2.4Z" transform="translate(-71.747 -60.563)" fill="#564e47"/><path d="M296.458,61.687a.975.975,0,0,1-.985.985H293.03V74.3a.976.976,0,0,1-.986.986.989.989,0,0,1-.986-.986V62.672h-2.444a.985.985,0,0,1,0-1.971h6.858A.975.975,0,0,1,296.458,61.687Z" transform="translate(-76.238 -60.563)" fill="#564e47"/><path d="M310.642,75.373a5.857,5.857,0,0,1-3.074-.906.981.981,0,0,1,1.083-1.636,4.2,4.2,0,0,0,2.129.571,2.379,2.379,0,0,0,1.064-4.474c-.946-.453-2.306-.552-3.33-1.616-3.43-3.509,1.024-8.416,5.458-6.169a.99.99,0,0,1-1.025,1.7c-1.4-.867-3.765-.04-3.765,1.714,0,1.892,2.208,1.932,3.567,2.641a4.255,4.255,0,0,1,1.282,6.6A4.4,4.4,0,0,1,310.642,75.373Z" transform="translate(-80.861 -60.533)" fill="#564e47"/></g><g transform="translate(9.766 47.357)"><path d="M20.215,61.687V74.3a.976.976,0,1,1-1.951,0V68.782H12.489V74.3a.975.975,0,1,1-1.951,0V61.687a.975.975,0,1,1,1.951,0v5.538h5.774V61.687a.976.976,0,1,1,1.951,0Z" transform="translate(-10.538 -60.563)" fill="#564e47"/><path d="M46.641,67.931a7.42,7.42,0,1,1-7.41-7.411A7.431,7.431,0,0,1,46.641,67.931Zm-12.869,0a5.449,5.449,0,1,0,5.459-5.439A5.433,5.433,0,0,0,33.772,67.931Z" transform="translate(-15.58 -60.52)" fill="#564e47"/><path d="M68.145,61.687a.975.975,0,0,1-.985.985H64.716V74.3a.976.976,0,0,1-.985.986.989.989,0,0,1-.986-.986V62.672H60.3a.985.985,0,1,1,0-1.971H67.16A.975.975,0,0,1,68.145,61.687Z" transform="translate(-22.103 -60.563)" fill="#564e47"/><path d="M86.581,74.3a.989.989,0,0,1-.986.986H80.2a.977.977,0,0,1-.986-.986V61.687A.952.952,0,0,1,80.2,60.7h5.4a.985.985,0,1,1,0,1.971H81.181V67.2h4.237a.788.788,0,1,1,0,1.577H81.181v4.532H85.6A.988.988,0,0,1,86.581,74.3Z" transform="translate(-26.82 -60.563)" fill="#564e47"/><path d="M104.127,75.285H98.668a.976.976,0,0,1-.985-.986V61.687a.975.975,0,0,1,.985-.986.988.988,0,0,1,.986.986V73.314h4.474a.988.988,0,0,1,.986.986A.976.976,0,0,1,104.127,75.285Z" transform="translate(-31.2 -60.563)" fill="#564e47"/><path d="M118.99,75.373a5.857,5.857,0,0,1-3.074-.906A.981.981,0,1,1,117,72.831a4.2,4.2,0,0,0,2.128.571,2.379,2.379,0,0,0,1.064-4.474c-.946-.453-2.305-.552-3.331-1.616-3.429-3.509,1.025-8.416,5.459-6.169a.99.99,0,0,1-1.025,1.7c-1.4-.867-3.765-.04-3.765,1.714,0,1.892,2.208,1.932,3.567,2.641a4.256,4.256,0,0,1,1.281,6.6A4.4,4.4,0,0,1,118.99,75.373Z" transform="translate(-35.42 -60.533)" fill="#564e47"/><path d="M158.343,69.573l-1.4,2.9,1.064,1.261a.877.877,0,0,1-.1,1.242.854.854,0,0,1-1.242-.1l-.729-.848a4.551,4.551,0,1,1-5.813-6.937,3.754,3.754,0,1,1,3.074.965l2.5,2.936,1.045-2.187a.886.886,0,0,1,1.6.769ZM154.8,72.666l-3.547-4.2a2.786,2.786,0,1,0,3.547,4.2Zm-4.139-8.356a2.01,2.01,0,1,0,2.01-2.01A2.019,2.019,0,0,0,150.657,64.31Z" transform="translate(-43.158 -60.526)" fill="#564e47"/><path d="M192.2,75.127a.979.979,0,0,1-1.359-.3l-3.587-5.656H186.03V74.3a.975.975,0,1,1-1.951,0V61.687a.985.985,0,0,1,.966-.986h3.39a4.236,4.236,0,0,1,1.064,8.337l3,4.729A.967.967,0,0,1,192.2,75.127ZM186.03,67.2h2.4a2.267,2.267,0,0,0,0-4.533h-2.4Z" transform="translate(-51.685 -60.563)" fill="#564e47"/><path d="M211.033,74.3a.988.988,0,0,1-.985.986h-5.4a.977.977,0,0,1-.986-.986V61.687a.952.952,0,0,1,.986-.986h5.4a.985.985,0,0,1,0,1.971h-4.416V67.2h4.238a.788.788,0,0,1,0,1.577h-4.238v4.532h4.416A.988.988,0,0,1,211.033,74.3Z" transform="translate(-56.328 -60.563)" fill="#564e47"/><path d="M225.28,75.373a5.859,5.859,0,0,1-3.074-.906.981.981,0,0,1,1.085-1.636,4.2,4.2,0,0,0,2.128.571,2.379,2.379,0,0,0,1.065-4.474c-.947-.453-2.306-.552-3.332-1.616-3.428-3.509,1.025-8.416,5.46-6.169a.991.991,0,0,1-1.025,1.7c-1.4-.867-3.764-.04-3.764,1.714,0,1.892,2.207,1.932,3.567,2.641a4.256,4.256,0,0,1,1.281,6.6A4.4,4.4,0,0,1,225.28,75.373Z" transform="translate(-60.621 -60.533)" fill="#564e47"/><path d="M255.371,67.931a7.42,7.42,0,1,1-7.411-7.411A7.431,7.431,0,0,1,255.371,67.931Zm-12.869,0a5.449,5.449,0,1,0,5.459-5.439A5.432,5.432,0,0,0,242.5,67.931Z" transform="translate(-65.07 -60.52)" fill="#564e47"/><path d="M276.811,75.127a.981.981,0,0,1-1.36-.3l-3.586-5.656h-1.222V74.3a.975.975,0,1,1-1.951,0V61.687a.984.984,0,0,1,.965-.986h3.39a4.236,4.236,0,0,1,1.064,8.337l3,4.729A.967.967,0,0,1,276.811,75.127ZM270.643,67.2h2.4a2.267,2.267,0,0,0,0-4.533h-2.4Z" transform="translate(-71.747 -60.563)" fill="#564e47"/><path d="M296.458,61.687a.975.975,0,0,1-.985.985H293.03V74.3a.976.976,0,0,1-.986.986.989.989,0,0,1-.986-.986V62.672h-2.444a.985.985,0,0,1,0-1.971h6.858A.975.975,0,0,1,296.458,61.687Z" transform="translate(-76.238 -60.563)" fill="#564e47"/><path d="M310.642,75.373a5.857,5.857,0,0,1-3.074-.906.981.981,0,0,1,1.083-1.636,4.2,4.2,0,0,0,2.129.571,2.379,2.379,0,0,0,1.064-4.474c-.946-.453-2.306-.552-3.33-1.616-3.43-3.509,1.024-8.416,5.458-6.169a.99.99,0,0,1-1.025,1.7c-1.4-.867-3.765-.04-3.765,1.714,0,1.892,2.208,1.932,3.567,2.641a4.255,4.255,0,0,1,1.282,6.6A4.4,4.4,0,0,1,310.642,75.373Z" transform="translate(-80.861 -60.533)" fill="#564e47"/></g><path d="M246.387,95.04a2.6,2.6,0,0,0-2.605-2.605l-233.9.052a2.605,2.605,0,1,0,0,5.211H162.331c4.228.1,7.494.42,8.759.871a17.937,17.937,0,0,1,2.5,1.22,15.914,15.914,0,0,0,5.136,2.051,16.846,16.846,0,0,0,10.4-1.707c2.486-1.237,4.14-2,6.715-2.042,3.415-.053,6.426.869,10.357,3.207,3.454,2.054,7.46,4.043,11.754,4.043a13.39,13.39,0,0,0,2.747-.282c2.457-.517,4.988-2.063,7.431-3.559a26,26,0,0,1,4.9-2.585,41.419,41.419,0,0,1,4.4-1.219h6.223a2.776,2.776,0,0,0,2.727-2.657" transform="translate(0 -20.73)" fill="#564e47"/></g></svg>