<svg width="110" height="86" viewBox="0 0 110 86" fill="none" xmlns="http://www.w3.org/2000/svg">
<path d="M89.2997 2.46323e-05C91.1997 2.44662e-05 93.0997 1.42503 94.0497 3.32503C94.0497 3.80003 94.0497 3.80002 94.0497 4.27502L94.0497 16.15C94.0497 16.625 94.0497 16.625 94.0497 17.1C94.0497 18.05 94.0497 19.95 93.0997 21.375C92.1497 22.325 91.1997 22.8 90.2497 23.275L89.2997 23.275C87.3997 23.75 85.9747 24.225 84.5497 24.7C82.1747 26.125 80.2747 28.5 79.3247 31.35C86.4497 31.35 94.0497 31.35 101.175 31.35C102.125 31.35 103.075 31.35 104.025 31.825C107.35 32.775 109.25 35.625 109.25 38.95C109.25 47.975 109.25 57.475 109.25 66.5L109.25 76.95C109.25 78.85 109.25 81.7 106.875 84.075C105.925 85.025 104.025 85.5 102.6 85.5L66.0247 85.5C60.7997 85.5 58.4247 82.65 58.4247 76.475L58.4247 75.05C58.4247 68.875 58.4247 45.6 58.4247 33.25C58.4247 23.75 62.2247 15.2 69.3497 8.55002L70.2997 7.60002C74.5747 4.27503 78.3747 2.37503 82.6497 0.95003C84.5497 0.475031 86.9247 0.475023 88.3497 2.47153e-05C88.8247 2.46738e-05 89.2997 2.46323e-05 89.2997 2.46323e-05ZM89.2997 4.75002C87.3997 5.22502 85.4997 5.22503 84.0747 5.70003C80.2747 6.65003 76.9497 8.55002 73.6247 11.4L72.6747 12.35C66.4997 18.05 63.1747 25.175 63.1747 33.725C63.1747 45.6 63.1747 69.35 63.1747 75.525L63.1747 76.95C63.1747 80.75 64.1247 80.75 65.5497 80.75L102.6 80.75C103.075 80.75 103.55 80.75 104.025 79.8C104.975 79.325 104.975 78.85 104.975 76.475L104.975 66.025C104.975 57 104.975 47.5 104.975 38.475C104.975 37.525 104.025 36.575 103.075 36.1C102.6 36.1 102.125 36.1 101.65 36.1C93.5747 36.1 85.0247 36.1 76.9497 36.1C75.9997 36.1 75.5247 35.625 75.0497 35.15C74.0997 34.675 74.0997 33.725 74.0997 33.25L74.5747 31.35C75.5247 26.6 78.3747 23.275 82.1747 20.9C84.0747 19.475 86.4497 19 88.3497 18.525L89.2997 18.525C89.2997 18.525 89.7747 18.525 89.7747 18.05L89.7747 17.575C89.7747 17.1 89.7747 16.625 89.7747 16.15L89.7747 13.3L89.2997 4.75002Z" fill="#FFC200"/>
<path d="M31.35 9.37348e-06C33.25 9.20738e-06 35.15 1.42501 36.1 3.32501C36.1 3.80001 36.1 3.8 36.1 4.275L36.1 16.15C36.1 16.625 36.1 16.625 36.1 17.1C36.1 18.05 36.1 19.95 35.15 21.375C34.2 22.325 33.25 22.8 32.3 23.275L31.35 23.275C29.45 23.75 28.025 24.225 26.6 24.7C24.225 26.125 22.325 28.5 21.375 31.35C28.5 31.35 36.1 31.35 43.225 31.35C44.175 31.35 45.125 31.35 46.075 31.825C49.4 32.775 51.3 35.625 51.3 38.95C51.3 47.975 51.3 57 51.3 66.025L51.3 76.95C51.3 78.85 51.3 81.7 48.925 84.075C47.5 85.5 46.075 85.975 44.175 85.975L7.60005 85.975C2.37505 85.975 4.93419e-05 83.125 4.88021e-05 76.95L4.86775e-05 75.525C4.81377e-05 69.35 4.61029e-05 46.075 4.50232e-05 33.725C4.41927e-05 24.225 3.80005 15.675 10.925 9.02501L12.35 8.07501L12.825 7.60001C16.625 4.27501 20.9 2.375 25.175 1.42501C27.075 0.949999 28.975 0.475008 30.875 0.475008C30.875 9.415e-06 31.35 9.37348e-06 31.35 9.37348e-06ZM31.35 4.75001C29.45 5.22501 27.55 5.22501 26.125 5.70001C22.325 6.65001 19 8.55001 15.675 11.4L14.725 12.35C8.55004 18.05 5.22504 25.175 5.22504 33.725C5.22504 45.6 5.22505 69.35 5.22505 75.525L5.22505 76.95C5.22505 80.75 6.17505 80.75 8.07505 80.75L44.6501 80.75C45.1251 80.75 45.6001 80.75 46.0751 80.275C46.5501 79.8 47.0251 78.85 47.025 76.95L47.025 66.025C47.025 57 47.025 47.975 47.025 38.95C47.025 38 46.075 37.05 45.125 36.575C44.65 36.575 44.175 36.575 43.7 36.575C35.625 36.575 27.075 36.575 19 36.575C18.05 36.575 17.575 36.1 17.1 35.625C16.625 35.15 16.625 34.2 16.625 33.725L17.1 31.825C18.05 27.075 20.9 23.75 24.7 21.375C26.6 20.425 28.5 19.475 30.875 19L31.825 19C31.825 19 32.3 19 32.3 18.525L32.3 18.05C32.3 17.575 32.3 17.1 32.3 16.625L31.35 4.75001Z" fill="#FFC200"/>
</svg>
