<svg width="24" height="24" viewBox="0 0 24 24" fill="none" xmlns="http://www.w3.org/2000/svg">
<path d="M12 23.3C18.2408 23.3 23.2999 18.2408 23.2999 12C23.2999 5.75918 18.2408 0.699997 12 0.699997C5.75913 0.699997 0.699951 5.75918 0.699951 12C0.699951 18.2408 5.75913 23.3 12 23.3Z" stroke="white" stroke-width="1.5" stroke-miterlimit="10" stroke-linecap="round" stroke-linejoin="round"/>
<path d="M12 14.9C8.5 14.9 5.5 16.9 4 19.9C6 22 8.9 23.2 12 23.2C15.1 23.2 18 21.9 20 19.9C18.5 17 15.5 14.9 12 14.9Z" stroke="white" stroke-width="1.5" stroke-miterlimit="10" stroke-linecap="round" stroke-linejoin="round"/>
<path d="M11.9999 12.3C13.9881 12.3 15.5999 10.6882 15.5999 8.69999C15.5999 6.71177 13.9881 5.09999 11.9999 5.09999C10.0117 5.09999 8.3999 6.71177 8.3999 8.69999C8.3999 10.6882 10.0117 12.3 11.9999 12.3Z" stroke="white" stroke-width="1.5" stroke-miterlimit="10" stroke-linecap="round" stroke-linejoin="round"/>
</svg>
