<svg width="40" height="40" viewBox="0 0 40 40" fill="none" xmlns="http://www.w3.org/2000/svg">
<path fill-rule="evenodd" clip-rule="evenodd" d="M32.7237 7.55918C29.4421 4.27377 25.078 2.46367 20.4283 2.46176C10.8479 2.46176 3.05051 10.2586 3.04677 19.8419C3.04543 22.9054 3.84581 25.8956 5.36691 28.5314L2.901 37.5383L12.1152 35.1213C14.6539 36.506 17.5123 37.2359 20.4214 37.2369H20.4285C20.4279 37.2369 20.429 37.2369 20.4285 37.2369C30.0078 37.2369 37.8059 29.4393 37.8099 19.8558C37.8116 15.2114 36.0053 10.8445 32.7237 7.55918ZM20.4284 34.3015H20.4225C17.8303 34.3005 15.2877 33.6039 13.0696 32.2877L12.5421 31.9747L7.07429 33.4089L8.53379 28.0779L8.19026 27.5312C6.74416 25.2311 5.98039 22.5726 5.98152 19.8429C5.98463 11.8776 12.4656 5.39736 20.4342 5.39736C24.2929 5.39856 27.9202 6.9033 30.6479 9.634C33.3754 12.3647 34.8767 15.9944 34.8751 19.8546C34.8719 27.8205 28.3911 34.3015 20.4284 34.3015Z" fill="white"/>
<path fill-rule="evenodd" clip-rule="evenodd" d="M28.3527 23.4816C27.9185 23.2642 25.7832 22.2137 25.3851 22.0686C24.987 21.9237 24.6975 21.8512 24.408 22.286C24.1185 22.7207 23.2861 23.699 23.0328 23.9889C22.7795 24.2786 22.526 24.3151 22.0918 24.0975C21.6576 23.8801 20.2582 23.4216 18.5993 21.942C17.3082 20.7903 16.4366 19.3682 16.1832 18.9333C15.9299 18.4986 16.1562 18.2636 16.3737 18.047C16.569 17.8523 16.808 17.5397 17.0252 17.2861C17.2423 17.0326 17.3147 16.8513 17.4595 16.5616C17.6042 16.2717 17.5319 16.0181 17.4233 15.8008C17.3147 15.5834 16.4461 13.4457 16.0843 12.5759C15.7316 11.7292 15.3736 11.8439 15.107 11.8305C14.8541 11.8178 14.5641 11.8152 14.2746 11.8152C13.9852 11.8152 13.5146 11.9239 13.1166 12.3586C12.7185 12.7935 11.5964 13.8442 11.5964 15.9817C11.5964 18.1195 13.1527 20.1846 13.3698 20.4744C13.5869 20.7644 16.4323 25.151 20.789 27.0322C21.8251 27.4797 22.6341 27.7469 23.2648 27.947C24.3052 28.2776 25.252 28.2309 26.0003 28.1191C26.8348 27.9944 28.5699 27.0685 28.9318 26.0542C29.2937 25.0396 29.2937 24.1699 29.1851 23.9889C29.0765 23.8077 28.787 23.699 28.3527 23.4816Z" fill="white"/>
</svg>
