<svg width="36" height="36" viewBox="0 0 36 36" fill="none" xmlns="http://www.w3.org/2000/svg">
<path fill-rule="evenodd" clip-rule="evenodd" d="M30.7236 5.55917C27.4419 2.27376 23.0779 0.463655 18.4282 0.46175C8.84782 0.46175 1.05039 8.25855 1.04665 17.8419C1.04531 20.9054 1.84569 23.8955 3.36679 26.5314L0.900879 35.5383L10.1151 33.1213C12.6538 34.506 15.5122 35.2359 18.4213 35.2369H18.4283C18.4278 35.2369 18.4289 35.2369 18.4283 35.2369C28.0077 35.2369 35.8058 27.4393 35.8098 17.8558C35.8115 13.2114 34.0052 8.84444 30.7236 5.55917ZM18.4283 32.3014H18.4224C15.8302 32.3005 13.2876 31.6039 11.0695 30.2877L10.542 29.9747L5.07416 31.4089L6.53367 26.0779L6.19014 25.5312C4.74403 23.2311 3.98027 20.5726 3.9814 17.8429C3.9845 9.87759 10.4654 3.39735 18.4341 3.39735C22.2928 3.39855 25.9201 4.90329 28.6477 7.63399C31.3753 10.3647 32.8765 13.9944 32.875 17.8546C32.8717 25.8205 26.391 32.3014 18.4283 32.3014Z" fill="#03D6D0"/>
<path fill-rule="evenodd" clip-rule="evenodd" d="M26.3525 21.4816C25.9182 21.2642 23.7829 20.2137 23.3848 20.0686C22.9868 19.9237 22.6972 19.8512 22.4077 20.286C22.1182 20.7207 21.2859 21.699 21.0325 21.9889C20.7792 22.2786 20.5258 22.3151 20.0916 22.0975C19.6573 21.8801 18.2579 21.4216 16.5991 19.942C15.3079 18.7903 14.4364 17.3682 14.1829 16.9333C13.9296 16.4986 14.156 16.2636 14.3734 16.047C14.5688 15.8523 14.8078 15.5397 15.0249 15.2861C15.242 15.0326 15.3144 14.8513 15.4592 14.5616C15.604 14.2717 15.5317 14.0181 15.423 13.8008C15.3144 13.5834 14.4459 11.4457 14.084 10.5759C13.7314 9.72921 13.3734 9.84393 13.1067 9.83046C12.8538 9.81783 12.5639 9.81522 12.2744 9.81522C11.9849 9.81522 11.5143 9.92394 11.1163 10.3586C10.7182 10.7935 9.59619 11.8442 9.59619 13.9817C9.59619 16.1195 11.1524 18.1846 11.3696 18.4744C11.5867 18.7644 14.4321 23.151 18.7887 25.0322C19.8249 25.4797 20.6339 25.7469 21.2646 25.947C22.305 26.2776 23.2518 26.2309 24.0001 26.1191C24.8345 25.9944 26.5696 25.0685 26.9315 24.0542C27.2935 23.0396 27.2935 22.1699 27.1848 21.9889C27.0763 21.8077 26.7867 21.699 26.3525 21.4816Z" fill="#03D6D0"/>
</svg>
